<?xml version="1.0" encoding="UTF-8"?>
<svg width="22px" height="71px" viewBox="0 0 22 71" version="1.1" xmlns="http://www.w3.org/2000/svg" xmlns:xlink="http://www.w3.org/1999/xlink">
    <!-- Generator: Sketch 60.1 (88133) - https://sketch.com -->
    <title>angel-of-independence-of-mexico</title>
    <desc>Created with Sketch.</desc>
    <g id="RA-CAM" stroke="none" stroke-width="1" fill="none" fill-rule="evenodd">
        <g id="Main" transform="translate(-40.000000, -5982.000000)" fill="#FFFFFF" fill-rule="nonzero">
            <g id="angel-of-independence-of-mexico" transform="translate(40.000000, 5982.000000)">
                <path d="M21.1800023,1.89764115 C21.1800023,1.89764115 22.0688742,0.974116076 21.9957202,0.640958455 C21.9275767,0.299699736 20.0075332,1.39638577 18.7238297,2.0596631 C17.4451369,2.71990252 16.4911278,2.98217554 16.1453997,3.84089184 C15.7886484,4.70365868 14.831633,6.99019336 14.831633,6.99019336 C14.831633,6.99019336 14.4398078,6.78969121 14.4097445,6.45855886 C14.3756727,6.12641387 13.9768328,5.69705572 13.4577396,5.82768592 C12.9316317,5.96641721 12.9626971,6.56286048 12.7071589,6.69247804 C12.4426018,6.81703241 11.9505656,7.38512185 12.1870636,7.88637723 C12.4115364,8.37851889 12.5127495,8.80787704 12.6730872,8.9405325 C12.8244058,9.07217533 12.7732982,9.59672137 12.571874,9.76279387 C12.3754604,9.929879 12.1860615,9.8944367 11.8583714,9.73545266 C11.5256708,9.56026644 10.9985607,9.26963958 10.8392252,9.10255445 C10.6718727,8.93951987 10.2459758,7.58764928 10.2860602,7.25347902 C10.3161235,6.9203214 10.474457,6.69247804 10.474457,6.69247804 C10.474457,6.69247804 11.5867995,6.56286048 11.7170739,6.35932042 C11.8583714,6.15679299 11.9465571,5.76287714 11.8824221,5.63123431 C11.8122743,5.49250302 11.7531498,5.39731513 11.4655442,5.39731513 C11.1779385,5.39731513 10.3832649,5.42971952 10.111693,5.52895796 C9.8601633,5.63123431 8.90815842,5.69199254 8.77788407,5.79123098 C8.64360128,5.89553261 8.64360128,6.26413253 8.74281021,6.49096325 C8.84402336,6.71779397 8.80794738,6.86057581 9.03743066,6.86057581 C9.26591183,6.86057581 9.45731492,6.9557637 9.45731492,6.9557637 L9.43025794,7.98156513 C9.43025794,7.98156513 8.16258829,5.85907767 6.41791409,4.2732879 C4.67925256,2.68648549 0.360156759,-0.120544679 0.0996080564,0.00400968974 C-0.159938536,0.142740979 0.169755784,1.32752644 0.169755784,1.32752644 C0.169755784,1.32752644 -0.159938536,1.69005054 0.0996080564,2.51940036 C0.356148317,3.34267436 1.87033712,4.14164507 1.87033712,4.14164507 C1.87033712,4.14164507 1.96854394,4.94061578 2.39043242,5.36997393 C2.81432511,5.79123098 3.82946294,6.29147373 3.82946294,6.29147373 C3.82946294,6.29147373 4.09702642,7.55119434 4.64518081,7.8418212 C5.20235418,8.13953652 5.95393698,8.3734557 5.95393698,8.3734557 C5.95393698,8.3734557 5.95393698,9.33141044 6.44998163,9.55824116 C6.94201783,9.79216034 7.71865339,9.76076859 7.71865339,9.76076859 C7.71865339,9.76076859 7.07229218,10.8149239 7.53125874,11.2513705 C7.98721897,11.6878171 8.57044722,11.6878171 8.57044722,11.6878171 C8.57044722,11.6878171 8.47624884,12.5404576 8.87208245,12.6791888 C9.2629055,12.8027306 9.52946687,12.5404576 9.52946687,12.5404576 C9.52946687,12.5404576 9.39518408,13.3981612 9.82408732,13.6006886 C10.2459758,13.8032161 10.610744,13.337403 10.610744,13.337403 C10.610744,13.337403 10.6738769,13.9632127 11.1278329,13.9267578 C11.5867995,13.8994166 11.7531498,13.725243 11.7531498,13.725243 C11.7531498,13.725243 12.3073169,14.3277621 12.1459771,14.6872483 C11.981631,15.0558482 11.3883816,15.9854491 11.3883816,15.9854491 C11.3883816,15.9854491 10.6428115,16.0148156 10.6718727,16.6112589 C10.7089508,17.2066895 11.1278329,17.3089659 11.1939722,17.5327587 C11.2601115,17.7666779 11.0596894,18.6608365 10.7720838,18.7995678 C10.4734549,18.9241221 9.89022661,19.292722 9.8601633,19.5479066 C9.82408732,19.8182807 8.93922385,20.0815664 8.97529982,20.484596 C9.00937157,20.8785118 9.82408732,21.408121 9.92630258,21.8729215 C10.0215031,22.3306335 10.2910708,22.7235367 10.8041513,22.8551795 C11.3302592,22.9939108 11.5627489,23.4941536 11.464542,24.0541419 C11.3613247,24.6161555 11.88142,25.538668 12.4796799,25.6348685 C13.0588997,25.7371448 13.1270432,26.4338392 12.8735093,26.8611721 C12.6019373,27.2874923 11.7872216,27.5548285 11.6539409,28.086463 C11.5286771,28.6180975 11.7872216,29.0758095 11.7872216,29.0758095 C11.7872216,29.0758095 11.0636979,29.4747886 10.8753011,30.1016109 C10.7620627,30.4428697 10.856261,30.6838773 10.9664932,30.8367855 L10.3171256,31.5405683 L9.97941444,32.2038457 C9.88521606,32.3020715 9.80103879,32.4114363 9.7539396,32.5430791 C9.73690372,32.6099132 9.72688262,32.6747219 9.72688262,32.7456065 L9.43226216,33.3278729 L9.43226216,33.7491299 L9.27092239,33.8098882 L9.27092239,34.9308775 L9.43226216,34.9308775 L9.43226216,38.2796685 L7.44507725,38.8447201 L7.44507725,44.9752253 L9.10156573,47.6435242 L9.10156573,71 L19.3471424,71 L19.3471424,47.6435242 L20.9996224,44.9752253 L20.9996224,38.8457327 L19.0274692,38.286757 L19.0274692,34.9369533 L19.2810031,34.9369533 L19.2810031,33.8412799 L19.0204544,33.7369783 L19.0204544,33.3298982 L19.0064249,33.3005317 C19.0204544,33.0726883 18.9823742,32.8013016 18.8520999,32.6230774 C18.7739353,32.4995357 18.6326377,32.3749813 18.4963507,32.2676418 L18.1325846,31.541581 L17.8038924,31.1932338 L17.7768354,31.0342498 L17.5784176,30.9593146 L17.2487232,30.6109674 L17.2487232,30.2626203 C17.2487232,30.2626203 17.0673413,30.2555318 16.8819508,30.2211021 L15.6002516,28.8641684 L15.5381208,28.8641684 C15.3026249,28.5249349 15.1172344,28.1978531 15.131264,28.053046 C15.158321,27.6824208 15.5190807,27.5872329 15.5190807,27.2895176 C15.5190807,26.9918023 15.49503,25.3381658 15.7896505,24.9837428 C16.0782583,24.6181808 16.4039442,23.7918689 16.3728788,23.4506102 C16.338807,23.1285916 16.338807,22.6273362 16.338807,22.6273362 C16.338807,22.6273362 17.2507275,23.2906135 17.3880166,23.6875673 C17.5182909,24.0824957 17.5533648,25.3381658 17.7798417,25.3381658 C18.0063187,25.3381658 18.4382283,24.6181808 18.4001481,24.0824957 C18.3700848,23.5569371 17.7527848,22.8977103 17.9441879,22.758979 C18.1426057,22.6273362 19.5185033,22.072411 19.5465624,20.64358 C19.5696109,19.2177869 18.5003591,18.6598238 17.6465611,18.0633806 C16.8027841,17.4709878 16.4059484,17.077072 16.4981426,16.5768292 C16.6013599,16.0846876 15.8227201,15.2188828 15.6513593,14.7956005 C15.4970343,14.3662423 15.3597451,13.0072833 15.3597451,13.0072833 C15.3597451,13.0072833 16.4430265,14.4634555 16.6705055,14.4259879 C16.8969825,14.3915583 19.1837984,14.6933241 19.1837984,14.6933241 C19.1837984,14.6933241 19.5475645,15.5874827 19.7489887,15.5874827 C19.9353812,15.5874827 20.10574,15.1216696 20.1368054,14.8604093 C20.1678708,14.5971236 20.432428,14.0371353 20.233008,13.8346078 C20.0385986,13.6391689 19.8361723,13.4376541 19.5205075,13.532842 C19.1807921,13.6381562 19.1807921,14.0340973 19.0224586,14.0340973 C18.8551062,14.0340973 17.0913919,13.5085387 16.9270458,13.3667695 C16.7626997,13.2351266 15.8507792,11.35871 15.8507792,11.35871 C15.8507792,11.35871 16.2175516,11.0954244 16.2175516,10.719736 C16.2175516,10.3643003 16.1524145,9.13495884 16.1524145,9.13495884 C16.1524145,9.13495884 16.8969825,8.64281718 16.9581112,8.37548098 C17.0262547,8.10713213 17.0262547,7.9481481 17.0262547,7.9481481 C17.0262547,7.9481481 17.6846413,7.74562067 17.7507805,7.38613448 C17.8129114,7.02057247 17.8399684,6.3886869 18.2067408,6.32590339 C18.56249,6.26210725 18.9573215,6.08995894 19.1597478,5.66566397 C19.3581656,5.23529319 19.2459293,4.79985921 19.2459293,4.79985921 C19.2459293,4.79985921 19.7459823,4.44138566 19.8321638,4.04746981 C19.924358,3.65254133 19.9664466,3.41558423 19.9664466,3.41558423 C19.9664466,3.41558423 21.3824286,2.85559589 21.4445595,2.48699597 C21.5066903,2.12750979 21.1800023,1.89764115 21.1800023,1.89764115 Z" id="Path"></path>
            </g>
        </g>
    </g>
</svg>