<?xml version="1.0" encoding="UTF-8"?>
<svg width="56px" height="47px" viewBox="0 0 56 47" version="1.1" xmlns="http://www.w3.org/2000/svg" xmlns:xlink="http://www.w3.org/1999/xlink">
    <!-- Generator: Sketch 60.1 (88133) - https://sketch.com -->
    <title></title>
    <desc>Created with Sketch.</desc>
    <g id="RA-CAM" stroke="none" stroke-width="1" fill="none" fill-rule="evenodd">
        <g id="Main" transform="translate(-773.000000, -160.000000)" fill="#F82828" fill-rule="nonzero">
            <path d="M800.974045,167.84311 C801.999149,166.051609 803.28051,164.51606 804.818165,163.236417 C806.697522,161.700845 808.865157,160.709136 811.321135,160.261261 C813.777113,159.813386 816.20102,159.941348 818.592929,160.645152 C820.984838,161.348956 823.035015,162.575263 824.743521,164.324108 C828.758511,168.461622 829.933091,173.409502 828.267298,179.167897 C827.242194,182.878862 825.106593,186.717735 821.860431,190.684629 C817.760016,195.589929 812.314233,200.175248 805.522921,204.440726 C804.241541,205.251167 802.874756,206.061596 801.422526,206.872036 C801.337101,206.957346 801.208964,207 801.038114,207 C800.867263,207 800.739127,206.978673 800.653702,206.936018 C792.794573,202.457267 786.473194,197.616022 781.689376,192.412139 C778.101513,188.615864 775.570826,184.606375 774.097239,180.383552 C772.623652,176.160729 772.63433,172.321856 774.129273,168.86682 C775.239803,166.435497 776.745401,164.48407 778.646115,163.012481 C780.546828,161.540891 782.821243,160.613163 785.469428,160.22927 C792.175315,159.33352 797.300757,161.80746 800.845908,167.651164 L800.974045,167.84311 Z" id=""></path>
        </g>
    </g>
</svg>