<?xml version="1.0" encoding="UTF-8"?>
<svg width="11px" height="21px" viewBox="0 0 11 21" version="1.1" xmlns="http://www.w3.org/2000/svg" xmlns:xlink="http://www.w3.org/1999/xlink">
    <!-- Generator: Sketch 60.1 (88133) - https://sketch.com -->
    <title>fa</title>
    <desc>Created with Sketch.</desc>
    <g id="RA-CAM" stroke="none" stroke-width="1" fill="none" fill-rule="evenodd">
        <g id="Main" transform="translate(-1241.000000, -6017.000000)" fill="#FFFFFF" fill-rule="nonzero">
            <path d="M1251.57971,6023.816 L1251.18562,6027.512 L1248.1807,6027.512 L1248.1807,6038 L1243.69794,6038 L1243.69794,6027.512 L1241.57971,6027.512 L1241.57971,6023.816 L1243.69794,6023.816 L1243.69794,6021.416 C1243.69794,6020.728 1243.81288,6020.088 1244.04276,6019.496 C1244.33833,6018.76 1244.78989,6018.184 1245.39744,6017.768 C1246.13636,6017.256 1247.07232,6017 1248.20533,6017 L1251.53045,6017.024 L1251.53045,6020.624 L1249.11666,6020.624 C1248.87035,6020.624 1248.6651,6020.688 1248.50089,6020.816 C1248.28743,6020.992 1248.1807,6021.264 1248.1807,6021.632 L1248.1807,6023.816 L1251.57971,6023.816 Z" id=""></path>
        </g>
    </g>
</svg>