<?xml version="1.0" encoding="UTF-8"?>
<svg width="115px" height="69px" viewBox="0 0 115 69" version="1.1" xmlns="http://www.w3.org/2000/svg" xmlns:xlink="http://www.w3.org/1999/xlink">
    <!-- Generator: Sketch 60.1 (88133) - https://sketch.com -->
    <title>Group 35</title>
    <desc>Created with Sketch.</desc>
    <defs>
        <path d="M19.4352381,6.45707317 L1.55452381,39.3720976 C-2.41285714,46.6755447 2.54619048,55.8046829 10.4811905,55.8046829 L10.4811905,55.8046829 L49.582381,55.8046829 C57.5171429,55.8046829 62.4764286,46.6755447 58.5090476,39.3720976 L58.5090476,39.3720976 L40.6285714,6.45707317 C38.362619,2.2857561 34.1971429,0.200097561 30.0319048,0.200097561 L30.0319048,0.200097561 C25.8664286,0.200097561 21.7011905,2.2857561 19.4352381,6.45707317" id="path-1"></path>
        <linearGradient x1="50.0000201%" y1="7.40595178e-05%" x2="50.0000201%" y2="101.49733%" id="linearGradient-3">
            <stop stop-color="#08AAFF" offset="0%"></stop>
            <stop stop-color="#3D2BB6" offset="100%"></stop>
        </linearGradient>
        <path d="M34.5276507,0.557840426 C33.016622,0.998840426 31.5536555,1.70345745 30.1153062,2.59059574 L30.1153062,2.59059574 C27.9576651,3.92119149 25.8553541,5.66262766 23.7281914,7.54078723 L23.7281914,7.54078723 C16.9938565,13.4869149 10.010067,20.8051915 0.231636364,20.8080957 L0.231636364,20.8080957 C0.234215311,20.8080957 0.236794258,20.8083191 0.239373206,20.8083191 L0.239373206,20.8083191 L38.7418852,20.8083191 C44.5754641,20.8083191 48.773756,15.8136702 48.9017656,10.3000532 L48.9017656,10.3000532 C48.8888708,9.27038298 48.7228804,8.27578723 48.4176268,7.33905319 L48.4176268,7.33905319 C47.9932727,6.03884043 47.3082105,4.84809574 46.4208182,3.82244681 L46.4208182,3.82244681 C46.1987943,3.56620213 45.9643445,3.32023404 45.7181722,3.08543617 L45.7181722,3.08543617 C45.2253589,2.61539362 44.68589,2.19070213 44.1070335,1.81739362 L44.1070335,1.81739362 C43.2379282,1.25798936 42.2797321,0.814531915 41.2572967,0.51137234 L41.2572967,0.51137234 C40.5752823,0.309191489 39.8648995,0.168893617 39.1329474,0.0980744681 L39.1329474,0.0980744681 C38.7669713,0.0627765957 38.3953684,0.0444574468 38.0197799,0.0444574468 L38.0197799,0.0444574468 C36.8219761,0.0444574468 35.6612153,0.226978723 34.5276507,0.557840426" id="path-4"></path>
        <linearGradient x1="50.0001397%" y1="-24.7486756%" x2="50.0001397%" y2="102.520548%" id="linearGradient-6">
            <stop stop-color="#08AAFF" offset="0%"></stop>
            <stop stop-color="#3D2BB6" offset="100%"></stop>
        </linearGradient>
        <path d="M32.6029956,0.0254336112 L10.3059696,0.0254336112 C4.63795045,0.0254336112 -4.54747351e-13,4.65251779 -4.54747351e-13,10.3072573 L-4.54747351e-13,10.3072573 L-4.54747351e-13,45.7181763 C-4.54747351e-13,51.373145 4.63795045,56 10.3061993,56 L10.3061993,56 L46.2619136,56 L46.2619136,55.9915221 L46.2789091,55.9915221 C48.2915049,55.9915221 50.1435616,54.7411508 50.7537941,52.8276726 L50.7537941,52.8276726 C51.4030704,50.7925254 50.7108458,48.8689653 49.3495933,47.7061223 L49.3495933,47.7061223 C49.3495933,47.6976444 49.3580911,47.6891666 49.3580911,47.6804596 L49.3580911,47.6804596 L37.1447144,35.4959268 L36.7682858,35.12038 C44.8933117,33.4820889 51,26.3233293 51,17.7396001 L51,17.7396001 C51,8.14860823 43.3710607,0.358361872 33.8347144,0.0254336112 L33.8347144,0.0254336112 C33.6293896,0.0169557408 33.4240649,0 33.2187401,0 L33.2187401,0 C33.0051473,0 32.8083203,0.0169557408 32.6029956,0.0254336112" id="path-7"></path>
        <linearGradient x1="30.3368719%" y1="1.62601675%" x2="72.4099094%" y2="116.591107%" id="linearGradient-9">
            <stop stop-color="#08AAFF" offset="0%"></stop>
            <stop stop-color="#3D2BB6" offset="100%"></stop>
        </linearGradient>
        <path d="M0.0441009174,10.5091304 C0.0441009174,16.2546848 4.34953211,20.9123478 9.66084404,20.9123478 L9.66084404,20.9123478 C9.73448624,20.9123478 9.82711927,20.9171413 9.90899083,20.9194239 L9.90899083,20.9194239 L18.560367,20.9194239 L18.560367,20.9109783 L18.5759817,20.9109783 C20.425055,20.9109783 22.126633,19.6653587 22.6872844,17.7589239 L22.6872844,17.7589239 C23.2838073,15.7317391 22.6478257,13.8154891 21.3971743,12.6570652 L21.3971743,12.6570652 C21.3971743,12.6486196 21.4049817,12.6401739 21.4049817,12.6315 L21.4049817,12.6315 L10.1839358,0.493271739 L9.84062385,0.121891304 C9.78344037,0.118695652 9.71359633,0.106369565 9.66084404,0.106369565 L9.66084404,0.106369565 C4.34953211,0.106369565 0.0441009174,4.76403261 0.0441009174,10.5091304" id="path-10"></path>
        <linearGradient x1="122.495659%" y1="99.6117957%" x2="0.198821121%" y2="28.900643%" id="linearGradient-12">
            <stop stop-color="#08AAFF" offset="0%"></stop>
            <stop stop-color="#3D2BB6" offset="100%"></stop>
        </linearGradient>
    </defs>
    <g id="RA-CAM" stroke="none" stroke-width="1" fill="none" fill-rule="evenodd">
        <g id="Main" transform="translate(-50.000000, -16.000000)">
            <g id="Group-35" transform="translate(50.000000, 16.000000)">
                <g id="Group-3">
                    <mask id="mask-2" fill="white">
                        <use xlink:href="#path-1"></use>
                    </mask>
                    <g id="Clip-2"></g>
                    <path d="M19.4352381,6.45707317 L1.55452381,39.3720976 C-2.41285714,46.6755447 2.54619048,55.8046829 10.4811905,55.8046829 L10.4811905,55.8046829 L49.582381,55.8046829 C57.5171429,55.8046829 62.4764286,46.6755447 58.5090476,39.3720976 L58.5090476,39.3720976 L40.6285714,6.45707317 C38.362619,2.2857561 34.1971429,0.200097561 30.0319048,0.200097561 L30.0319048,0.200097561 C25.8664286,0.200097561 21.7011905,2.2857561 19.4352381,6.45707317" id="Fill-1" fill="url(#linearGradient-3)" mask="url(#mask-2)"></path>
                </g>
                <g id="Group-6" transform="translate(12.000000, 35.000000)">
                    <mask id="mask-5" fill="white">
                        <use xlink:href="#path-4"></use>
                    </mask>
                    <g id="Clip-5"></g>
                    <path d="M34.5276507,0.557840426 C33.016622,0.998840426 31.5536555,1.70345745 30.1153062,2.59059574 L30.1153062,2.59059574 C27.9576651,3.92119149 25.8553541,5.66262766 23.7281914,7.54078723 L23.7281914,7.54078723 C16.9938565,13.4869149 10.010067,20.8051915 0.231636364,20.8080957 L0.231636364,20.8080957 C0.234215311,20.8080957 0.236794258,20.8083191 0.239373206,20.8083191 L0.239373206,20.8083191 L38.7418852,20.8083191 C44.5754641,20.8083191 48.773756,15.8136702 48.9017656,10.3000532 L48.9017656,10.3000532 C48.8888708,9.27038298 48.7228804,8.27578723 48.4176268,7.33905319 L48.4176268,7.33905319 C47.9932727,6.03884043 47.3082105,4.84809574 46.4208182,3.82244681 L46.4208182,3.82244681 C46.1987943,3.56620213 45.9643445,3.32023404 45.7181722,3.08543617 L45.7181722,3.08543617 C45.2253589,2.61539362 44.68589,2.19070213 44.1070335,1.81739362 L44.1070335,1.81739362 C43.2379282,1.25798936 42.2797321,0.814531915 41.2572967,0.51137234 L41.2572967,0.51137234 C40.5752823,0.309191489 39.8648995,0.168893617 39.1329474,0.0980744681 L39.1329474,0.0980744681 C38.7669713,0.0627765957 38.3953684,0.0444574468 38.0197799,0.0444574468 L38.0197799,0.0444574468 C36.8219761,0.0444574468 35.6612153,0.226978723 34.5276507,0.557840426" id="Fill-4" fill="url(#linearGradient-6)" mask="url(#mask-5)"></path>
                </g>
                <g id="Group-9" transform="translate(64.000000, 0.000000)">
                    <mask id="mask-8" fill="white">
                        <use xlink:href="#path-7"></use>
                    </mask>
                    <g id="Clip-8"></g>
                    <path d="M32.6029956,0.0254336112 L10.3059696,0.0254336112 C4.63795045,0.0254336112 -4.54747351e-13,4.65251779 -4.54747351e-13,10.3072573 L-4.54747351e-13,10.3072573 L-4.54747351e-13,45.7181763 C-4.54747351e-13,51.373145 4.63795045,56 10.3061993,56 L10.3061993,56 L46.2619136,56 L46.2619136,55.9915221 L46.2789091,55.9915221 C48.2915049,55.9915221 50.1435616,54.7411508 50.7537941,52.8276726 L50.7537941,52.8276726 C51.4030704,50.7925254 50.7108458,48.8689653 49.3495933,47.7061223 L49.3495933,47.7061223 C49.3495933,47.6976444 49.3580911,47.6891666 49.3580911,47.6804596 L49.3580911,47.6804596 L37.1447144,35.4959268 L36.7682858,35.12038 C44.8933117,33.4820889 51,26.3233293 51,17.7396001 L51,17.7396001 C51,8.14860823 43.3710607,0.358361872 33.8347144,0.0254336112 L33.8347144,0.0254336112 C33.6293896,0.0169557408 33.4240649,0 33.2187401,0 L33.2187401,0 C33.0051473,0 32.8083203,0.0169557408 32.6029956,0.0254336112" id="Fill-7" fill="url(#linearGradient-9)" mask="url(#mask-8)"></path>
                </g>
                <g id="Group-12" transform="translate(92.000000, 35.000000)">
                    <mask id="mask-11" fill="white">
                        <use xlink:href="#path-10"></use>
                    </mask>
                    <g id="Clip-11"></g>
                    <path d="M0.0441009174,10.5091304 C0.0441009174,16.2546848 4.34953211,20.9123478 9.66084404,20.9123478 L9.66084404,20.9123478 C9.73448624,20.9123478 9.82711927,20.9171413 9.90899083,20.9194239 L9.90899083,20.9194239 L18.560367,20.9194239 L18.560367,20.9109783 L18.5759817,20.9109783 C20.425055,20.9109783 22.126633,19.6653587 22.6872844,17.7589239 L22.6872844,17.7589239 C23.2838073,15.7317391 22.6478257,13.8154891 21.3971743,12.6570652 L21.3971743,12.6570652 C21.3971743,12.6486196 21.4049817,12.6401739 21.4049817,12.6315 L21.4049817,12.6315 L10.1839358,0.493271739 L9.84062385,0.121891304 C9.78344037,0.118695652 9.71359633,0.106369565 9.66084404,0.106369565 L9.66084404,0.106369565 C4.34953211,0.106369565 0.0441009174,4.76403261 0.0441009174,10.5091304" id="Fill-10" fill="url(#linearGradient-12)" mask="url(#mask-11)"></path>
                </g>
                <g id="Group-19" transform="translate(73.000000, 59.000000)" fill="#0058FF">
                    <path d="M7.59997727,8.22062791 C7.64406818,8.22062791 7.68179545,8.23667442 7.71270455,8.26806977 L7.97770455,8.55969767 C7.78315909,8.77225581 7.57134091,8.96318605 7.34156818,9.13272093 C7.11179545,9.30225581 6.86111364,9.44690698 6.58952273,9.56667442 C6.31793182,9.68644186 6.01952273,9.77923256 5.69497727,9.8445814 C5.37020455,9.91016279 5.01338636,9.94295349 4.62475,9.94295349 C3.97543182,9.94295349 3.37997727,9.82667442 2.83884091,9.59365116 C2.29770455,9.36109302 1.83384091,9.03086047 1.44747727,8.60365116 C1.06088636,8.17667442 0.759295455,7.66016279 0.542931818,7.0545814 C0.326340909,6.44876744 0.218159091,5.77527907 0.218159091,5.03388372 C0.218159091,4.3062093 0.32975,3.64155814 0.552704545,3.04039535 C0.775886364,2.43923256 1.08952273,1.92272093 1.49384091,1.49109302 C1.89793182,1.05946512 2.38179545,0.724813953 2.94497727,0.487372093 C3.50815909,0.250162791 4.12997727,0.13155814 4.81020455,0.13155814 C5.15043182,0.13155814 5.46179545,0.157604651 5.74452273,0.209465116 C6.02725,0.26155814 6.29134091,0.335976744 6.53656818,0.433186047 C6.78156818,0.530627907 7.01247727,0.65155814 7.22884091,0.795976744 C7.44520455,0.940860465 7.65747727,1.10806977 7.86497727,1.29783721 L7.65952273,1.60295349 C7.62429545,1.65713953 7.56906818,1.68434884 7.49406818,1.68434884 C7.45429545,1.68434884 7.40338636,1.66062791 7.34156818,1.61318605 C7.27975,1.56551163 7.20134091,1.50690698 7.10634091,1.43667442 C7.01134091,1.36690698 6.89656818,1.28993023 6.76179545,1.2062093 C6.62702273,1.12272093 6.46679545,1.04574419 6.28134091,0.975744186 C6.09588636,0.905744186 5.88156818,0.846906977 5.63861364,0.799465116 C5.39565909,0.751790698 5.11952273,0.728302326 4.81020455,0.728302326 C4.24043182,0.728302326 3.71702273,0.829 3.23975,1.02993023 C2.76270455,1.23109302 2.35202273,1.51830233 2.00725,1.89109302 C1.66270455,2.26411628 1.39429545,2.71597674 1.20225,3.24713953 C1.00997727,3.77853488 0.914068182,4.37388372 0.914068182,5.03388372 C0.914068182,5.71202326 1.00884091,6.31760465 1.19884091,6.85086047 C1.38884091,7.38434884 1.65179545,7.83527907 1.98747727,8.20365116 C2.32315909,8.57225581 2.71975,8.8545814 3.17679545,9.05132558 C3.63406818,9.24783721 4.12997727,9.3462093 4.66452273,9.3462093 C5.00020455,9.3462093 5.29952273,9.32365116 5.56247727,9.27853488 C5.82520455,9.23318605 6.06702273,9.16551163 6.28793182,9.07504651 C6.50884091,8.9845814 6.71429545,8.87388372 6.90429545,8.74272093 C7.09406818,8.6117907 7.28202273,8.45783721 7.46747727,8.28155814 C7.48952273,8.26365116 7.51043182,8.249 7.53043182,8.23760465 C7.55020455,8.22644186 7.57338636,8.22062791 7.59997727,8.22062791" id="Fill-13"></path>
                    <path d="M14.3389318,6.3492093 L18.5400682,6.3492093 L16.6250682,1.50106977 C16.5941591,1.42432558 16.56325,1.33734884 16.5323409,1.24013953 C16.5014318,1.14293023 16.4702955,1.04013953 16.4396136,0.931534884 C16.4084773,1.04013953 16.3775682,1.14293023 16.3466591,1.24013953 C16.31575,1.33734884 16.2848409,1.42665116 16.2539318,1.50804651 L14.3389318,6.3492093 Z M20.6141591,9.83432558 L20.0905227,9.83432558 C20.0287045,9.83432558 19.9780227,9.8175814 19.93825,9.78362791 C19.8984773,9.74967442 19.8675682,9.70548837 19.8455227,9.65130233 L18.7389318,6.86455814 L14.1334773,6.86455814 L13.0334773,9.65130233 C13.0159773,9.70106977 12.9848409,9.74409302 12.94075,9.78013953 C12.8966591,9.8164186 12.8437045,9.83432558 12.7818864,9.83432558 L12.2648409,9.83432558 L16.1016591,0.240139535 L16.7775682,0.240139535 L20.6141591,9.83432558 Z" id="Fill-15"></path>
                    <path d="M30.2221818,7.44765116 C30.2487727,7.37555814 30.2762727,7.30416279 30.3049091,7.23393023 C30.3337727,7.16416279 30.3658182,7.0974186 30.4010455,7.03416279 L34.0853636,0.368813953 C34.1205909,0.310209302 34.1560455,0.273930233 34.1915,0.26044186 C34.2267273,0.24672093 34.2753636,0.239976744 34.3371818,0.239976744 L34.8076364,0.239976744 L34.8076364,9.83439535 L34.2112727,9.83439535 L34.2112727,1.65718605 C34.2112727,1.53974419 34.2178636,1.41532558 34.2310455,1.28439535 L30.5401364,7.9902093 C30.4783182,8.10765116 30.3901364,8.16648837 30.2751364,8.16648837 L30.1692273,8.16648837 C30.0587727,8.16648837 29.9703636,8.10765116 29.9042273,7.9902093 L26.1137727,1.2774186 C26.1271818,1.4085814 26.1337727,1.53509302 26.1337727,1.65718605 L26.1337727,9.83439535 L25.544,9.83439535 L25.544,0.239976744 L26.0078636,0.239976744 C26.0696818,0.239976744 26.1194545,0.24672093 26.1569545,0.26044186 C26.1944545,0.273930233 26.2308182,0.310209302 26.2662727,0.368813953 L30.0499091,7.04090698 C30.1160455,7.1674186 30.1735455,7.303 30.2221818,7.44765116" id="Fill-17"></path>
                </g>
            </g>
        </g>
    </g>
</svg>