<?xml version="1.0" encoding="UTF-8"?>
<svg width="175px" height="264px" viewBox="0 0 175 264" version="1.1" xmlns="http://www.w3.org/2000/svg" xmlns:xlink="http://www.w3.org/1999/xlink">
    <!-- Generator: Sketch 60.1 (88133) - https://sketch.com -->
    <title>Group 7</title>
    <desc>Created with Sketch.</desc>
    <g id="RA-CAM" stroke="none" stroke-width="1" fill="none" fill-rule="evenodd">
        <g id="Main" transform="translate(-457.000000, -531.000000)">
            <g id="Group-7" transform="translate(397.000000, 511.000000)">
                <g id="Group" transform="translate(136.330137, 153.836485) scale(-1, 1) rotate(-17.000000) translate(-136.330137, -153.836485) translate(33.330137, 24.836485)">
                    <path d="M186.219325,60.0144655 C185.320788,60.4012203 183.87692,60.3649127 182.037059,59.9860509 C181.26185,59.8210881 180.428753,59.6008747 179.530216,59.3340928 C167.93481,55.8240956 140.113721,63.0793 124.86376,60.5480293 C124.105331,65.3351065 123.743735,70.0543044 127.023269,74.1381194 C137.012048,86.5687344 157.373014,98.8722729 147.941312,107.102257 C146.401802,108.456688 144.264945,109.459883 141.660782,110.223921 C135.197356,112.166377 125.888143,112.725198 115.825535,114.0007 L115.790298,114.006225 C116.347374,111.84908 116.700581,109.197837 116.166996,106.649202 C106.141302,106.495289 109.112935,113.677878 96.8228611,115.596655 L97.9680553,117.124732 L98.1266207,117.338631 C97.5150115,117.505961 96.9134699,117.673292 96.3102503,117.857987 C95.7531742,118.021371 95.19442,118.192648 94.634827,118.380501 C94.0676831,118.559671 93.4980224,118.755416 92.9375904,118.951161 C92.2764819,119.181636 91.6237631,119.420792 90.9777561,119.676524 C90.7931827,119.753086 90.6077703,119.830437 90.4416542,119.899895 C90.164794,120.011185 89.9156199,120.107479 89.6840641,120.206141 C89.463415,120.288228 89.2410879,120.38689 89.0179218,120.485552 C88.8702631,120.548696 88.7226043,120.611839 88.5741066,120.674983 C88.4818199,120.717605 88.3886942,120.760227 88.2955685,120.802849 L88.2578149,120.82416 L88.1009275,120.895196 C87.8240673,121.005698 87.5446903,121.133563 87.2745419,121.270112 C86.8391164,121.469014 86.4104026,121.67581 85.9816889,121.892076 C85.4497818,122.15728 84.9271034,122.431955 84.4027471,122.715312 C80.2297096,124.974275 76.8671172,126.445522 74.1807348,127.327955 C73.951696,127.401359 73.7234961,127.474764 73.5036859,127.540275 C73.2746471,127.61289 73.0649045,127.671298 72.8467723,127.728128 C71.5698597,128.082521 70.465775,128.292474 69.5068321,128.388768 C62.5098211,129.097555 63.2455979,123.697195 63.2455979,123.697195 C63.2455979,123.697195 61.276535,109.587749 62.9611871,92.4134677 C63.8001572,83.8140931 63.7884116,80.4201224 63.1474384,75.0071338 C63.0870326,75.1863038 62.9695768,75.4025708 62.794232,75.6559347 C59.7202454,80.3088317 39.3483723,97.6062429 30.3470616,104.179496 C29.2387821,105.000363 28.2185944,105.653111 27.2982441,106.087223 C26.3116152,106.575008 25.4449591,106.812586 24.7477749,106.76286 C17.9193969,106.237979 18.0542754,101.943422 18.0542754,101.943422 L18.0821571,101.837656 C18.3875422,100.949699 18.7113847,100.046745 19.0889213,99.1485263 C28.6103934,75.5975268 65.519207,44.3114313 65.519207,44.3114313 L65.5275967,44.3043276 C66.3271353,43.2648254 67.2483245,42.2521593 68.2626394,41.2813258 C69.764396,39.8566474 71.6772479,38.8763424 73.8795445,38.1288795 C77.4569132,36.9267825 81.8094903,36.3750649 86.4674526,35.6733812 C90.2361065,35.0987741 94.0450309,34.0829507 98.4630477,33.9558742 C101.020229,33.883259 173.920862,35.7909862 188.094423,50.4040033 C188.717778,51.0504364 189.298345,51.6929229 189.886463,52.3369881 C190.150739,52.644024 190.424243,52.95106 190.67929,53.2651996 C190.67929,53.2651996 192.405052,57.2369346 186.219325,60.0144655" id="Fill-30" fill="#0058FF"></path>
                    <path d="M78.7448904,228.206723 C78.7448904,228.206723 71.7514539,239.158258 75.538358,252.77973 C79.3244341,266.400427 90.7919479,246.643834 89.1890957,239.467221 C87.5878992,232.290609 87.9372813,229.093345 87.9372813,229.093345 L78.7448904,228.206723" id="Fill-31" fill="#06356D"></path>
                    <path d="M29.3798648,104.39005 C28.2400083,105.214767 27.1930387,105.871538 26.2523024,106.323408 C25.238433,106.821719 24.355342,107.070192 23.6581701,107.028907 C16.7256646,106.614695 16.9144817,102.35378 16.9144817,102.35378 L16.9570895,102.242101 C17.2764309,101.363068 17.6232228,100.471897 18.0126733,99.5769665 L18.1113503,99.587235 C22.9057616,100.081608 26.9570413,101.921905 29.3798648,104.39005" id="Fill-33" fill="#FF3B88" transform="translate(23.146921, 103.305150) rotate(21.000000) translate(-23.146921, -103.305150) "></path>
                    <path d="M184.787854,59.1165913 C183.796292,59.5081248 182.19625,59.4668698 180.179734,59.0955746 C179.318958,58.9336681 178.392325,58.7188307 177.393343,58.4502839 C177.487954,55.3732823 179.948771,52.222333 183.979021,50.522315 C184.924205,50.1253327 185.89165,49.829542 186.860951,49.6427269 C187.549201,50.27712 188.202203,50.9083997 188.834799,51.5443496 C189.134401,51.8533731 189.436786,52.1546125 189.717837,52.4613008 C189.717837,52.4613008 191.631394,56.3828626 184.787854,59.1165913" id="Fill-36" fill="#FF3B88"></path>
                    <path d="M96.8188269,33.791411 L95.7172239,41.8054329 L91.6431069,44.2845577 L91.1030246,44.6135229 C89.2865341,45.7200422 87.0635388,46.067411 84.9741212,45.5682121 L84.2971631,45.4117811 L79.5724737,44.2952931 L72.6594203,37.8501822 C76.1720166,36.6807838 80.4497982,36.1486116 85.0235944,35.4615421 C88.7291362,34.9055986 92.4684846,33.9148688 96.8188269,33.791411" id="Fill-38" fill="#D3C090"></path>
                    <path d="M142.59426,205.424044 C142.274319,205.683078 141.939144,205.908049 141.590426,206.089451 C138.903945,207.497898 135.471784,206.634452 133.419258,204.430685 C132.198746,203.119674 131.469994,201.327034 131.673977,199.259518 C131.707833,198.892752 131.767927,198.535491 131.86611,198.156843 C132.896182,194.063794 136.952988,174.73608 139.415172,159.875311 L139.416019,159.866597 C139.757965,157.844234 140.066056,155.910591 140.333519,154.108445 C140.741485,151.284424 141.057193,148.788353 141.218009,146.792131 C141.443152,144.196249 141.416914,142.478864 141.044497,142.053478 C138.84639,139.593846 127.061084,143.865921 110.271001,138.813577 C109.73946,138.651978 109.218076,138.482457 108.699232,138.279666 C110.672195,144.570937 112.598607,150.968355 114.422604,156.557779 C115.112422,158.657773 115.341797,161.181569 115.202141,164.003214 L115.201294,164.01985 C114.095893,186.567661 89.7000383,228.333868 88.0766386,230.822017 C86.2441775,233.630196 82.8179409,235.658897 77.8309383,231.009757 C75.9189154,229.229792 77.5279263,220.115293 79.5939944,208.617208 C82.9432084,190.038078 87.4773857,165.243724 80.2998939,155.192901 C72.7990764,144.687383 69.388075,133.762816 67.9119493,127.34401 C68.8793872,127.247367 69.9932527,127.036655 71.281477,126.680979 C71.5015416,126.623944 71.7216062,126.566117 71.94421,126.492446 C72.1659675,126.426698 72.3961889,126.353028 72.6272567,126.279358 C75.337437,125.393732 78.7298176,123.917161 82.9398228,121.650022 C83.4688243,121.36564 83.9961329,121.089971 84.532752,120.823808 C84.9652636,120.606758 85.3977752,120.399214 85.837058,120.199592 C86.1180636,120.072056 86.3906051,119.942935 86.6707643,119.82332 L86.8290416,119.752026 L86.8671297,119.730638 C86.9610803,119.687862 87.055031,119.645086 87.1481352,119.602309 C87.2979484,119.538937 87.4469153,119.475565 87.5958821,119.412193 C87.7448489,119.357535 87.8946621,119.294162 88.0444753,119.23079 L88.2679255,119.131771 C88.5015326,119.032752 88.7529141,118.93611 89.0322268,118.824416 C89.1998145,118.754707 89.3868694,118.677076 89.5730779,118.600237 C90.2248077,118.34358 90.8833088,118.103558 91.5502738,117.87225 C92.1156706,117.675796 92.6903777,117.479342 93.2625457,117.299524 C93.8270961,117.110992 94.3908,116.939095 94.9528112,116.775119 C95.5613745,116.589756 96.1775554,116.422612 96.7852723,116.253883 L96.6253022,116.03921 L95.469963,114.505604 C107.868911,112.579883 104.870954,105.371301 114.985462,105.525771 C115.523774,108.083629 115.167438,110.744467 114.605427,112.909418 L114.640976,112.903873 C124.792726,111.623756 134.184406,111.062912 140.70509,109.113426 C143.941732,110.347599 148.121267,112.038051 152.419298,113.998627 L152.454,114.009717 C160.715734,117.761349 169.387126,122.49604 172.47734,126.912287 C172.785431,127.349555 173.040198,127.790783 173.232331,128.218545 C182.466581,149.006195 147.072574,201.742122 142.59426,205.424044" id="Fill-39" fill="#423FE0"></path>
                    <path d="M139.574484,159.185176 C139.790265,156.52664 141.448014,142.25757 141.09242,141.821917 C138.993608,139.30292 126.571201,144.587447 110.53957,139.413159 C110.03204,139.24766 109.534209,139.074048 109.038802,138.866362 C109.038802,138.866362 104.705404,120.806653 109.623915,125.628849 C127.104592,142.767766 131.165637,133.947625 137.202653,135.313805 C146.239589,137.360643 144.000292,143.561767 140.79833,159.016485 L139.574484,159.185176 Z" id="Fill-41" fill="#3B38CD"></path>
                    <path d="M90.0698887,177.181142 C82.2465232,192.761054 79.4497687,210.058348 79.4497687,210.058348 C79.4497687,210.058348 79.4163208,210.013449 79.351998,209.930868 C82.745668,191.126253 87.3400299,166.030985 80.0672674,155.858181 C72.4668875,145.225164 69.01061,134.168012 67.5148909,127.671304 C68.8159264,127.540616 70.4008397,127.211892 72.2927872,126.593731 C75.0389411,125.697357 78.4763506,124.202866 82.7422374,121.908212 C83.9772349,121.236332 85.2431072,120.617369 86.5227017,120.05934 C83.875176,121.363813 73.2962226,127.518969 79.3031127,140.037739 C86.1384803,154.274694 97.8846779,161.599626 90.0698887,177.181142" id="Fill-42" fill="#3B38CD"></path>
                    <path d="M77.799264,233.053354 C94.9336263,231.460086 115.934179,141.993846 114.795434,164.783181 C113.656689,187.572517 90.0263854,230.348802 88.3540172,232.863603 C86.4662815,235.701862 82.9366953,237.752294 77.799264,233.053354 Z" id="Fill-43" fill="#3B38CD"></path>
                    <polyline id="Fill-32" fill="#004BD9" points="82.1030614 43.448336 79.4662795 48.5968426 71.8894121 40.3613515 73.7070191 36.5969748 82.1030614 43.448336"></polyline>
                    <polyline id="Fill-34" fill="#004BD9" points="94.5304715 41.0585054 97.7642661 44.2066921 99.2444635 33.9829199 95.812094 32.2068243 94.5304715 41.0585054"></polyline>
                    <path d="M142.953853,205.497006 C140.210461,207.770449 136.179851,206.997336 133.887279,204.5047 L133.896479,204.505491 C144.937793,205.595921 173.191381,162.608626 170.790077,142.505316 C168.388773,122.402007 172.483786,127.06838 172.483786,127.06838 C172.788236,127.505185 173.039992,127.945946 173.229855,128.373255 C182.354977,149.138894 147.379245,201.818983 142.953853,205.497006" id="Fill-44" fill="#3B38CD"></path>
                    <path d="M150.760338,230.858166 C146.447389,232.400221 129.299521,210.344958 126.977938,205.805124 C124.644621,201.253409 133.420541,197.185616 133.420541,197.185616 C133.155696,199.906982 134.103606,202.264021 135.69519,203.989031 C138.367944,206.887809 140.086921,207.843772 143.587735,205.990455 C143.587735,205.990455 155.059877,229.325616 150.760338,230.858166" id="Fill-45" fill="#06356D"></path>
                    <path d="M115.227178,105.889019 C105.146393,105.730971 108.134355,113.106555 95.776747,115.07689 C93.3455486,112.256337 92.4682251,109.738912 91.3412018,105.944944 C89.7620195,100.650733 88.9159084,95.15957 88.3532404,89.684617 C87.8335949,84.6262629 87.4683246,79.5371097 87.6117333,74.4487669 C87.7205551,70.5267391 88.3000948,66.6452365 88.753941,62.7531974 C89.1833234,59.0394691 88.6738009,55.6248166 87.682594,52.0051067 C87.1207696,49.9448061 86.4307209,47.9169257 85.6470348,45.9320019 C85.5306207,45.6467046 84.9578297,43.6115296 84.6178668,43.5223742 L85.3079155,43.6844749 C87.4480787,44.2185969 89.7240583,43.8522492 91.5824657,42.6770187 L92.1324801,42.3276916 C92.1324801,42.3276916 96.3250742,45.8225839 98.2585602,60.419757 C101.037314,81.7027758 107.197137,85.2616979 112.832253,97.3001105 C113.781281,99.3239385 115.513995,103.238672 115.227178,105.889019" id="Fill-46" fill="#FF3B88"></path>
                    <path d="M71.3547645,127.833791 C70.2450175,128.114874 69.2705024,128.282593 68.421922,128.370334 C61.3729577,129.067606 62.1141977,123.754981 62.1141977,123.754981 C62.1141977,123.754981 60.1305144,109.874759 61.8276751,92.9794932 C62.6728746,84.5198252 62.6610418,81.1809934 62.0153094,75.8559449 C62.0153094,75.8559449 66.2455332,71.6831816 67.3730294,84.1346948 C68.4996804,96.586208 57.3286778,126.992872 71.3547645,127.833791" id="Fill-48" fill="#004BD9"></path>
                    <path d="M177.809956,58.1231085 C166.57097,54.8095652 139.605047,61.6586973 124.82384,59.2691013 C124.82384,59.2691013 119.752025,54.5972063 123.26985,52.5727185 C126.789301,50.5400344 136.752405,60.1550475 153.769048,55.9406555 C170.776746,51.7262635 177.809956,58.1231085 177.809956,58.1231085" id="Fill-49" fill="#004BD9"></path>
                    <path d="M151.690389,113.976189 C150.955016,113.68622 139.742856,109.520723 125.860305,114.779991 C111.505191,120.217298 113.920233,117.588039 109.750907,114.671816 C107.597019,113.16788 102.075502,114.336773 97.0398129,115.911323 L95.9081508,114.456968 C108.053,112.63076 105.116482,105.794688 115.023707,105.941175 C115.550987,108.366854 115.201954,110.890191 114.651461,112.943266 L114.686281,112.938008 C124.629985,111.724041 133.829196,111.19218 140.216247,109.343436 C143.386559,110.513831 147.48044,112.116928 151.690389,113.976189" id="Fill-52" fill="#3B38CD"></path>
                    <g id="Group-2" transform="translate(15.154076, 108.683543) rotate(-118.000000) translate(-15.154076, -108.683543) translate(2.654076, 99.183543)">
                        <path d="M23.4487141,11.711246 C20.6839831,12.5789864 18.9573442,16.9875628 18.4439752,17.4596201 L18.4237,17.4921197 C17.5891713,18.8847294 14.7133321,18.9659785 10.2706227,18.6946065 L10.1595145,18.6848566 C9.30795461,18.6092949 8.52127551,18.1689248 7.99736346,17.4848073 C5.54000505,14.2746552 -0.472007457,6.04330841 0.860480948,3.48802406 C2.48168869,0.381058301 9.36310324,-0.225872511 11.0913642,1.80698009 C12.1821718,3.0760911 15.0799083,7.44485546 17.0652593,10.9572543 C18.768379,11.8063074 18.247711,10.3974479 20.8040125,8.57178054 C22.3424973,7.48304254 24.0115546,8.52790603 24.4738299,9.72389285 C24.7828245,10.5103842 24.5703401,11.3618748 23.4487141,11.711246" id="Fill-53" fill="#FFC493"></path>
                        <path d="M23.4487141,11.711246 C20.6839831,12.5789864 18.9573442,16.9875628 18.4439752,17.4596201 L18.4237,17.4921197 C17.5891713,18.8847294 14.7133321,18.9659785 10.2706227,18.6946065 C17.7505622,19.0967896 18.5518395,14.9547102 19.7269921,13.2525415 C21.4220017,10.799631 24.4738299,9.72389285 24.4738299,9.72389285 C24.7828245,10.5103842 24.5703401,11.3618748 23.4487141,11.711246" id="Fill-54" fill="#DB9F6D"></path>
                    </g>
                    <g id="Group-2-Copy" transform="translate(190.104729, 52.050107) scale(-1, 1) rotate(-14.000000) translate(-190.104729, -52.050107) translate(177.104729, 42.550107)">
                        <path d="M20.3035798,15.2003057 C19.7117397,16.136406 19.3051207,16.9224281 19.0949391,17.1053192 C18.7406138,17.4136379 18.7336169,17.4242512 19.0739482,17.1371593 C18.7544503,17.6416915 18.1459515,17.9705347 17.273291,18.171188 C15.7861134,18.5131389 13.531742,18.4827936 10.6331153,18.3152445 L10.5180855,18.3056925 C9.63647065,18.2316641 8.82202641,17.8002302 8.27962334,17.1299953 C5.73553464,13.9849855 -0.488666543,5.92067402 0.890850864,3.41724302 C2.5692777,0.373325641 9.69356571,-0.221288973 11.4828241,1.77031178 C12.6121308,3.01366925 15.6121404,7.29378006 17.6675626,10.7349032 C19.4307924,11.5667268 18.8917478,10.1864568 21.5382718,8.39783691 C23.131056,7.33119222 24.8590212,8.35485272 25.3376122,9.52656987 C25.6575124,10.2971013 25.4375285,11.1313129 24.2763158,11.4735944 C22.5459321,11.9875339 21.2083301,13.7692822 20.3035798,15.2003057 Z" id="Fill-53" fill="#FFC493"></path>
                        <path d="M24.2763158,11.4735944 C21.4140061,12.3237262 19.6264269,16.6428411 19.0949391,17.1053192 L19.0739482,17.1371593 C18.2099656,18.5015093 15.2326262,18.5811097 10.6331153,18.3152445 C18.3770526,18.7092662 19.2066103,14.6512404 20.4232388,12.9836131 C22.1780723,10.5804785 25.3376122,9.52656987 25.3376122,9.52656987 C25.6575124,10.2971013 25.4375285,11.1313129 24.2763158,11.4735944" id="Fill-54" fill="#DB9F6D"></path>
                    </g>
                    <path d="M94.9564135,22.9167701 C94.5531164,26.9210975 95.1795492,32.5293042 93.796108,35.8750577 C92.2399433,39.6397535 88.6044847,41.8104856 85.2979446,42.4517068 C81.6062889,43.1681228 77.3865454,40.5776221 74.9419702,38.1466004 C73.2891133,36.5038842 71.6073315,31.762483 70.3594246,25.2172339 C68.4553335,15.2212892 72.704002,6.93829755 80.5277998,5.91283939 C88.3515976,4.88820754 95.977879,12.7927464 94.9564135,22.9167701" id="Fill-57" fill="#FFC493"></path>
                    <path d="M95.3822293,11.5315965 C95.267573,12.2690996 94.9438376,12.9870298 94.4953292,13.608662 C95.0804135,16.3566831 95.3097261,19.1626396 95.3721126,21.9685962 C95.3931891,22.6771315 94.9438376,23.6964829 94.3284031,24.113775 C93.9633578,23.0169153 93.5983124,21.570094 93.1287274,20.511597 C92.4298299,18.9199369 91.7511659,17.6477049 91.0834616,16.045867 C91.0522684,15.9683587 91.0210751,15.8806726 90.9898819,15.8031643 C89.5819701,16.0654398 88.1108288,15.8610998 86.6708808,15.9002454 C82.6536955,16.0067214 79.0234751,18.0164565 75.6225674,20.0066187 C74.5367049,20.6376458 73.4424118,21.2788507 72.2317763,21.6288124 C71.4392991,21.8613372 70.6670553,21.6867479 69.9260047,21.3759318 C69.8948114,22.6473809 69.8113484,23.802959 69.7902719,25.1433043 C69.7691954,26.2980995 70.3854729,28.1042774 70.4680929,29.2496777 C69.7380021,29.0656934 68.5383264,27.9296881 68.2778206,27.2696933 C66.9938388,24.0260889 65.9298959,20.6861864 65.4813875,17.2593806 C65.3566145,16.3371103 65.294228,14.3853107 65.5235406,13.1326515 C65.2621917,12.8711589 65.0328791,12.5893106 64.9182228,12.2401318 C64.78249,11.8612024 64.7926067,11.4533053 64.8246431,11.055586 C65.0952656,8.18151606 67.0250321,5.58929446 69.5297661,3.8809805 C72.033657,2.17188363 75.0484429,1.24021836 78.0843053,0.627981187 C80.3378071,0.162148554 82.6646553,-0.139272562 84.9704269,0.0650674669 C87.2761985,0.268624584 89.5710103,1.01630553 91.3035005,2.43415915 C92.9095316,3.74475382 93.953241,5.55014886 94.6942916,7.40486737 C95.2161463,8.72563989 95.6022682,10.1427106 95.3822293,11.5315965" id="Fill-58" fill="#06356D"></path>
                </g>
                <g id="Group-5" transform="translate(158.101449, 20.711656)">
                    <ellipse id="Oval" fill="#29C6EB" opacity="0.281970796" cx="32.4021739" cy="30.9754601" rx="32.4021739" ry="30.9754601"></ellipse>
                    <path d="M24.9707068,4.40056064 C23.8318776,7.79836154 19.244486,5.19307236 12.4035215,15.6599846 C5.56255706,26.1268969 5.56255706,30.6358448 3.39330408,34.0935025 C1.09567724,37.7557803 3.8255912,23.339242 10.4859829,13.6152028 C16.2521781,5.1966725 26.0404951,1.20874909 24.9707068,4.40056064 Z" id="Path-3" fill="#AEEEFE"></path>
                </g>
            </g>
        </g>
    </g>
</svg>