<?xml version="1.0" encoding="UTF-8"?>
<svg width="194px" height="150px" viewBox="0 0 194 150" version="1.1" xmlns="http://www.w3.org/2000/svg" xmlns:xlink="http://www.w3.org/1999/xlink">
    <!-- Generator: Sketch 60.1 (88133) - https://sketch.com -->
    <title>Group 56</title>
    <desc>Created with Sketch.</desc>
    <g id="RA-CAM" stroke="none" stroke-width="1" fill="none" fill-rule="evenodd">
        <g id="Main" transform="translate(-795.000000, -4198.000000)">
            <g id="Group-56" transform="translate(796.000000, 4198.000000)">
                <path d="M64.4427359,129.477136 C91.1597176,116.35592 161.534944,147.074551 189.35183,126.274303 C205.349839,114.311693 143.919185,123.914768 171.929181,76.6520139 C184.229595,55.8968726 105.79894,58.5157795 115.702189,50.6097945 C126.948853,41.6313318 163.22243,46.6973175 157.600783,41.5828189 C123.640745,10.6864341 44.3999345,-7.6257029 31.2964819,3.22062215 C20.006262,12.5660519 51.6336764,37.7432356 37.9820825,54.3064222 C24.3304886,70.8696087 -28.4609807,70.2934647 19.5966809,82.1393043 C36.0018245,86.1830445 37.4589966,93.1877652 40.4891827,98.8390335 C50.7304618,117.938922 40.6703475,141.152206 64.4427359,129.477136 Z" id="Oval-Copy-24" fill="#ECEEFA"></path>
                <g id="Group-51" transform="translate(19.717481, 4.886253)">
                    <ellipse id="Oval-Copy-21" fill="#EDF1F4" cx="82.1840659" cy="137.137453" rx="82.1840659" ry="7.09331652"></ellipse>
                    <g id="Group-98">
                        <path d="M52.564428,121.550124 C52.564428,132.335218 43.4122677,141.078184 32.1230088,141.078184 C20.8331442,141.078184 11.680984,132.335218 11.680984,121.550124 C11.680984,110.76503 20.8331442,102.022642 32.1230088,102.022642 C43.4122677,102.022642 52.564428,110.76503 52.564428,121.550124" id="Fill-26" fill="#A0A5C2"></path>
                        <path d="M44.220868,121.948642 C44.220868,128.111708 38.9912255,133.107665 32.539884,133.107665 C26.0891635,133.107665 20.8589,128.111708 20.8589,121.948642 C20.8589,115.78617 26.0891635,110.790212 32.539884,110.790212 C38.9912255,110.790212 44.220868,115.78617 44.220868,121.948642" id="Fill-28" fill="#EDF1F4"></path>
                        <path d="M149.349724,121.550124 C149.349724,132.335218 140.198169,141.078184 128.908305,141.078184 C117.619046,141.078184 108.46628,132.335218 108.46628,121.550124 C108.46628,110.76503 117.619046,102.022642 128.908305,102.022642 C140.198169,102.022642 149.349724,110.76503 149.349724,121.550124" id="Fill-30" fill="#A0A5C2"></path>
                        <path d="M141.006164,121.948642 C141.006164,128.111708 135.776382,133.107665 129.324869,133.107665 C122.873977,133.107665 117.644196,128.111708 117.644196,121.948642 C117.644196,115.78617 122.873977,110.790212 129.324869,110.790212 C135.776382,110.790212 141.006164,115.78617 141.006164,121.948642" id="Fill-32" fill="#EDF1F4"></path>
                        <path d="M135.165672,121.94866 C135.165672,125.030313 132.550901,127.528302 129.32518,127.528302 C126.100043,127.528302 123.484688,125.030313 123.484688,121.94866 C123.484688,118.867565 126.100043,116.369576 129.32518,116.369576 C132.550901,116.369576 135.165672,118.867565 135.165672,121.94866" id="Fill-34" fill="#A0A5C2"></path>
                        <path d="M56.0328831,82.798603 C56.0328831,82.798603 58.7471478,82.9796421 58.368734,84.1900177 C57.9897205,85.3998186 58.40492,86.8515797 58.40492,86.8515797 C58.40492,86.8515797 35.4977854,86.9125008 35.4977854,86.8515797 C35.4977854,86.7912333 32.4236977,82.2261747 35.7694518,80.8020005 C39.1152058,79.3784011 41.4906372,83.487701 41.4906372,83.487701 L56.0328831,82.798603 Z" id="Fill-36" fill="#A0A5C2"></path>
                        <path d="M32.539884,86.8769065 L13.5079471,86.8769065 C13.5079471,86.8769065 12.3265735,86.9731548 11.8292152,85.7377718 C11.3318569,84.5018019 7.35239977,70.4172618 6.79301936,69.4289554 C6.23304826,68.4400621 7.78773596,67.2046791 8.84447468,68.0081182 C9.90180408,68.8109705 16.9274331,81.1043519 17.8601276,81.413051 C18.7928221,81.72175 29.1144835,80.3654696 29.1144835,80.3654696 C29.1144835,80.3654696 32.5457832,79.9922138 32.539884,82.2781125 C32.5339695,84.5640113 32.539884,86.8769065 32.539884,86.8769065" id="Fill-38" fill="#A0A5C2"></path>
                        <path d="M13.2298888,86.8786558 L57.9160483,86.8786558 C57.9160483,86.8786558 60.073632,86.9795342 60.073632,89.2492995 L22.829759,89.2492995 C22.829759,89.2492995 20.639123,89.1833922 20.639123,89.8908864 C20.639123,90.5990532 19.5502318,91.6609671 19.5502318,91.6609671 L11.2326702,91.6609671 C11.2326702,91.6609671 9.17791599,91.5352053 9.17791599,89.4033072 C9.17791599,87.2714092 10.6530299,86.8806733 10.6530299,86.8806733 L13.2298888,86.8786558 Z" id="Fill-40" fill="#000CFE"></path>
                        <path d="M58.7330595,116.541631 C58.7330595,116.541631 57.8827171,120.229341 59.7695099,120.710371 C61.653854,121.191401 61.8264937,121.948939 61.8264937,121.948939 L8.86405973,121.948939 C8.86405973,121.948939 8.62652708,121.576454 8.23227186,120.957742 C7.10827717,119.194725 4.7084628,115.423035 2.90921421,112.55342 C1.62849695,110.51104 0.65142967,108.926267 0.65142967,108.844572 C0.65142967,108.603485 -1.06762103,107.160394 1.07935575,103.79318 C3.22878133,100.425396 11.647722,88.4727595 11.647722,88.4727595 L71.5365589,88.4727595 C71.5365589,88.4727595 75.057307,89.2788569 72.4799553,93.6081312 C69.9019915,97.9385481 58.7330595,116.541631 58.7330595,116.541631" id="Fill-42" fill="#D8D8D8"></path>
                        <path d="M32.1230088,94.8491746 L32.1230088,94.8491746 C20.8331442,94.8491746 11.680984,103.831164 11.680984,114.910515 L11.680984,123.543043 L52.564428,123.543043 L52.564428,114.910515 C52.564428,103.831164 43.4128733,94.8491746 32.1230088,94.8491746" id="Fill-44" fill="#0058FF"></path>
                        <path d="M32.957062,104.413797 L32.957062,104.413797 C24.8930042,104.413797 18.355832,110.555114 18.355832,118.130857 L18.355832,122.745991 L47.558292,122.745991 L47.558292,118.130857 C47.558292,110.555114 41.0211198,104.413797 32.957062,104.413797" id="Fill-46" fill="#EDF1F4"></path>
                        <path d="M130.869588,123.195257 L130.869588,123.195257 C131.875887,122.549879 132.132067,121.234216 131.436639,120.282754 L126.827696,113.97842 L123.484688,116.210675 L127.878323,122.612978 C128.535181,123.570528 129.87653,123.831225 130.869588,123.195257" id="Fill-48" fill="#D8D8D8"></path>
                        <path d="M149.023597,103.419571 L130.026073,119.557783 L107.631924,119.557783 L120.109116,100.561475 L134.361817,96.484393 C134.578817,96.4211735 134.811621,96.4309438 135.019503,96.5131291 L137.79613,97.5976308 L139.643364,98.3206318 L141.438325,99.0200693 L143.255167,99.7315759 L148.744597,101.875291 C149.410185,102.137365 149.561538,102.964391 149.023597,103.419571" id="Fill-50" fill="#0058FF"></path>
                        <path d="M109.300636,49.5689987 L112.020667,47.8231133 L115.853732,53.3515663 C115.853732,53.3515663 116.533887,54.631956 114.679026,54.9813542 C112.824753,55.3301996 109.300636,49.5689987 109.300636,49.5689987" id="Fill-52" fill="#0058FF"></path>
                        <path d="M97.3481319,55.837978 C97.3481319,55.837978 95.017172,53.5059121 96.3767448,52.6279101 C97.7369328,51.7510672 105.767025,46.3827951 105.767025,46.3827951 C105.767025,46.3827951 107.579994,45.5285542 109.198562,47.8467112 C110.817746,50.1648683 115.801411,56.3868017 115.801411,56.3868017 C115.801411,56.3868017 117.61684,61.9926849 109.522153,64.1004692 L107.191193,64.5612029 L101.428081,55.39521 L97.3481319,55.837978 Z" id="Fill-54" fill="#D8D8D8"></path>
                        <path d="M118.001382,85.284552 C115.735394,79.9038093 113.048906,73.5197794 110.969348,68.565217 C114.483307,68.3339116 117.931985,70.2549032 119.428138,73.622132 L120.262666,75.5038017 C121.799987,78.9687571 120.791966,82.9177191 118.001382,85.284552" id="Fill-56" fill="#EDF1F4"></path>
                        <path d="M121.700245,100.392604 C120.420192,103.340931 106.145622,126.26506 106.145622,126.26506 C106.145622,126.26506 105.31374,127.528302 102.816876,127.528302 L9.17110373,127.528302 C9.17110373,127.528302 6.67484799,127.287657 6.67484799,124.39992 C6.67484799,121.511611 8.60313714,122.269557 8.60313714,122.269557 L89.9512771,122.269557 L90.7831597,120.849695 C90.7831597,120.849695 90.7862002,120.847409 90.7886326,120.845122 C91.1060614,120.611337 106.337782,109.263879 106.401633,100.332586 C106.465483,91.3075496 99.6170469,73.6181588 97.0563324,68.8046919 C94.8647354,64.6868656 93.9404215,63.2550007 93.679546,62.6268092 C93.6333303,62.5210627 93.6077901,62.4364655 93.5998848,62.36673 C93.5360341,61.8854404 96.9286311,59.7796559 96.9286311,59.5990294 C96.9286311,59.4184029 97.7428788,57.3126183 97.7428788,57.3126183 L102.241004,56.590684 L103.841526,57.3126183 C103.841526,57.3126183 106.081163,58.9371134 107.105814,61.4041509 C107.39527,62.1020779 108.76289,65.225887 110.570167,69.3488577 C112.720413,74.2463502 115.498828,80.5568448 117.841234,85.8756085 C120.496812,91.9020165 122.596586,96.6577515 122.596586,96.6577515 C122.596586,96.6577515 122.97969,97.4448485 121.700245,100.392604" id="Fill-58" fill="#0058FF"></path>
                        <path d="M107.346155,55.8376814 L104.222282,61.0356494 C103.563827,62.131236 102.001588,62.5018259 100.81855,61.8431793 L100.421781,61.623091 C99.307194,61.002744 98.9558566,59.7010943 99.6324839,58.6972111 L103.034398,53.6481264 C103.746159,52.5919183 105.307187,52.284442 106.452668,52.9743757 L106.571396,53.0461202 C107.594515,53.6621517 107.929496,54.8677825 107.346155,55.8376814" id="Fill-60" fill="#CBCBCB"></path>
                        <path d="M107.631479,99.5732787 C107.567961,108.621705 92.2700484,120.117983 91.9506293,120.354835 C91.2000251,119.037963 93.1568485,115.687874 93.1568485,115.687874 C93.1568485,115.687874 99.1018295,109.245974 103.730657,102.499467 C108.359485,95.7523817 93.4445089,64.8695967 93.1745601,63.6697031 C93.005384,62.928456 94.0412056,61.9822078 94.8541058,61.3729953 C95.1161149,62.0094254 96.0444456,63.4600691 98.2455665,67.6319003 C100.817409,72.5084952 107.695607,90.4298803 107.631479,99.5732787" id="Fill-62" fill="#EDF1F4"></path>
                        <path d="M123.484688,99.7424673 L121.255154,98.8904693 C121.255154,98.8904693 120.140082,98.6066626 119.711772,99.3164683 C119.282851,100.026274 106.805649,119.049992 106.805649,119.049992 C106.805649,119.049992 106.720109,119.556913 107.105649,119.556913 L111.608097,119.556913 C111.608097,119.556913 112.079788,119.617605 112.594249,118.725146 C113.10871,117.833264 123.484688,99.7424673 123.484688,99.7424673" id="Fill-68" fill="#EDF1F4"></path>
                        <path d="M9.17791599,121.246431 C8.53542562,121.728877 7.28765474,122.652102 6.41508335,123.201432 C5.19584003,123.970056 4.7183134,123.201432 4.7183134,123.201432 C4.7183134,123.201432 1.54059074,119.277725 0.540265471,117.470199 C-0.460059794,115.66048 0.235144559,115.237792 0.235144559,115.237792 L3.78620623,113.181368 C5.60886956,115.935145 8.03991422,119.554583 9.17791599,121.246431" id="Fill-70" fill="#FFFFFF"></path>
                        <path d="M106.797568,69.5084753 C106.797568,69.5084753 111.032368,67.7877059 111.525686,68.9489824 C112.019004,70.1102588 118.350698,85.028546 118.350698,85.028546 C118.350698,85.028546 118.638369,85.830924 118.350698,86.0315185 C118.063027,86.232113 115.636864,87.6757076 115.636864,87.6757076 C115.636864,87.6757076 112.638288,81.4595641 106.797568,69.5084753" id="Fill-72" fill="#004BD9"></path>
                        <path d="M70.2113105,121.616371 C70.2113105,121.616371 66.1649371,122.364649 65.9227774,121.616371 C65.6800411,120.868092 70.6160632,113.301177 71.6677282,113.218232 C72.7199698,113.135288 74.2576839,113.218232 74.2576839,113.218232 C74.2576839,113.218232 73.9336512,117.624959 73.2048658,118.373238 C72.4772335,119.122109 70.2113105,121.616371 70.2113105,121.616371" id="Fill-81" fill="#06356D"></path>
                        <path d="M74.7726022,113.473888 C74.7726022,113.473888 71.8690989,114.431449 71.6417485,113.708203 C71.4137999,112.985538 80.8177283,88.5651375 80.8177283,88.5651375 C80.8177283,88.5651375 81.2383265,84.576559 79.9783269,83.599859 C78.7189256,82.623159 59.0698725,81.5646806 57.7267106,80.9951322 C56.3835486,80.4255839 64.0907255,76.4370054 66.1147419,76.5182038 C68.1387583,76.5994021 79.8945662,77.9832538 79.8945662,77.9832538 C79.8945662,77.9832538 83.0014883,80.0996306 83.4214881,81.4022839 C83.8408897,82.7043573 74.7726022,113.473888 74.7726022,113.473888" id="Fill-82" fill="#322FB5"></path>
                        <path d="M65.4273736,16.5552896 C65.4273736,16.5552896 64.7036069,23.4262451 64.5803376,23.7911616 C64.4828961,24.0791622 65.0898506,25.8337687 65.3516511,26.5647583 C65.4109377,26.7289996 65.2994084,26.9036506 65.1238964,26.9238916 L63.5736385,27.1060607 C63.5736385,27.1060607 61.9670289,31.0432264 61.101796,31.0850236 C60.8476265,31.0970096 59.8514933,30.4105502 58.5565789,29.4071744 C55.4425622,26.9938677 50.6127545,22.7525086 50.350954,22.0342419 C50.2717095,21.8173739 50.1631151,21.413132 50.0468898,20.9088417 C49.6148603,19.0634399 49.0531046,15.8856013 49.2785113,15.6617936 C49.5673136,15.3789977 53.2747839,13.9985608 53.3986401,14.1205852 C53.5219094,14.2420313 54.1816935,15.5814078 54.8391297,15.2575517 C55.4989138,14.9313822 57.0239309,13.4705596 57.518182,13.5532586 C58.0130201,13.6336443 60.1132938,13.9575005 60.6891374,14.3640556 C61.265568,14.7706108 62.5011958,15.7444925 63.2419854,15.6617936 C63.9839491,15.5814078 65.2618406,14.3640556 65.7560917,15.1748527 C66.2503428,15.987963 65.4273736,16.5552896 65.4273736,16.5552896" id="Fill-83" fill="#FFC493"></path>
                        <path d="M59.239276,29.2262769 C58.1976931,28.7703186 57.3767354,29.43574 56.743309,30.3077313 C56.6893139,30.3835314 56.6358994,30.458753 56.5842267,30.5368677 L56.5842267,30.5391822 C56.0465981,31.3504176 55.6605041,32.2617556 55.4015599,32.6100892 C54.8290958,33.3802421 48.392648,27.4527843 48.392648,27.4527843 L50.8224273,20.7233491 C50.9373846,21.2279121 51.0447942,21.6323725 51.1231742,21.8487791 C51.2085213,22.0831232 51.7734377,22.6941536 52.6048461,23.496131 C52.8684351,23.7495697 53.1593119,24.0221032 53.4699289,24.3073664 C55.17629,25.8812326 57.484145,27.8497226 59.239276,29.2262769" id="Fill-84" fill="#FFC493"></path>
                        <path d="M106.796505,57.5367508 C106.858474,57.9544532 104.191996,63.4420815 103.816007,63.7075846 C103.439423,63.9759062 102.811981,63.2329484 102.877526,62.6703749 C102.937112,62.1078014 103.816007,59.3473581 103.504968,58.7847846 C103.188565,58.2199563 100.930251,57.0333659 100.679394,57.0925545 C100.649601,57.0998826 100.594781,57.1376506 100.519107,57.1996577 C100.516724,57.2019125 100.51434,57.204731 100.511361,57.2069858 C99.9446969,57.6771124 98.3263379,59.5018122 98.5468065,60.3851315 C98.79826,61.3958472 100.055527,62.1647352 100.539366,62.4330569 C101.025589,62.7013785 101.653031,63.7977767 100.335582,63.620211 C99.0187286,63.4420815 96.4148152,61.8394798 95.852918,61.3654074 C95.5240027,61.0897576 95.0496971,60.436992 94.7058852,59.9364256 C94.4603904,59.5728385 94.2822279,59.2881695 94.2822279,59.2881695 C94.2822279,59.2881695 94.7535541,54.8693182 96.1633617,54.5130592 C97.5761486,54.1568002 102.719027,52.227252 103.472195,52.6714484 C104.224768,53.1173358 106.733939,57.1235581 106.796505,57.5367508" id="Fill-85" fill="#FFC493"></path>
                        <path d="M55.1711151,55.6415094 C54.4319002,58.9946098 53.6353961,61.7714866 53.283037,62.1033219 C52.5050133,62.8347495 53.2183557,64.6636081 52.1809907,64.8466098 C52.1809907,64.8466098 52.1779107,64.8466098 52.1699025,64.8483471 C51.0469118,65.0898399 36.0969058,74.536433 34.9326422,74.1119386 C33.7652986,73.6851277 32.792615,73.3197035 32.7279337,72.7098909 C32.6632524,72.1000783 32.3392298,65.0898399 32.7279337,60.1528483 C33.1172536,55.2146985 33.9599586,47.1684157 35.0620048,43.3885044 C36.1646671,39.6091722 41.6761305,30.5876526 41.6761305,30.5876526 C41.6761305,30.5876526 43.4921352,27.7227497 44.3995215,27.9051722 C45.3075238,28.0881739 53.5423782,33.0865521 54.0610607,33.391748 C54.5797432,33.6963647 56.4604292,39.7921739 56.7197704,44.3029337 C56.8620693,46.7636113 56.058173,51.618368 55.1711151,55.6415094" id="Fill-86" fill="#0058FF"></path>
                        <path d="M55.067496,56.019504 C54.3342648,59.4189056 53.5442081,62.2341268 53.1947013,62.5705442 C52.4229754,63.3120717 53.1305435,65.166184 52.1015758,65.3517126 C52.1015758,65.3517126 52.0985206,65.3517126 52.0905773,65.353474 C51.8901608,65.37872 48.9499037,65.7767846 48.370651,66.0932401 C47.7840661,66.4143926 41.9597663,69.2278524 41.7178,69.3435142 C41.859558,69.2325493 44.1490724,67.4183609 45.2140907,65.0223406 C46.3127155,62.5505823 47.2567506,53.1197382 46.2277829,51.3249246 C45.1988151,49.5306982 42.8445319,43.819821 43.3357968,41.4466982 C43.3357968,41.4466982 53.9584838,55.4212329 55.067496,56.019504" id="Fill-87" fill="#004BD9"></path>
                        <path d="M45.055224,27.920907 C45.5945777,27.7449039 46.553682,25.3920507 46.9136309,25.5099448 C47.2735797,25.6272802 55.1269578,30.6849927 55.0671562,31.0967839 C55.006785,31.5085751 54.2276552,33.7435342 53.5681286,33.4496371 C52.908602,33.15574 45.055224,27.920907 45.055224,27.920907" id="Fill-88" fill="#FF3B88"></path>
                        <path d="M81.3389818,115.796239 C81.3389818,115.796239 81.0225844,118.090414 86.6575862,119.502129 C86.6575862,119.502129 87.3535402,120.188425 87.6073799,121.757183 C87.6073799,121.757183 69.6888201,122.188633 69.308662,121.757183 C68.9285039,121.326292 68.3588682,120.737798 68.4220274,120.443272 C68.4857881,120.149304 73.2347568,113.48865 73.2347568,113.48865 L76.9695696,112.384316 C76.9695696,112.384316 80.4523472,113.748526 80.7693461,114.007844 C81.0857436,114.266602 81.3389818,115.796239 81.3389818,115.796239" id="Fill-89" fill="#06356D"></path>
                        <path d="M75.7050535,115.86729 C75.8972441,115.927964 81.7870333,117.935398 85.3723603,116.840381 C85.6278035,116.049311 86.9725292,106.986965 87.6774307,104.492985 C88.3811157,101.999005 92.670736,81.0145556 92.6062671,80.0414643 C92.5424063,79.0683729 93.3105603,74.2023384 88.1250644,73.1679954 C82.9395684,72.1342303 52.3380873,67.5721423 51.3138819,67.7547414 C50.2896765,67.9373405 37.2937022,77.0609387 37.5497535,78.03403 C37.8058049,79.0071214 39.5981643,87.8880245 47.6646941,85.4547183 C55.7312238,83.0219899 76.0894346,80.52801 76.6653981,81.0145556 C77.2413616,81.5011013 76.4738158,82.2921714 77.6257427,82.596118 C78.7782779,82.9000646 79.0343292,82.7787171 79.2903806,83.1433374 C79.5464319,83.5085356 72.7899606,114.238344 73.1451482,114.515132 C73.5003359,114.79192 75.7050535,115.86729 75.7050535,115.86729" id="Fill-90" fill="#423FE0"></path>
                        <path d="M34.4219562,73.9341671 C34.4219562,73.9341671 32.9950672,77.8122203 37.5213262,78.111085 C37.5213262,78.111085 50.1852735,66.8590407 51.2898232,66.9363023 C51.2898232,66.9363023 53.2287714,67.440599 52.3237652,64.5405937 C52.3237652,64.5405937 51.4838408,63.0277038 49.6093605,64.225558 C47.7354942,65.4234123 34.4219562,73.9341671 34.4219562,73.9341671" id="Fill-91" fill="#FF3B88"></path>
                        <path d="M53.0877174,39.4831496 C53.0877174,39.4831496 67.6922631,51.926664 69.1654966,52.8234836 C70.6387302,53.7208716 90.5593306,53.2423404 90.8794135,53.5412803 C91.200105,53.8407885 90.3031425,59.3444648 89.0222021,59.7036474 C87.7406532,60.0622615 69.2293915,62.6345084 68.0762409,62.096303 C66.9230904,61.5575292 45.4653615,48.3967865 44.312211,45.0470686 C43.1596689,41.6967824 42.7111876,38.9449442 45.2091735,37.7486164 C47.7071593,36.5517202 53.0877174,39.4831496 53.0877174,39.4831496" id="Fill-92" fill="#0058FF"></path>
                        <path d="M91.0735384,54.2741595 C91.0735384,54.2741595 95.850605,53.9958493 95.9457275,54.5141178 C96.0396536,55.0323863 94.8431435,59.8880437 94.0558398,59.8880437 C93.2691344,59.8880437 87.8944111,61.1386256 87.6216068,60.2674163 C87.3494007,59.3967252 91.0735384,54.2741595 91.0735384,54.2741595" id="Fill-93" fill="#FF3B88"></path>
                        <path d="M66.7484799,16.2894071 C66.7484799,16.2894071 64.6814745,18.0121158 61.8982277,17.1698542 C59.1155818,16.3275925 58.6937685,16.5501591 57.4289294,17.4426073 C56.1640904,18.3350555 55.067496,19.9262972 55.067496,19.9262972 C55.067496,19.9262972 56.5444434,15.2578548 56.6489954,14.6065204 C56.7541483,13.9546404 60.1274531,11.8108009 60.4645432,11.9635426 C60.8022342,12.1168299 65.9463136,13.571695 66.0310368,13.8013532 C66.1151591,14.0310113 66.7484799,16.2894071 66.7484799,16.2894071" id="Fill-94" fill="#DB9F6D"></path>
                        <path d="M67.0155753,15.0574298 C67.0155753,15.0574298 66.327919,16.9600096 64.6737301,15.9385286 C63.0201371,14.9164768 57.9836801,14.3178547 57.1470515,15.6486334 C56.3110187,16.9794121 54.4709123,19.7824931 54.4709123,19.7824931 C54.4709123,19.7824931 56.7287371,15.6982808 54.4709123,15.3781406 C52.2130875,15.0574298 50.6238505,15.9219794 51.2096098,17.3320798 C51.7947731,18.7416096 53.2469555,21.0447926 52.3799365,21.6639585 C51.5135134,22.283695 50.0547762,21.3038721 49.7598109,22.0891 C49.4642498,22.8748986 49.5363524,24.3477716 48.3660257,23.7873836 C47.1951031,23.226425 43.5148903,22.6141071 42.6788576,19.396727 C41.8422289,16.1787763 45.4384212,13.5354801 45.0201069,12.574489 C44.6023884,11.6134978 45.6052702,10.0915481 50.8020214,6.72807919 C55.9981767,3.3640396 47.3691028,1.44205735 47.5365477,0 C47.5365477,0 52.5747923,0.358945022 57.6607081,2.47723425 C61.3522427,4.01459178 61.4124276,4.5652785 65.2594893,5.84698044 C69.1065511,7.12811172 67.0155753,15.0574298 67.0155753,15.0574298" id="Fill-95" fill="#06356D"></path>
                        <path d="M58.40492,28.3039885 C57.3569916,27.8910517 56.5310325,28.4936879 55.8937472,29.2834034 C55.8394231,29.3520515 55.7856832,29.4201756 55.7336957,29.4909198 C55.7734165,28.3128971 51.730072,23.1145047 51.730072,23.1145047 C51.9952668,23.3440305 52.2879156,23.5908494 52.6004249,23.8491969 C54.3171816,25.2745625 56.6390964,27.0573176 58.40492,28.3039885" id="Fill-96" fill="#DB9F6D"></path>
                        <path d="M100.138219,63.7449682 C98.7684325,63.5683939 96.0598509,61.9803431 95.4753675,61.5098509 C95.1332308,61.2371666 94.6398599,60.5901002 94.2822279,60.0933454 C94.7650621,60.0039407 95.3055388,59.8955375 95.8063475,59.7759587 C96.9653973,59.4960103 99.6188156,57.8347594 100.321063,57.3877359 C99.7316215,57.8537579 98.0482101,59.6630853 98.2775409,60.5381337 C98.5391018,61.5405838 99.8462869,62.3027588 100.350195,62.5687377 C100.855962,62.8347167 101.508625,63.9209837 100.138219,63.7449682" id="Fill-97" fill="#DB9F6D"></path>
                    </g>
                </g>
            </g>
        </g>
    </g>
</svg>