<?xml version="1.0" encoding="UTF-8"?>
<svg width="569px" height="474px" viewBox="0 0 569 474" version="1.1" xmlns="http://www.w3.org/2000/svg" xmlns:xlink="http://www.w3.org/1999/xlink">
    <!-- Generator: Sketch 60.1 (88133) - https://sketch.com -->
    <title>Group 59</title>
    <desc>Created with Sketch.</desc>
    <defs>
        <filter x="-21.3%" y="-28.3%" width="142.9%" height="156.6%" filterUnits="objectBoundingBox" id="filter-1">
            <feOffset dx="0" dy="27" in="SourceAlpha" result="shadowOffsetOuter1"></feOffset>
            <feGaussianBlur stdDeviation="15" in="shadowOffsetOuter1" result="shadowBlurOuter1"></feGaussianBlur>
            <feColorMatrix values="0 0 0 0 0.00784313725   0 0 0 0 0.0901960784   0 0 0 0 0.498039216  0 0 0 0.2 0" type="matrix" in="shadowBlurOuter1" result="shadowMatrixOuter1"></feColorMatrix>
            <feMerge>
                <feMergeNode in="shadowMatrixOuter1"></feMergeNode>
                <feMergeNode in="SourceGraphic"></feMergeNode>
            </feMerge>
        </filter>
    </defs>
    <g id="RA-CAM" stroke="none" stroke-width="1" fill="none" fill-rule="evenodd">
        <g id="Main" transform="translate(-726.000000, -2113.000000)">
            <g id="Group-59" transform="translate(754.000000, 2113.000000)">
                <path d="M80.2586883,446.830778 C91.6362506,458.056068 156.080136,444.055886 191.186458,434.892382 C278.461844,412.111631 301.676187,395.261599 394.666495,353.130419 C582.67301,267.950184 426.705086,197.06924 437.320425,162.936325 C458.957848,93.3626286 215.092194,0 143.761795,0 C72.4313955,0 10.8157911,312.61006 77.7290629,360.617592 C94.2385394,372.462465 52.1401669,419.088581 80.2586883,446.830778 Z" id="Mask" fill="#EDF2FD" transform="translate(268.500000, 225.500000) scale(-1, 1) translate(-268.500000, -225.500000) "></path>
                <g id="Group-85" filter="url(#filter-1)" transform="translate(0.000000, 32.000000)">
                    <polygon id="Fill-1" fill="#BFC3D6" points="485.738317 62 485.828125 257.790982 454.917933 276 454.828125 76.6767068"></polygon>
                    <g id="Group-10" transform="translate(0.828125, 14.000000)">
                        <g id="Group-5" transform="translate(339.880208, 0.000000)">
                            <polyline id="Fill-2" fill="#FFFFFF" points="114.105521 63.5557464 113.821146 261.418446 1.3603125 192.524484 0.0355989583 0.446412009"></polyline>
                            <polyline id="Stroke-4" stroke="#BFC3D6" stroke-width="0.5" points="114.105521 63.5557464 113.821146 261.418446 1.3603125 192.524484 0.0355989583 0.446412009"></polyline>
                        </g>
                        <g id="Group-9" transform="translate(0.000000, 162.418329)">
                            <path d="M0.440307292,76.8091958 C0.440307292,76.8091958 42.2386927,30.3614843 101.76549,38.7491937 C101.76549,38.7491937 143.812703,-9.5832631 194.955177,2.99830105 L298.851583,67.6960372 L92.0090573,162.075549 L0.475854167,76.4606957" id="Fill-6" fill="#FFFFFF"></path>
                            <path d="M0.440307292,76.8091958 C0.440307292,76.8091958 42.2386927,30.3614843 101.76549,38.7491937 C101.76549,38.7491937 143.812703,-9.5832631 194.955177,2.99830105 L298.851583,67.6960372 L92.0090573,162.075549 L0.475854167,76.4606957" id="Stroke-8" stroke="#BFC3D6" stroke-width="0.5"></path>
                        </g>
                    </g>
                    <polygon id="Fill-11" fill="#BFC3D6" points="1.67128764 265.630878 92.737616 351 92.828125 338.966625 0.828125 253"></polygon>
                    <line x1="101.828125" y1="215" x2="193.828125" y2="292" id="Stroke-12" stroke="#BFC3D6" stroke-width="0.5"></line>
                    <polygon id="Fill-14" fill="#ECEEFA" points="93.2490986 265.321769 92.828125 250 143.828125 261.692146 112.216832 275"></polygon>
                    <g id="Group-84" transform="translate(57.828125, 0.000000)">
                        <path d="M64.1064193,241.170906 C64.1064193,243.839752 60.037487,246.001826 55.0158984,246.001826 C49.9943099,246.001826 45.9253776,243.839752 45.9253776,241.170906 C45.9253776,238.502059 49.9943099,236.337617 55.0158984,236.337617 C60.037487,236.337617 64.1064193,238.502059 64.1064193,241.170906" id="Fill-15" fill="#ECEEFA"></path>
                        <polygon id="Fill-17" fill="#ECEEFA" points="7.55442188 301.115521 0.454526042 253.542798 62.2586927 273.991325"></polygon>
                        <g id="Group-23" transform="translate(304.540230, 264.065146)">
                            <path d="M0.698415948,1.65843834 L2.27906699,106.529665 C2.33831178,110.503334 4.60620241,114.060217 8.05424928,115.511862 C18.6993534,120.001776 42.6792753,127.101334 65.9032337,113.086929 C68.7683118,111.355849 70.460343,108.002622 70.4082076,104.467052 L68.8417753,0.630683742 L0.698415948,1.65843834 Z" id="Fill-19" fill="#FFFFFF"></path>
                            <path d="M0.698415948,1.65843834 L2.27906699,106.529665 C2.33831178,110.503334 4.60620241,114.060217 8.05424928,115.511862 C18.6993534,120.001776 42.6792753,127.101334 65.9032337,113.086929 C68.7683118,111.355849 70.460343,108.002622 70.4082076,104.467052 L68.8417753,0.630683742 L0.698415948,1.65843834 Z" id="Stroke-21" stroke="#BFC3D6" stroke-width="0.5"></path>
                        </g>
                        <path d="M374.223101,264.685173 C374.30101,269.91867 358.776505,274.396744 339.548016,274.685652 C320.317156,274.97456 304.664682,270.965369 304.583815,265.731872 C304.505906,260.500744 320.030411,256.025038 339.261271,255.73613 C358.49213,255.444854 374.144604,259.451676 374.223101,264.685173" id="Fill-24" fill="#BFC3D6"></path>
                        <path d="M305.016359,286.904801 L305.957167,354.191942 C305.957167,354.191942 338.029927,370.420519 375.238026,352.415869 L374.254563,287.143979 C374.254563,287.143979 338.236099,302.25955 305.016359,286.904801" id="Fill-26" fill="#ECEEFA"></path>
                        <path d="M35.0996953,338.690609 L35.0996953,351.030768 L242.29532,254.900191 L242.29532,243.587787 C242.29532,243.587787 195.750242,234.127234 136.578914,292.365872 C136.578914,292.365872 69.4379766,290.092498 35.0996953,338.690609" id="Fill-28" fill="#ECEEFA"></path>
                        <path d="M321.196586,110.815627 C319.886091,94.2934061 326.139971,80.3239951 335.164138,79.6088294 C344.188305,78.8936638 352.563148,91.7074429 353.873643,108.227296 C355.184138,124.749517 348.930258,138.721296 339.908461,139.434093 C330.881924,140.149259 322.507081,127.337848 321.196586,110.815627" id="Fill-30" fill="#ECEEFA"></path>
                        <path d="M430.630484,101.188124 C447.328036,109.87194 454.174365,120.604161 454.179104,131.080627 C454.190953,161.449118 393.735198,186.093915 319.141266,186.129475 C244.549703,186.164958 184.07025,161.574627 184.053659,131.206136 C184.041812,105.850909 226.193297,84.4811914 283.530406,78.0991669" id="Stroke-32" stroke="#BFC3D6" stroke-width="2.5" stroke-linecap="round" stroke-linejoin="round" stroke-dasharray="4,10"></path>
                        <polygon id="Fill-34" fill="#ECEEFA" points="282.511396 14.4716847 318.555927 0.987733742 429.054573 62.9253411 396.190302 78.2422"></polygon>
                        <polygon id="Fill-36" fill="#0058FF" points="5.72020313 98.9462454 80.0416094 153.017031 134.994708 128.777178 60.7041094 74.3795951"></polygon>
                        <polygon id="Fill-38" fill="#0250CC" points="35.1992266 120.396715 5.8114401 99.0104209 1.01735156 178.595096 25.9499297 196.467133 27.0637318 197.272286 32.8009974 201.411721 39.9293307 206.538654 71.7295651 229.490261 79.841362 152.832556 48.0577161 129.72939"></polygon>
                        <polygon id="Fill-40" fill="#0250CC" points="106.759352 141.002958 79.8456276 152.843449 71.7338307 229.479842 98.6333359 217.776701 106.370706 214.418737 126.772242 205.547842 134.912477 128.615437 114.501461 137.600001"></polygon>
                        <polygon id="Fill-42" fill="#4D91FF" points="25.9492188 196.467133 27.0630208 197.272286 32.8026563 201.411721 40.9310417 124.60009 34.079974 119.634188"></polygon>
                        <polygon id="Fill-44" fill="#4D91FF" points="98.6340469 217.777648 106.371417 214.419685 114.514021 137.465967 106.771911 140.892605"></polygon>
                        <polygon id="Fill-46" fill="#4D91FF" points="74.4742578 101.670269 66.7321484 105.11822 34.2683724 119.542306 34.1048568 119.592036 34.033763 119.629925 40.8895703 124.595827 40.9322266 124.576882 41.098112 124.508207 73.5808464 110.105434 81.3276953 106.659852 95.8592578 100.178367 89.0295182 95.212465"></polygon>
                        <polygon id="Fill-48" fill="#4D91FF" points="70.8593776 105.545188 64.0154193 100.555605 40.6563828 83.6639607 32.9474505 87.0740221 56.2804193 104.005924 63.1220078 108.995507 91.8699505 129.865556 106.766461 140.974304 114.501461 137.550034 99.6049505 126.438918"></polygon>
                        <path d="M62.2295443,106.075879 C55.7173568,101.543339 49.5890755,102.038271 49.5890755,102.038271 C49.5890755,102.038271 45.2523568,106.928394 47.2832682,114.799952 C47.3022266,114.882836 47.3188151,114.965719 47.3377734,115.034394 L47.3519922,115.048602 C48.3117578,116.145032 49.5938151,116.737056 51.1555078,116.971498 C53.2883203,115.730615 56.4282943,113.630112 60.3905859,112.652087 C62.8622786,112.041118 65.6633724,111.865879 68.7298828,112.621302 C68.682487,112.562099 68.6374609,112.488688 68.5900651,112.431854 C66.5615234,109.62329 64.3694661,107.577253 62.2295443,106.075879" id="Fill-50" fill="#4D91FF"></path>
                        <path d="M54.8784505,111.264145 C50.2786849,111.920108 47.4254557,113.970881 47.2832682,114.799715 C47.3022266,114.882599 47.3211849,114.965482 47.3377734,115.034157 L47.3519922,115.048366 C48.3117578,116.147163 49.5938151,116.739188 51.1555078,116.971261 C52.359362,117.151237 53.7338411,117.120452 55.2576172,116.959421 C61.7461068,116.234783 66.8695964,113.954304 68.7298828,112.621065 C68.7891276,112.571335 68.7417318,112.514501 68.5900651,112.431617 C67.4999609,111.81828 61.2247526,110.350059 54.8784505,111.264145" id="Fill-52" fill="#0250CC"></path>
                        <path d="M76.0399792,108.475236 C74.3669062,109.413002 72.6535469,110.615996 70.9307083,112.167101 C70.8714635,112.214463 70.809849,112.276033 70.752974,112.323395 C73.8668802,112.223935 76.5447448,112.962782 78.8221146,114.061579 C82.5332083,115.851861 85.187375,118.591751 87.0263333,120.251788 C88.6046146,120.34888 89.9814635,120.038659 91.147401,119.169567 L91.1639896,119.155358 C91.1995365,119.09142 91.2327135,119.01564 91.2682604,118.937493 C94.901151,111.665064 91.6853437,105.976892 91.6853437,105.976892 C91.6853437,105.976892 84.4385208,103.80061 76.0399792,108.475236" id="Fill-54" fill="#4D91FF"></path>
                        <path d="M84.5830781,113.886577 C78.5661771,111.665301 72.1250833,111.79081 70.9283385,112.160233 C70.7624531,112.209963 70.7055781,112.259693 70.752974,112.316528 C72.2933385,114.012086 76.8243802,117.310847 83.0190156,119.375828 C84.4740677,119.854184 85.813,120.169141 87.0287031,120.24492 C88.6046146,120.34438 89.9814635,120.031791 91.1497708,119.162699 L91.1639896,119.150859 C91.1971667,119.08692 91.2327135,119.011141 91.2682604,118.932994 C91.3014375,118.089951 88.9434948,115.489779 84.5830781,113.886577" id="Fill-56" fill="#0250CC"></path>
                        <path d="M69.9697578,107.833481 C68.0952526,107.636929 66.4363984,108.766512 66.2681432,110.357874 C66.099888,111.951604 67.4838464,113.403248 69.3607214,113.602168 C71.2375964,113.79872 72.8940807,112.669137 73.0647057,111.077775 C73.2329609,109.484045 71.8466328,108.032401 69.9697578,107.833481" id="Fill-58" fill="#4D91FF"></path>
                        <path d="M67.0385625,108.792087 C66.612,109.215977 66.3323646,109.753535 66.2660104,110.359768 C66.100125,111.95113 67.4840833,113.402774 69.3585885,113.601694 C70.6430156,113.736676 71.8184323,113.239375 72.4890833,112.405805 C69.1192396,113.824296 65.4271042,111.015731 67.0385625,108.792087" id="Fill-60" fill="#0250CC"></path>
                        <path d="M230.091367,179.843083 C228.569961,160.649648 243.094414,143.843255 262.533815,142.303991 C281.975586,140.764728 298.966992,155.077513 300.488398,174.26858 C302.009805,193.462016 287.485352,210.270777 268.045951,211.81004 C248.60418,213.346936 231.612773,199.036519 230.091367,179.843083" id="Fill-62" fill="#0058FF"></path>
                        <path d="M257.275721,210.672169 C268.830826,213.892783 280.087336,210.279065 288.521424,203.134513 C297.310982,195.682108 300.187909,187.036182 300.751919,178.439985 C301.074211,173.516709 300.372753,162.320341 289.175487,151.322893 C277.980591,140.323077 262.534289,142.302807 262.534289,142.302807 C262.534289,142.302807 285.630279,153.769139 285.630279,175.347249 C285.630279,199.696034 257.275721,210.672169 257.275721,210.672169" id="Fill-64" fill="#0250CC"></path>
                        <path d="M69.8052943,256.565675 L69.8171432,256.911417 C70.2626641,269.182902 82.9505286,277.139712 94.2022995,272.204595 L153.932898,245.994485 C160.464044,243.129086 164.585112,236.569454 164.326805,229.443847 C163.881284,217.210252 151.262143,209.253442 140.022221,214.119883 L80.2774036,239.979515 C73.7036016,242.825969 69.546987,249.409282 69.8052943,256.565675" id="Fill-66" fill="#FF3B88"></path>
                        <path d="M82.412112,255.57131 C84.4359141,259.483409 87.6683099,262.351175 90.1660703,261.240537 C92.6827891,260.120427 92.3202109,256.037826 90.1708099,251.881813 C88.2891953,248.242047 85.0473203,245.011961 82.4050026,246.186537 C79.7792734,247.356378 80.3338047,251.552648 82.412112,255.57131 M91.7941172,251.02693 C95.0525807,257.328439 94.2089349,261.813617 91.0713307,263.210795 C87.8270859,264.652967 83.6088568,261.920182 80.7437786,256.3812 C77.7388828,250.569887 78.1986224,245.684501 81.4784141,244.223384 C84.8340391,242.731482 88.9835443,245.594513 91.7941172,251.02693" id="Fill-68" fill="#FDFEFF"></path>
                        <path d="M97.4593411,253.418236 C97.6418151,253.768714 97.8456172,254.078935 98.0375703,254.360739 C99.1869193,255.888162 100.741503,256.60096 101.888482,256.08945 C103.585253,255.334027 103.50468,252.833315 101.945357,249.816358 C100.582727,247.180665 98.4854609,245.343021 96.7910599,246.096076 C95.6962161,246.583904 95.2791328,248.206052 95.8952786,250.136052 C95.9971797,250.458113 96.1251484,250.837009 96.2934036,251.163806 L97.4593411,253.418236 Z M94.0586901,250.619144 C93.1889766,248.933058 92.4519714,247.592714 91.7671016,246.361303 L93.2079349,245.719548 L94.4473359,247.940825 L94.4828828,247.926616 C94.309888,246.032137 94.8596797,244.618383 96.300513,243.976628 C98.4333255,243.027021 101.428742,244.999647 103.492831,248.994628 C105.936086,253.721352 105.21093,256.915917 103.132622,257.839475 C101.964315,258.360456 100.551919,258.052604 99.3480651,256.98696 L99.3125182,257.003536 L103.004654,264.143352 L101.416893,264.849045 L94.0586901,250.619144 Z" id="Fill-70" fill="#FDFEFF"></path>
                        <path d="M110.559312,244.512529 C109.7915,242.982737 108.132646,240.81356 106.326865,241.618713 C104.703557,242.340983 105.141969,244.881952 105.874234,246.598823 L110.559312,244.512529 Z M106.739208,248.315694 C108.447828,251.53394 110.521396,252.246737 112.125745,251.531572 C113.275094,251.020063 113.813036,250.413829 114.218271,249.764971 L115.377099,251.356333 C115.007411,251.986247 114.265667,252.850602 112.86275,253.47578 C110.146969,254.68351 107.146812,252.748774 105.096943,248.78221 C103.047073,244.818013 102.999677,240.995903 105.570901,239.849744 C108.450198,238.568602 111.168349,241.999977 112.417229,244.420173 C112.670797,244.908001 112.831943,245.305842 112.938583,245.55686 L106.739208,248.315694 Z" id="Fill-72" fill="#FDFEFF"></path>
                        <path d="M113.204474,241.198612 C112.503016,239.839324 111.908198,238.733422 111.289682,237.672514 L112.711557,237.037864 L113.92963,239.17152 L113.965177,239.154944 C113.756635,237.710404 114.145281,236.03379 115.605073,235.384931 C116.825516,234.840269 119.28299,235.081815 121.612495,239.590674 L125.671948,247.440919 L124.067599,248.156085 L120.150333,240.578171 C119.05549,238.461091 117.614656,236.926563 116.100359,237.601471 C115.043432,238.072723 114.799344,239.552784 115.211687,241.004428 C115.29463,241.335962 115.469995,241.757483 115.676167,242.164796 L119.766427,250.069508 L118.159708,250.784674 L113.204474,241.198612 Z" id="Fill-74" fill="#FDFEFF"></path>
                        <path d="M127.19999,234.968383 C126.496161,233.609094 125.901344,232.503193 125.285198,231.442285 L126.688115,230.817107 L127.856422,232.903401 L127.913297,232.87972 C127.75926,231.411499 127.974911,229.876972 129.434703,229.228113 C130.636188,228.692923 132.110198,229.372567 133.292724,230.7508 L133.330641,230.734223 C133.224,229.87934 133.276135,229.154702 133.430172,228.58399 C133.650563,227.752788 134.062906,227.167867 134.904182,226.793708 C136.07012,226.275094 138.394885,226.64215 140.752828,231.205475 L144.755406,238.946788 L143.186604,239.645377 L139.338063,232.202444 C138.032307,229.678052 136.627021,228.430064 135.333115,229.005512 C134.418375,229.412825 134.228792,230.736591 134.558193,232.024837 C134.655354,232.384788 134.823609,232.844199 135.051109,233.277561 L139.24801,241.397769 L137.681578,242.096358 L133.607906,234.222432 C132.527281,232.129033 131.119625,230.881045 129.899182,231.425708 C128.894391,231.87091 128.78301,233.391229 129.145589,234.703156 C129.23801,235.09626 129.413375,235.517782 129.621917,235.925094 L133.724026,243.855855 L132.157594,244.554444 L127.19999,234.968383 Z" id="Fill-76" fill="#FDFEFF"></path>
                        <path d="M148.912258,227.439725 C148.144445,225.912302 146.485591,223.743124 144.67981,224.548277 C143.056503,225.268179 143.497284,227.811517 144.22481,229.52602 L148.912258,227.439725 Z M145.094523,231.245259 C146.798404,234.461136 148.871971,235.173934 150.47632,234.461136 C151.628039,233.949627 152.165982,233.343394 152.568846,232.692167 L153.727674,234.283529 C153.360357,234.915811 152.616242,235.777799 151.215695,236.402977 C148.497544,237.610707 145.499758,235.675971 143.447518,231.709406 C141.397648,227.74521 141.352622,223.923099 143.923846,222.779308 C146.800773,221.498167 149.521294,224.929541 150.770174,227.349737 C151.023742,227.837566 151.184888,228.235406 151.291529,228.486425 L145.094523,231.245259 Z" id="Fill-78" fill="#FDFEFF"></path>
                        <polygon id="Fill-80" fill="#0058FF" points="221.416508 246.628425 220.589451 329.303467 320.706039 374.946191 321.734529 295.247848"></polygon>
                        <polygon id="Fill-82" fill="#ECEEFA" points="259.528682 301.048504 259.239568 318.631633 274.818578 316.900553"></polygon>
                    </g>
                </g>
            </g>
        </g>
    </g>
</svg>