<?xml version="1.0" encoding="UTF-8"?>
<svg width="102px" height="63px" viewBox="0 0 102 63" version="1.1" xmlns="http://www.w3.org/2000/svg" xmlns:xlink="http://www.w3.org/1999/xlink">
    <!-- Generator: Sketch 60.1 (88133) - https://sketch.com AR blanco-->
    <title>Group 12</title>
    <desc>Created with Sketch.</desc>
    <defs>
        <polygon id="path-1" points="0 0.156440678 46.8022047 0.156440678 46.8022047 51.7268678 0 51.7268678"></polygon>
    </defs>
    <g id="RA-CAM" stroke="none" stroke-width="1" fill="none" fill-rule="evenodd">
        <g id="Main" transform="translate(-670.000000, -5985.000000)">
            <g id="Group-12" transform="translate(667.000000, 5985.000000)">
                <path d="M5.51418171,46.7959545 C3.66880817,43.7351435 3.54390009,39.8514478 5.19109789,36.6599355 L20.7445822,6.49727706 C22.5043297,3.08437278 25.7775395,1.04605494 29.500948,1.04605494 C33.2230325,1.04605494 36.4962423,3.08437278 38.2564311,6.49816618 L52.4491676,34.0219032 C52.1565385,33.7689473 51.8541991,33.5279946 51.5359704,33.3106037 C50.7163438,32.7531226 49.823891,32.3196744 48.8824459,32.0249297 C48.240692,31.8239876 47.5742213,31.6870624 46.9042196,31.6181552 C45.5284652,31.4781181 44.066202,31.6257128 42.6326279,32.0676077 C41.325286,32.4708256 40.0064685,33.1114398 38.6029076,34.0276825 C36.5531792,35.3635921 34.5648013,37.1422856 32.8902385,38.7040327 C32.2683463,39.2859647 31.6438059,39.8812335 31.0126449,40.4813925 C25.6076115,45.6285341 20.0167609,50.9494994 12.4909383,50.9535005 C9.65027245,50.9512777 7.1062081,49.4366542 5.51418171,46.7959545 M54.9460053,41.9035471 C54.9318814,42.2262993 54.8983372,42.5481623 54.8542,42.8691363 C54.8369865,42.9905018 54.8224213,43.1136455 54.8003527,43.2341219 C54.7416503,43.5755457 54.6670586,43.9147466 54.5739292,44.2490574 C54.5381782,44.3779805 54.4935996,44.5024579 54.4529935,44.6300473 C54.3686916,44.8927836 54.276445,45.1528525 54.1718399,45.4080312 C54.1312338,45.5076131 54.0928345,45.6080842 54.0500215,45.7058879 C53.8849486,46.0730963 53.703545,46.4336363 53.4934522,46.7826176 C53.4850662,46.7959545 53.4762387,46.8097359 53.468294,46.8230728 C52.2783569,48.7804803 50.5653948,50.1150561 48.59732,50.6672024 C48.5840789,50.6712035 48.5717205,50.67476 48.558038,50.678761 C48.2605537,50.7610051 47.9551248,50.8196873 47.6466062,50.8650326 C47.6077655,50.8712565 47.5715731,50.8805923 47.5331738,50.8854825 C47.1964074,50.9299387 46.8534619,50.9543896 46.506544,50.9543896 L18.368239,50.9543896 C23.4559263,49.1156802 27.6423334,45.1297352 31.7254596,41.2411494 C32.3539723,40.6441023 32.9767473,40.0506117 33.5977567,39.4713471 C35.2387753,37.9393856 37.1847815,36.1989245 39.1669802,34.9052484 C40.4893287,34.0432422 41.7216375,33.4421941 42.9354086,33.0678727 C43.9174598,32.7655704 44.9039247,32.6117518 45.8683211,32.6117518 C46.1830189,32.6117518 46.4928615,32.6273115 46.7991732,32.65932 C47.4007624,32.720225 47.9974964,32.8438133 48.573486,33.023861 C49.4178293,33.2883756 50.2189183,33.6769229 50.9551257,34.1775 C51.4371032,34.5073652 51.8908329,34.8834648 52.3017496,35.2977969 C52.50787,35.5049629 52.7033975,35.7223538 52.8887735,35.9495251 C53.6448426,36.8724363 54.2062669,37.9180467 54.5575985,39.0547923 C54.8003527,39.8443348 54.9261436,40.673888 54.9499776,41.5029965 C54.9490949,41.5807949 54.9583637,41.6585933 54.9564975,41.7372808 C54.9548327,41.7924065 54.9490949,41.8470877 54.9460053,41.9035471 M55.9796969,41.9720097 C55.9827865,41.9035471 55.9911726,41.8337508 55.9942622,41.7643991 C55.9942622,41.7283896 55.9991173,41.6946028 56,41.6585933 C55.9991173,41.591909 55.9867589,41.5283366 55.984552,41.4625414 C55.988083,39.6482829 55.5833455,37.8282451 54.7323815,36.1775855 L39.1784558,6.01626072 C37.236422,2.24948491 33.6185012,0 29.500948,0 C25.3825122,0 21.7654741,2.24948491 19.8221161,6.01626072 L4.26863181,36.1775855 C2.4568025,39.69185 2.59406898,43.9689832 4.62658396,47.3392095 C6.41237237,50.2986603 9.27554819,51.9959989 12.4878487,51.9991109 L12.4918211,51.9991109 C12.4918211,51.9991109 12.4935866,52 12.4944693,52 L46.506544,52 C46.8719995,52 47.2299517,51.9719926 47.5839315,51.9284255 C47.7163429,51.9119767 47.8447819,51.8857475 47.9754278,51.8635194 C48.1921412,51.8270653 48.4066476,51.7866101 48.6176231,51.7332627 C48.7729858,51.6945857 48.9261417,51.6510186 49.0788562,51.6047842 C49.2624666,51.5483248 49.4398979,51.4847524 49.6173292,51.4171789 C49.7726919,51.3580521 49.9276132,51.3020373 50.0781209,51.2344638 C50.297041,51.1371047 50.5075752,51.0246305 50.7172265,50.9108225 C50.8456656,50.8401371 50.9754288,50.77123 51.1007782,50.6943207 C51.369132,50.5307218 51.6286583,50.3528969 51.8784745,50.1617352 C51.9407079,50.1150561 51.9989689,50.0630423 52.0607609,50.0145851 C52.3229354,49.8038626 52.5749585,49.5789141 52.81683,49.3401842 C52.8309538,49.3264027 52.8446364,49.3130659 52.8592016,49.2983953 C54.370457,47.7859946 55.4350447,45.7356736 55.8278652,43.3910523 C55.8441959,43.2923595 55.8587612,43.1945558 55.8733264,43.0971967 C55.9249669,42.7286546 55.9616007,42.3538886 55.9796969,41.9720097" id="Fill-1" fill="#FFFFFF"></path>
                <g id="Group-5" transform="translate(58.000000, 0.000000)">
                    <mask id="mask-2" fill="white">
                        <use xlink:href="#path-1"></use>
                    </mask>
                    <g id="Clip-4"></g>
                    <path d="M33.4656252,31.8439186 C33.4217,31.8399525 33.3768963,31.8351051 33.3395598,31.8351051 C27.8748215,31.8351051 23.4291486,36.2956475 23.4291486,41.7776814 C23.4291486,45.6829695 25.6908589,49.0603254 28.9646065,50.6851051 L9.76576542,50.6899525 C4.95068131,50.6899525 1.03342897,46.7599864 1.03342897,41.9292746 L1.03342897,9.97307119 C1.03342897,5.14324068 4.95068131,1.21327458 9.76576542,1.21327458 L29.7961112,1.21195254 L29.9876252,1.20269831 C30.0991953,1.19696949 30.2107654,1.18991864 30.328485,1.18991864 C30.4409336,1.18991864 30.5547,1.19696949 30.6671486,1.20357966 L30.8621766,1.21195254 C39.2207093,1.50544407 45.7690832,8.30025763 45.7690832,16.6797492 C45.7690832,24.0038169 40.5977654,30.3702915 33.4656252,31.8439186 M45.5722981,48.1882237 C45.5129991,48.3715458 45.4405224,48.5486983 45.352672,48.7165966 C44.7412327,49.8967322 43.4529056,50.682461 42.0328028,50.682461 L33.3777748,50.6842237 L33.3395598,50.6833424 C28.444971,50.6833424 24.4627093,46.6881559 24.4627093,41.7776814 C24.4627093,36.8989356 28.3935785,32.9235797 33.2925598,32.8777492 L44.2866065,43.9065966 L44.4680178,44.1176814 C45.6285224,45.1149356 46.0515224,46.6744949 45.5722981,48.1882237 M46.8022047,16.6797492 C46.8022047,7.7388339 39.8163355,0.4888 30.9012701,0.176359322 L30.7255692,0.166664407 C30.455429,0.152562712 30.183971,0.152562712 29.9292047,0.166664407 L9.76576542,0.176359322 C4.38053178,0.176359322 -0.000131775701,4.57124068 -0.000131775701,9.97307119 L-0.000131775701,41.9292746 C-0.000131775701,47.3319864 4.38053178,51.7268678 9.76576542,51.7268678 L42.0328028,51.7268678 L42.5498028,51.7189356 L42.5498028,51.6929356 C43.2420645,51.6202237 43.9018215,51.3972407 44.4833916,51.0561559 C45.4545785,50.488122 46.2122888,49.589139 46.5571019,48.5028678 C46.7020551,48.0436814 46.7811206,47.5818508 46.7986907,47.1270712 C46.8232888,46.4435797 46.7068869,45.7768339 46.4587093,45.1598847 C46.2100925,44.5438169 45.8301393,43.9793085 45.3285131,43.5011729 L34.5360832,32.6596136 C41.6976533,30.7691051 46.8022047,24.1963932 46.8022047,16.6797492" id="Fill-3" fill="#FFFFFF" mask="url(#mask-2)"></path>
                </g>
                <path d="M73.121546,61.4201354 C73.1617507,61.4201354 73.1958374,61.4351384 73.2233689,61.4637806 L73.4615385,61.7315619 C73.2871721,61.9261467 73.0957625,62.1011821 72.8890575,62.2562134 C72.6806045,62.4126086 72.4559822,62.5449081 72.2103835,62.6549303 C71.9647848,62.7644979 71.6955877,62.8495151 71.4027921,62.9095272 C71.1099964,62.9699939 70.7879213,63 70.4374406,63 C69.8522864,63 69.3143291,62.8931602 68.8261907,62.6794807 C68.3380524,62.4658012 67.9189614,62.1634674 67.5702287,61.7711154 C67.22237,61.3796727 66.9496768,60.9063952 66.7552081,60.3503738 C66.5589913,59.7952617 66.4615385,59.1760457 66.4615385,58.4963629 C66.4615385,57.8289553 66.5629244,57.2192867 66.7643853,56.668721 C66.9649721,56.1172459 67.2472795,55.6435138 67.6130555,55.2470701 C67.9775205,54.8506264 68.4140918,54.5442008 68.9223326,54.3259749 C69.4296993,54.1082037 69.991255,54 70.6048148,54 C70.9115946,54 71.193028,54.0231865 71.4478039,54.0718327 C71.7030168,54.119115 71.9416234,54.1877652 72.1623126,54.2764195 C72.3838758,54.3664377 72.5914548,54.4773692 72.7863605,54.6096686 C72.9830143,54.7424227 73.173987,54.8951808 73.3610265,55.0693069 L73.175735,55.3498181 C73.1438334,55.3993736 73.0944514,55.4243787 73.0254041,55.4243787 C72.9895694,55.4243787 72.9441206,55.4025561 72.8890575,55.3589109 C72.8331204,55.3152657 72.7618881,55.2620731 72.6757974,55.19706 C72.5905808,55.1325015 72.4870098,55.0624874 72.3655215,54.985199 C72.2435961,54.9092746 72.0993834,54.8388058 71.9320092,54.774702 C71.765072,54.7105981 71.5710403,54.6560416 71.3525361,54.6123964 C71.1331579,54.5692059 70.8840631,54.5473833 70.6048148,54.5473833 C70.0904559,54.5473833 69.6176129,54.63922 69.1871596,54.8242574 C68.7571434,55.0088402 68.3874343,55.2720752 68.0754104,55.6139624 C67.7646974,55.9558497 67.5225948,56.3713882 67.3495395,56.8583047 C67.1760471,57.3456759 67.0890825,57.8912407 67.0890825,58.4963629 C67.0890825,59.1187614 67.1751731,59.6747828 67.3469174,60.1639725 C67.5177877,60.6531623 67.7555202,61.0664276 68.058367,61.4042231 C68.3603398,61.7424732 68.7186867,62.0011619 69.1312226,62.1821075 C69.5433215,62.3621439 69.991255,62.4521621 70.4737123,62.4521621 C70.775685,62.4521621 71.0457562,62.4326126 71.2830518,62.390786 C71.5199103,62.349414 71.7392885,62.2871287 71.9376903,62.2039301 C72.1374031,62.1211861 72.3226947,62.0193473 72.4944389,61.8997777 C72.6657462,61.7788442 72.8348685,61.6379066 73.0022427,61.4765104 C73.0227821,61.4596888 73.0406994,61.4460497 73.0599278,61.4360477 C73.0769711,61.4251364 73.0979475,61.4201354 73.121546,61.4201354" id="Fill-6" fill="#FFFFFF"></path>
                <path d="M78.4491247,59.0941778 L82.4739522,59.0941778 L80.639507,55.0514026 C80.610271,54.9877564 80.5801068,54.9150178 80.5504067,54.8340135 C80.5216348,54.7534225 80.4910065,54.6670455 80.4617705,54.5761223 C80.4325345,54.6670455 80.4023703,54.7534225 80.3722061,54.8340135 C80.3429701,54.9150178 80.3137341,54.9894095 80.2831058,55.0567753 L78.4491247,59.0941778 Z M84.4615385,62 L83.9598852,62 C83.900485,62 83.8512942,61.9867748 83.8137051,61.9578447 C83.7756518,61.9301545 83.7459517,61.8929586 83.7246048,61.847497 L82.6656106,59.5235832 L78.2523616,59.5235832 L77.1989362,61.847497 C77.1817659,61.8896523 77.1516017,61.9256083 77.1098359,61.9549517 C77.0676061,61.9859482 77.016095,62 76.9566948,62 L76.4615385,62 L80.1383179,54 L80.7847591,54 L84.4615385,62 Z" id="Fill-8" fill="#FFFFFF"></path>
                <path d="M93.5012791,60.0098146 C93.5242868,59.9494809 93.5472946,59.8903869 93.5723939,59.8321194 C93.597075,59.7734387 93.6251026,59.7176507 93.6556401,59.6647554 L96.8374013,54.1078568 C96.8683571,54.0582675 96.898058,54.0285139 96.9290139,54.0173563 C96.9603881,54.0053722 97.001802,54 97.0545106,54 L97.4615385,54 L97.4615385,62 L96.9461651,62 L96.9461651,55.181466 C96.9461651,55.083527 96.9520216,54.9802159 96.9637347,54.8707061 L93.7756987,60.461904 C93.7221534,60.5606695 93.6460187,60.6090191 93.5464579,60.6090191 L93.4548453,60.6090191 C93.3603044,60.6090191 93.2837514,60.5606695 93.2268595,60.461904 L89.9534858,54.865334 C89.9643621,54.9748437 89.9698003,55.0798078 89.9698003,55.181466 L89.9698003,62 L89.4615385,62 L89.4615385,54 L89.8614548,54 C89.9150001,54 89.957669,54.0053722 89.9902981,54.0173563 C90.022509,54.0285139 90.0543015,54.0582675 90.0840024,54.1078568 L93.3523563,59.6713673 C93.4092481,59.7763314 93.4594468,59.8895604 93.5012791,60.0098146" id="Fill-10" fill="#FFFFFF"></path>
            </g>
        </g>
    </g>
</svg>