<?xml version="1.0" encoding="UTF-8"?>
<svg width="142px" height="151px" viewBox="0 0 142 151" version="1.1" xmlns="http://www.w3.org/2000/svg" xmlns:xlink="http://www.w3.org/1999/xlink">
    <!-- Generator: Sketch 60.1 (88133) - https://sketch.com -->
    <title>Group 58</title>
    <desc>Created with Sketch.</desc>
    <defs>
        <polygon id="path-1" points="0 0.294191176 15.2907563 0.294191176 15.2907563 13.4417496 0 13.4417496"></polygon>
        <polygon id="path-3" points="0.130882811 0.600588235 18.0282814 0.600588235 18.0282814 11.029331 0.130882811 11.029331"></polygon>
    </defs>
    <g id="RA-CAM" stroke="none" stroke-width="1" fill="none" fill-rule="evenodd">
        <g id="Main" transform="translate(-137.000000, -4198.000000)">
            <g id="Group-58" transform="translate(137.000000, 4198.000000)">
                <path d="M80.2507107,137.081703 C98.6002522,137.081703 75.3130052,109.341997 127.562393,118.056167 C179.811782,126.770337 70.6544415,70.6431593 109.700213,65.8545548 C165.245948,59.0423816 110.42883,31.2050335 71.3617434,16.8444037 C56.9469636,11.5456898 25.3933363,-5.68652127 11.7463292,11.5837039 C-1.90067797,28.853929 61.770883,72.2862146 11.7463292,68.3469476 C-26.3609391,65.3461272 42.4167855,137.081703 80.2507107,137.081703 Z" id="Oval" fill="#ECEEFA"></path>
                <g id="Group-49" transform="translate(20.516968, 0.081703)">
                    <ellipse id="Oval" fill="#EDF1F4" cx="55.2739819" cy="144.485294" rx="55.2739819" ry="5.51470588"></ellipse>
                    <g id="Group-41" transform="translate(16.432805, 0.000000)">
                        <g id="Group-5" transform="translate(0.000000, 130.111029)">
                            <mask id="mask-2" fill="white">
                                <use xlink:href="#path-1"></use>
                            </mask>
                            <g id="Clip-4"></g>
                            <path d="M4.92901999,0.622132353 L-7.46945701e-05,5.18022059 C-7.46945701e-05,5.18022059 4.88196241,13.6566912 5.92021693,13.4375735 C6.9592184,13.2184559 15.3250103,11.9993382 15.2907563,11.3456618 C15.2562913,10.69125 14.0208431,10.5861029 13.1872517,10.24125 C12.3536603,9.89639706 10.7462331,9.02286765 11.1301632,8.18022059 C11.5148402,7.33830882 12.5023025,6.13757353 12.5023025,6.13757353 L5.96204589,0.294191176 L4.92901999,0.622132353 Z" id="Fill-3" fill="#06356D" mask="url(#mask-2)"></path>
                        </g>
                        <path d="M20.438003,72.6614706 L22.0050951,106.569559 L4.92916938,130.733529 L12.0445741,137.882794 L32.0589842,110.679853 C32.5728828,109.982059 32.818628,109.126912 32.7528968,108.266618 L31.7079197,94.6283824 C31.7079197,94.6283824 30.5957176,72.1607353 20.438003,72.6614706" id="Fill-6" fill="#322FB5"></path>
                        <path d="M40.1984515,66.7464706 C40.1984515,66.7464706 40.1984515,70.847971 40.1984515,73.1617647 C40.1984515,75.4755584 62.1130914,135.858971 62.1130914,135.858971 L52.8390136,141.072941 L26.3896663,82.9383824 C26.3896663,82.9383824 17.0110161,77.0582353 21.7100515,68.9082353 C26.4090869,60.7589706 42.1920496,66.7464706 42.1920496,66.7464706 C40.8629842,66.7464706 40.1984515,66.7464706 40.1984515,66.7464706 Z" id="Fill-8" fill="#423FE0"></path>
                        <path d="M36.5359526,10.1481618 L36.5359526,11.1753676 C36.5359526,11.19375 36.5337118,11.2128676 36.531471,11.2297794 C36.4866542,11.6246324 35.9615514,16.1393382 35.9085183,16.2636029 C35.8696771,16.3525735 36.1587451,17.3349265 36.3581796,17.9849265 C36.4478131,18.2827206 36.2401621,18.5856618 35.9271919,18.6150735 L35.4498936,18.6577206 C35.2444835,18.6790441 35.072686,18.8194853 35.0166651,19.0165441 C34.742536,19.9841912 33.9238835,22.7805147 33.5922396,22.8011029 C33.4682467,22.8099265 32.720554,22.4849265 31.7323448,22.0172794 C29.5408062,20.9775735 26.1758158,19.23125 25.8800253,18.8496324 C25.6678927,18.5753676 25.1495124,17.8775735 24.6610099,17.2275735 C24.1620502,16.5636029 23.6952091,15.9496324 23.6242493,15.8966912 C23.4995093,15.8040441 22.8997119,14.6591912 22.7458411,14.3599265 C22.719698,14.3113971 22.7047591,14.2606618 22.6965427,14.2077206 L22.1609826,10.6040441 C22.1311048,10.3944853 22.237918,10.1900735 22.4283892,10.0952206 L25.2862034,8.67389706 C25.3571633,8.63786765 25.4340987,8.62095588 25.5140219,8.62095588 C25.9913202,8.62536765 27.7354384,8.64227941 27.9087298,8.62095588 C28.0932254,8.59595588 30.3363033,8.90625 30.6896086,8.95625 C30.7217273,8.96066176 30.7493643,8.96727941 30.781483,8.97757353 C31.070551,9.07904412 32.6861945,9.63566176 33.0499571,9.78125 C33.3778662,9.90992647 35.2825778,9.79154412 35.9578167,9.74522059 C36.1094467,9.73492647 36.2595827,9.79375 36.3626612,9.90772059 C36.4478131,10.0025735 36.5359526,10.1099265 36.5359526,10.1481618" id="Fill-10" fill="#FFC493"></path>
                        <path d="M31.7326436,22.0169853 L31.7326436,22.0191912 C31.1096909,21.7368382 30.6189476,22.1853676 30.2760995,22.7280147 C29.9056144,23.31625 29.7084208,24.01625 29.7084208,24.01625 L23.1659234,21.1691912 L24.6613087,17.2272794 C25.1498112,17.8772794 25.6681915,18.5750735 25.880324,18.8493382 C25.9953537,18.9993382 26.582453,19.3574265 27.3861666,19.8030147 L27.3884074,19.8044853 C27.3906483,19.8044853 27.3906483,19.8066912 27.394383,19.8088971 C28.6410354,20.4963971 30.4023333,21.3868382 31.7326436,22.0169853" id="Fill-12" fill="#FFC493"></path>
                        <path d="M31.7326436,22.0169853 L31.7326436,22.0191912 C31.1096909,21.7368382 30.6189476,22.1853676 30.2760995,22.7280147 C30.0296074,22.0191912 27.5490007,19.9375735 27.394383,19.8088971 C28.6410354,20.4963971 30.4023333,21.3868382 31.7326436,22.0169853" id="Fill-14" fill="#DB9F6D"></path>
                        <path d="M36.653746,10.8608824 C36.653746,10.8608824 36.3056693,11.8888235 35.7969993,11.9682353 C35.2875823,12.0476471 29.0483449,11.3402941 28.2984114,11.8101471 C27.5492248,12.2792647 27.1847153,13.1454412 27.1847153,13.1454412 L27.7367082,9.20058824 L31.7328677,9.91161765 L36.653746,10.8608824 Z" id="Fill-16" fill="#DB9F6D"></path>
                        <path d="M27.1845659,13.1457353 C27.1845659,13.1457353 27.2988486,10.5097059 26.4607756,10.4038235 C25.6227025,10.2986765 22.9949475,10.5442647 23.6425494,12.1964706 C24.2901513,13.8486765 24.4036871,14.9030882 24.8608179,14.9030882 C25.3179486,14.9030882 25.3650062,16.2038235 25.3650062,16.2038235 C25.3650062,16.2038235 24.8376625,18.3192647 24.5179698,18.3825 C24.198277,18.4464706 23.7568321,18.5229412 23.1659981,18.8045588 C22.575911,19.0854412 14.5768694,12.9001471 20.5569167,7.34647059 C20.5569167,7.34647059 22.1172863,0.244264706 29.3223245,1.93323529 C38.7689468,4.14794118 40.211299,2.14426471 41.1636547,0.000147058824 C41.1636547,0.000147058824 43.7152213,11.9332353 36.5355792,11.2038235 C29.3559371,10.4744118 28.7464294,10.2986765 28.3654871,10.7207353 C27.9845448,11.1420588 27.1845659,13.1457353 27.1845659,13.1457353" id="Fill-18" fill="#06356D"></path>
                        <path d="M22.1092193,23.3738235 C23.0331911,23.6547059 31.7194227,26.1473529 32.0219357,26.4664706 C32.3244487,26.7855882 38.5259499,43.8442704 38.8307038,46.6913292 C39.1354576,49.5376528 42.9153918,62.9510294 42.2685368,62.7047059 C41.620188,62.4583824 30.3457895,60.8414706 23.6038576,64.7782353 C23.6038576,64.7782353 22.6515019,65.5870588 21.8896173,64.7782353 C21.1284796,63.9701471 20.7856315,62.1422059 21.8896173,60.3142647 C21.8896173,60.3142647 22.0808354,57.9598529 21.5475161,56.2017647 C21.0141969,54.4444118 17.5095277,43.0914706 18.5761661,36.8708824 C19.6428046,30.6495588 20.5189719,25.2716176 20.5189719,25.2716176 C20.5189719,25.2716176 21.1852475,23.0929412 22.1092193,23.3738235 Z" id="Fill-20" fill="#0058FF"></path>
                        <g id="Group-24" transform="translate(53.033145, 135.258088)">
                            <mask id="mask-4" fill="white">
                                <use xlink:href="#path-3"></use>
                            </mask>
                            <g id="Clip-23"></g>
                            <path d="M7.64947093,0.600588235 C7.64947093,0.600588235 9.17473405,3.72338235 13.5817137,3.41088235 C17.9901872,3.09838235 17.0019781,3.07705882 17.4800233,3.51823529 C17.9580686,3.95794118 18.1209027,4.68808824 17.97973,4.79691176 C17.8393042,4.90647059 2.01227172,11.4035294 1.55364706,11.0123529 C1.0950224,10.6211765 0.0702128959,8.46676471 0.133703281,8.16014706 C0.197940611,7.85352941 0.259190158,5.34544118 0.21885509,4.45720588 C0.177773077,3.56897059 2.40516516,2.21823529 3.59579661,2.13441176 C4.78792195,2.05058824 7.64947093,0.600588235 7.64947093,0.600588235" id="Fill-22" fill="#06356D" mask="url(#mask-4)"></path>
                        </g>
                        <path d="M21.7101262,23.3992647 C21.7101262,23.3992647 22.537742,19.8764706 22.7663074,20.0345588 C22.9948728,20.1926471 30.7078341,23.3485294 30.7078341,23.3485294 C30.7078341,23.3485294 31.1649649,23.5669118 31.0506822,24.0154412 C30.9363995,24.4632353 30.4934607,25.8941176 30.4934607,25.8941176 L21.7101262,23.3992647 Z" id="Fill-25" fill="#FF3B88"></path>
                        <path d="M22.6146027,65.1358088 C22.6146027,65.1358088 20.4454724,68.9608088 24.2914958,68.9078676 C24.2914958,68.9078676 39.9639106,65.2703676 42.1920496,66.7461029 C42.1920496,66.7461029 45.5435949,65.2527206 42.268238,62.7041912 C38.9921342,60.1563971 25.4343228,62.2593382 22.6146027,65.1358088" id="Fill-27" fill="#FF3B88"></path>
                        <path d="M32.2306782,60.2760868 L31.7294811,57.5710633 L33.3066505,34.674937 C33.311484,33.3330175 32.3945656,32.1523792 31.0733154,31.8255314 C29.2240133,31.3679443 26.400696,33.6216647 26.1078279,36.5644055 C25.6209575,41.4755907 26.3861824,59.0967897 26.3861824,59.0967897 L30.5198536,61.4596463 C31.3689924,61.9454469 32.4066937,61.2267787 32.2306782,60.2760868" id="Fill-31" fill="#004BD9" transform="translate(29.626201, 46.691041) rotate(1.000000) translate(-29.626201, -46.691041) "></path>
                        <path d="M27.5292067,28.4788235 C27.5292067,28.4788235 31.8219036,28.5832353 32.4060152,31.3972059 C32.9908737,34.2111765 30.826972,57.8045588 30.8299597,58.5222059 C30.8336945,59.2398529 36.4260769,79.7685294 36.5067471,80.1273529 C36.5859233,80.4847059 31.7980014,83.0788235 31.1593628,82.9325 C30.5207242,82.7861765 21.4498156,64.5545588 21.2511281,61.6589706 C21.0516936,58.7633824 22.0585764,42.4670588 22.0787439,42.0567647 C22.0989114,41.6464706 23.2170892,33.5038235 23.5270716,32.7825 C23.8363071,32.0604412 24.3972634,28.5148529 27.5292067,28.4788235" id="Fill-33" fill="#004BD9"></path>
                        <path d="M38.0462769,83.1350735 C38.0462769,83.1350735 38.7013482,85.0130147 39.405718,85.5049265 C40.1108348,85.9968382 41.1767263,87.2652206 41.6338571,87.5233088 C42.0909878,87.7813971 42.4853752,88.6240441 41.8788552,89.0725735 C41.4620595,89.3806618 40.4999935,88.4916912 40.1571454,88.6115441 C38.8305698,89.0747794 41.0646844,93.6806618 41.1782202,94.6409559 C41.2925029,95.60125 41.3403074,96.2159559 40.8279026,96.1836029 C40.3162448,96.15125 38.0403013,95.5277206 36.6928112,94.6563971 C35.5298168,93.9034559 32.3829345,92.5534559 32.0901318,90.7049265 C31.7084426,88.2997794 31.7084426,85.2858088 31.7084426,85.2858088 C31.7084426,85.2858088 35.0876249,81.7078676 38.0462769,83.1350735" id="Fill-35" fill="#FFC493"></path>
                        <path d="M30.8270467,81.6796324 C30.7269559,81.7318382 29.9449038,82.1281618 29.9822511,82.5877206 C30.0188514,83.0480147 31.5822088,85.4119853 31.7084426,85.2855147 C31.8339295,85.1590441 36.709244,82.7399265 38.0462769,83.1347794 C38.2472052,83.0303676 39.159226,82.6605147 38.7058299,81.8708088 C38.2524339,81.0818382 37.081223,79.6825735 36.6950521,79.5347794 C36.3096281,79.3869853 30.8270467,81.6796324 30.8270467,81.6796324" id="Fill-37" fill="#FF3B88"></path>
                    </g>
                </g>
            </g>
        </g>
    </g>
</svg>