<?xml version="1.0" encoding="UTF-8"?>
<svg width="166px" height="151px" viewBox="0 0 166 151" version="1.1" xmlns="http://www.w3.org/2000/svg" xmlns:xlink="http://www.w3.org/1999/xlink">
    <!-- Generator: Sketch 60.1 (88133) - https://sketch.com -->
    <title>Group 57</title>
    <desc>Created with Sketch.</desc>
    <defs>
        <polygon id="path-1" points="0.566150829 0.64255581 10.0093268 0.64255581 10.0093268 9.06382979 0.566150829 9.06382979"></polygon>
        <polygon id="path-3" points="0.540060253 0.64255581 9.98323621 0.64255581 9.98323621 9.06382979 0.540060253 9.06382979"></polygon>
    </defs>
    <g id="RA-CAM" stroke="none" stroke-width="1" fill="none" fill-rule="evenodd">
        <g id="Main" transform="translate(-466.000000, -4198.000000)">
            <g id="Group-57" transform="translate(467.000000, 4198.000000)">
                <path d="M52.368912,118.840888 C79.2015131,105.133071 123.88463,140.571037 151.821895,118.840888 C179.759161,97.110738 156.553632,87.3125228 131.564215,63.6634316 C97.457213,31.3857844 129.82265,33.7554682 118.974466,24.6169238 C107.490599,14.9428789 38.9704804,-1.69499925 25.2598084,15.6086657 C11.5491365,32.9123306 57.2846948,59.5095478 10.8647519,86.9251809 C-20.4809679,105.437973 21.4294422,134.646757 52.368912,118.840888 Z" id="Oval-Copy-23" fill="#ECEEFA"></path>
                <g id="Group-50" transform="translate(33.728467, 0.081703)">
                    <ellipse id="Oval" fill="#EDF1F4" cx="55.4241507" cy="144.81383" rx="55.4241507" ry="5.18617021"></ellipse>
                    <g id="Group-53" transform="translate(13.436158, 0.000000)">
                        <path d="M67.9991783,72.0157128 C67.9991783,72.0157128 71.6522916,74.5143699 71.6522916,76.7295628 L71.6522916,99.7340426 L74.6763811,99.7340426 L74.6763811,76.2626384 C74.6763811,76.2626384 75.1160391,74.6114959 75.5565204,74.353932 C75.9970018,74.0956488 69.6367809,68.6170213 69.6367809,68.6170213 L67.1807888,69.762389 L67.9991783,72.0157128 Z" id="Fill-1" fill="#EDF1F4"></path>
                        <path d="M69.7000683,70.0702337 C69.7386392,69.9591055 76.3335016,63.792654 76.6806394,63.8299558 C77.0277773,63.8672576 80.3826866,65.2412067 80.5369701,68.1017874 C80.6912536,70.961591 81.0958696,74.3055407 76.2850989,77.0542161 C76.2850989,77.0542161 75.7549386,77.5368079 75.4463716,77.3510761 C75.1378046,77.1653443 69.7000683,70.0702337 69.7000683,70.0702337" id="Fill-3" fill="#D8D8D8"></path>
                        <path d="M72.2193479,69.6680444 L74.6695394,72.606383 C74.6695394,72.606383 77.8614852,70.2260953 77.1561271,68.2032519 C76.4507689,66.1811381 74.7386922,67.3665403 74.7386922,67.3665403 L72.2193479,69.6680444 Z" id="Fill-5" fill="#A0A5C2"></path>
                        <path d="M80.6169465,64.8605237 C80.6169465,64.8605237 82.5080665,63.6858264 82.7270684,63.8445334 C82.9453568,64.0032404 84.109562,67.654165 83.963323,68.1296219 C83.8177974,68.6064069 82.2533967,68.7332397 81.9987268,68.5107843 C81.7447703,68.288993 80.6169465,64.8605237 80.6169465,64.8605237" id="Fill-7" fill="#0058FF"></path>
                        <path d="M74.23053,70.2656485 L63.4351266,77.393617 L62.1422296,75.5749073 L73.5689528,67.9953667 C73.5689528,67.9953667 74.6942065,67.436382 75.3206196,68.3095673 C75.9462149,69.1827526 75.2363891,69.5422565 75.2363891,69.5422565 L74.23053,70.2656485 Z" id="Fill-9" fill="#E6E6E6"></path>
                        <g id="Group-13" transform="translate(72.219348, 135.638298)">
                            <mask id="mask-2" fill="white">
                                <use xlink:href="#path-1"></use>
                            </mask>
                            <g id="Clip-12"></g>
                            <path d="M10.0093268,4.85305336 C10.0093268,7.1782743 7.89569703,9.06424812 5.28810525,9.06424812 C2.68051347,9.06424812 0.566150829,7.1782743 0.566150829,4.85305336 C0.566150829,2.52783241 2.68051347,0.64255581 5.28810525,0.64255581 C7.89569703,0.64255581 10.0093268,2.52783241 10.0093268,4.85305336" id="Fill-11" fill="#A0A5C2" mask="url(#mask-2)"></path>
                        </g>
                        <path d="M78.9374268,137.482671 L77.1150524,138.937243 L73.2483325,142.021277 L14.2759176,142.021277 C14.2759176,142.021277 17.2966197,139.176736 17.3566546,138.937243 C17.4174794,138.695141 15.7254438,138.212894 15.7254438,138.212894 L16.4458623,137.234043 L78.9374268,137.482671 Z" id="Fill-16" fill="#EDF1F4"></path>
                        <path d="M75.5783873,140.425532 L71.7538175,143.617021 L13.4361578,143.617021 C13.4361578,143.617021 16.4233218,140.673316 16.4834713,140.425532 L75.5783873,140.425532 Z" id="Fill-18" fill="#0058FF"></path>
                        <path d="M78.6041597,138.031915 L81.0378223,135.952076 C81.0378223,135.952076 82.2982272,135.183264 80.4463519,134.233469 C78.5944767,133.284409 77.8537266,125.371899 77.8537266,122.944807 L77.8537266,99.7340426 L72.2989079,99.7340426 L72.2989079,134.33941 C72.2989079,134.33941 70.5398282,134.972117 70.5398282,135.842456 L70.5398282,137.996601 L78.6041597,138.031915 Z" id="Fill-20" fill="#0058FF"></path>
                        <g id="Group-24" transform="translate(5.038559, 135.638298)">
                            <mask id="mask-4" fill="white">
                                <use xlink:href="#path-3"></use>
                            </mask>
                            <g id="Clip-23"></g>
                            <path d="M9.98323621,4.85305336 C9.98323621,7.1782743 7.86960645,9.06424812 5.26201467,9.06424812 C2.6544229,9.06424812 0.540060253,7.1782743 0.540060253,4.85305336 C0.540060253,2.52783241 2.6544229,0.64255581 5.26201467,0.64255581 C7.86960645,0.64255581 9.98323621,2.52783241 9.98323621,4.85305336" id="Fill-22" fill="#A0A5C2" mask="url(#mask-4)"></path>
                        </g>
                        <path d="M16.2319225,138.031915 L12.3756239,138.031915 C12.3756239,138.031915 11.6078022,136.601139 9.36327428,136.601139 C7.11874641,136.601139 6.32227463,138.031915 6.32227463,138.031915 L3.35903944,138.031915 L5.2794123,134.840426 L13.9824832,134.840426 C13.9824832,134.840426 17.634957,135.9767 17.634957,138.031915 L16.2319225,138.031915 Z" id="Fill-27" fill="#EDF1F4"></path>
                        <path d="M57.1036704,64.2484154 C57.1036704,64.2484154 47.2537188,55.5920821 45.7272271,53.8608154 C44.1999868,52.1295487 27.5545643,27.2674002 26.9436682,27.1290437 C26.332772,26.9899629 29.8454248,37.3782874 29.8454248,37.3782874 L37.93905,53.3066652 C37.93905,53.3066652 49.1627693,61.8246421 49.6973034,62.2404359 C50.2318375,62.6555052 56.4927743,65.4255319 56.4927743,65.4255319 L57.1036704,64.2484154 Z" id="Fill-36" fill="#004BD9"></path>
                        <path d="M31.9108747,10.4106305 L31.9108747,11.5086615 C31.9108747,11.5283113 31.9083883,11.5487471 31.905902,11.5668249 C31.856175,11.9889027 31.2735408,16.8148942 31.2146972,16.9477269 C31.1716005,17.042832 31.4923394,18.0929174 31.7136244,18.7877344 C31.8130783,19.1060612 31.5826767,19.42989 31.2354167,19.4613297 L30.7058246,19.5069172 C30.4779093,19.529711 30.2872893,19.6798355 30.2251306,19.8904814 C29.9209674,20.924847 29.0126215,23.913975 28.644642,23.9359828 C28.5070641,23.9454147 27.6774526,23.5980062 26.580973,23.0981152 C24.1493245,21.9867223 20.4156584,20.1199911 20.0874605,19.7120612 C19.8520862,19.4188861 19.276911,18.6729796 18.7348871,17.9781626 C18.1812602,17.2684117 17.663271,16.6121083 17.5845367,16.5555168 C17.44613,16.4564818 16.7806174,15.2326921 16.6098882,14.9127933 C16.5808808,14.8609179 16.5643052,14.8066844 16.5551885,14.750093 L15.9609513,10.8979456 C15.9278,10.6739379 16.046316,10.4554321 16.2576555,10.3540391 L19.4285782,8.83471634 C19.5073126,8.79620273 19.5926772,8.77812491 19.6813569,8.77812491 C20.2109491,8.78284086 22.1461567,8.80091868 22.3384343,8.77812491 C22.5431436,8.75140118 25.0319781,9.08308985 25.4239924,9.13653731 C25.45963,9.14125326 25.490295,9.14832719 25.5259326,9.15933108 C25.8466715,9.26779799 27.6393286,9.86279402 28.0429457,10.0184205 C28.4067813,10.1559691 30.5201773,10.0294243 31.2693968,9.97990685 C31.4376397,9.96890296 31.6042251,10.0317823 31.7185971,10.1536111 C31.8130783,10.2550041 31.9108747,10.3697589 31.9108747,10.4106305" id="Fill-37" fill="#FFC493"></path>
                        <path d="M26.8723155,23.1822833 L26.8723155,23.1848757 C26.2005955,22.853041 25.6714347,23.3801743 25.3017471,24.0179191 C24.9022589,24.7092414 24.6896281,25.5319149 24.6896281,25.5319149 L17.634957,22.185915 L19.2474073,17.5531915 C19.7741518,18.3171026 20.333113,19.1371837 20.5618522,19.4595127 C20.6858868,19.6357999 21.3189467,20.0566423 22.1855783,20.580319 L22.1879946,20.5820473 C22.1904108,20.5820473 22.1904108,20.5846397 22.1944379,20.5872322 C23.5386834,21.3952151 25.437863,22.4417042 26.8723155,23.1822833" id="Fill-38" fill="#FFC493"></path>
                        <path d="M26.8723155,23.1587974 L26.8723155,23.1612091 C26.1488034,22.8525109 25.5788424,23.3428908 25.1806505,23.9361702 C24.8943687,23.1612091 22.0133331,20.8853636 21.8337563,20.7446809 C23.2816481,21.4963288 25.3272615,22.4698537 26.8723155,23.1587974" id="Fill-39" fill="#DB9F6D"></path>
                        <path d="M32.7506345,11.7155619 C32.7506345,11.7155619 32.3493357,12.5471932 31.7628883,12.6114394 C31.1755797,12.6756856 23.9823413,12.1034185 23.1177404,12.4835419 C22.2540006,12.8630703 21.8337563,13.5638298 21.8337563,13.5638298 L22.4701508,10.3723404 L27.0773369,10.9475818 L32.7506345,11.7155619 Z" id="Fill-40" fill="#DB9F6D"></path>
                        <path d="M22.688671,13.9373655 C22.688671,13.9373655 22.808351,11.1425643 21.9306981,11.0303045 C21.0530452,10.9188243 18.301189,11.1792047 18.9793753,12.9309253 C19.6575616,14.6826458 19.7764593,15.8005663 20.255179,15.8005663 C20.7338988,15.8005663 20.7831787,17.1796467 20.7831787,17.1796467 C20.7831787,17.1796467 20.2309301,19.4225039 19.8961392,19.4895479 C19.5613483,19.5573716 19.0990552,19.6384481 18.4803178,19.937028 C17.8623625,20.2348282 9.48554929,13.6769852 15.748017,7.78880294 C15.748017,7.78880294 17.3820783,0.258821197 24.9273898,2.04952086 C34.8201489,4.3976216 36.3306192,2.27326087 37.327952,0 C37.327952,0 40.0000216,12.6518349 32.4813057,11.8784897 C24.9625898,11.1051444 24.3242968,10.9188243 23.9253637,11.3663044 C23.5264306,11.8130048 22.688671,13.9373655 22.688671,13.9373655" id="Fill-41" fill="#06356D"></path>
                        <path d="M16.4521326,23.1640728 C17.4062646,23.4536676 26.3760314,26.0236322 26.688419,26.3526483 C27.0008066,26.6816645 39.1175893,48.7841181 39.4322909,51.7194877 C39.7469925,54.6548573 37.9374583,63.9688942 37.2694888,63.7149301 C36.5999766,63.4609661 24.9575602,61.7939005 17.9955588,65.8527768 C17.9955588,65.8527768 17.0121163,66.6866886 16.2253623,65.8527768 C15.4393797,65.0196231 15.0853404,63.1349824 16.2253623,61.2503417 C16.2253623,61.2503417 16.4228222,58.8229002 15.8720944,57.0102791 C15.3213666,55.1984162 11.7022983,43.4933267 12.8037538,37.0797867 C13.9052094,30.6654886 14.8099765,25.1207332 14.8099765,25.1207332 C14.8099765,25.1207332 15.4980006,22.874478 16.4521326,23.1640728 Z" id="Fill-42" fill="#0058FF"></path>
                        <path d="M16.8486334,37.5 L37.7891937,60.9043171 L36.5154803,62.204763 C36.5154803,62.204763 29.0796826,62.0393327 26.2739504,63.0319149 C26.2739504,63.0319149 26.990566,58.7767194 25.2099584,59.131319 C25.2099584,59.131319 28.6238017,58.7055027 27.8650799,57.571229 C27.8650799,57.571229 15.9012433,40.7974798 16.8486334,37.5" id="Fill-43" fill="#004BD9"></path>
                        <path d="M6.49653308,122.074468 L0,124.933935 C0,124.933935 2.12556085,134.518169 3.2486634,134.624513 C4.37176594,134.730119 13.235942,136.10668 13.4177021,135.471571 C13.6002559,134.835724 12.3858764,134.359392 11.6572488,133.776717 C10.9286211,133.19478 9.59280376,131.870652 10.2611093,131.182371 C10.9286211,130.494091 12.3247606,129.646294 12.3247606,129.646294 L7.65059039,122.074468 L6.49653308,122.074468 Z" id="Fill-44" fill="#06356D"></path>
                        <path d="M6.71807888,120.679623 C6.71807888,120.679623 11.8688777,129.867835 12.4139023,129.973753 C12.9589268,130.079671 14.9591986,130.079671 15.3228124,129.973753 C15.6864261,129.867835 35.0157851,109.738948 35.7430126,109.208616 C36.4702401,108.676804 41.6812451,103.419413 42.0448589,102.569846 C42.4084727,101.719539 43.0144956,96.2495713 42.7720864,95.1874274 C42.5296772,94.1252834 26.8966621,78.9893617 26.8966621,78.9893617 L24.7728092,80.7951546 C24.7728092,80.7951546 30.2895984,96.1436532 31.259235,97.4717035 C32.2288717,98.7990131 30.4108029,98.3205298 30.2895984,98.6923543 C30.1683938,99.0641787 30.0471892,100.073734 29.6835754,100.392229 C29.3199617,100.710724 6.71807888,120.679623 6.71807888,120.679623" id="Fill-45" fill="#322FB5"></path>
                        <path d="M60.8694806,128.581852 C60.8694806,128.581852 61.1735277,132.406177 65.6793148,133.807723 C70.184306,135.209269 69.2100817,134.800451 69.5149248,135.442996 C69.8189719,136.084727 69.6971938,136.902363 69.5149248,136.960999 C69.3318598,137.019634 51.067543,137.544908 50.7627,136.960999 C50.4586529,136.377089 50.2755879,133.749902 50.4586529,133.45754 C50.640922,133.165178 51.6764332,130.596626 51.9804803,129.661719 C52.2853233,128.727626 55.0249311,128.202352 56.2427114,128.581852 C57.4596957,128.961353 60.8694806,128.581852 60.8694806,128.581852" id="Fill-46" fill="#06356D"></path>
                        <path d="M49.9083017,130.692136 C49.9083017,130.692136 61.1767141,130.533208 62.0793518,130.692136 L62.9819895,130.851064 C62.9819895,130.851064 57.2639725,96.7177366 55.9993354,94.8623431 C54.7354853,93.0076888 38.0016687,72.1245324 37.6404562,71.0645188 C37.2792437,70.0045051 37.6404562,65.6580055 37.3390523,64.6512143 C37.0384354,63.6436839 36.1357977,63.1121986 35.2929687,63.0338434 C34.4493526,62.9554881 20.1236191,65.287666 19.28079,65.8701561 C18.4379609,66.4533854 13.86339,73.1313237 19.7624066,77.159967 C25.6614232,81.1878711 38.1818814,91.6290796 40.7103687,93.8023294 C43.238069,95.9755792 45.5257479,98.9434696 45.6461521,99.4742157 C45.7665562,100.003483 45.224344,100.163151 45.946769,100.693157 C46.6691939,101.223164 49.1378725,119.349842 49.5588936,123.960975 C49.9799147,128.572108 49.9083017,130.692136 49.9083017,130.692136" id="Fill-47" fill="#423FE0"></path>
                        <path d="M15.1156775,23.9538839 C15.1156775,23.9538839 16.0810669,20.5990496 16.3476817,20.7496005 C16.6142965,20.9001514 25.6112385,23.9055676 25.6112385,23.9055676 C25.6112385,23.9055676 26.144468,24.1135379 26.0111606,24.5406823 C25.8778532,24.9671265 25.3611782,26.3297872 25.3611782,26.3297872 L15.1156775,23.9538839 Z" id="Fill-48" fill="#FF3B88"></path>
                        <path d="M16.592274,65.3188359 C16.592274,65.3188359 14.3257612,69.4717826 18.3444508,69.4143024 C18.3444508,69.4143024 34.7204743,65.4649315 37.0486451,67.067193 C37.0486451,67.067193 40.5506571,65.4457714 37.128254,62.678737 C33.7050703,59.9125008 19.5385846,62.1957434 16.592274,65.3188359" id="Fill-49" fill="#FF3B88"></path>
                        <path d="M64.4606807,67.8191489 C64.4606807,67.8191489 66.2086074,68.7358366 67.0549254,68.6335879 C67.9005062,68.5320493 69.5356397,68.7514579 70.0428407,68.6413986 C70.5507789,68.5320493 71.2835664,69.0922867 71.2835664,69.0922867 C71.2835664,69.0922867 69.8740194,70.0593886 69.7044609,70.3647145 C69.5356397,70.6700403 70.5507789,74.2345421 71.2835664,74.8451939 C72.0170911,75.4558456 72.4675269,75.8634201 72.0731192,76.1687459 C71.6787114,76.4740718 71.4531249,76.7801077 70.8323934,77.0343092 C70.2123992,77.2892208 66.0958142,77.6960852 65.2502334,77.0343092 C64.4039155,76.3725332 61.3024697,73.4193931 61.3024697,73.4193931 C61.3024697,73.4193931 61.3400675,68.7017537 64.4606807,67.8191489" id="Fill-50" fill="#FFC493"></path>
                        <path d="M17.9064832,34.3007954 C17.9064832,34.3007954 21.2445015,31.6014762 23.6798531,33.2413698 C26.1152047,34.8812634 41.1570822,53.1981742 41.6677204,53.7100154 C42.1783587,54.2225716 60.9518233,65.3286687 61.2660622,65.5338341 C61.5803011,65.7389995 59.7734273,70.6937085 59.1849996,71.0010992 C58.5958016,71.3084899 38.8002903,64.0983911 36.6013881,62.1503919 C34.4017157,60.2031076 23.6405733,47.8667329 23.3656142,47.5593422 C23.0906552,47.2519515 18.1814423,40.6909474 17.9064832,39.9732259 C17.6315242,39.2555044 15.5496914,36.3510198 17.9064832,34.3007954" id="Fill-51" fill="#0058FF"></path>
                        <path d="M59.7654257,71.2059083 C59.7317565,71.3166585 59.4624035,72.1649743 59.7654257,72.4941486 C60.0684479,72.8240919 62.520353,73.5601193 62.5262947,73.3747665 C62.5315761,73.1901829 64.2427603,67.9341625 65.3538417,67.3088852 C65.42118,67.0881539 65.7915405,66.169081 65.0171504,65.8752853 C64.2427603,65.5814896 62.6312631,65.3169197 62.2906107,65.4707394 C61.9492981,65.6245591 59.7654257,71.2059083 59.7654257,71.2059083" id="Fill-52" fill="#FF3B88"></path>
                    </g>
                </g>
            </g>
        </g>
    </g>
</svg>