<?xml version="1.0" encoding="UTF-8"?>
<svg width="1439px" height="570px" viewBox="0 0 1439 570" version="1.1" xmlns="http://www.w3.org/2000/svg" xmlns:xlink="http://www.w3.org/1999/xlink">
    <!-- Generator: Sketch 60.1 (88133) - https://sketch.com -->
    <title>Group 39</title>
    <desc>Created with Sketch.</desc>
    <defs>
        <filter x="-34.6%" y="-60.5%" width="169.2%" height="221.0%" filterUnits="objectBoundingBox" id="filter-1">
            <feOffset dx="0" dy="50" in="SourceAlpha" result="shadowOffsetOuter1"></feOffset>
            <feGaussianBlur stdDeviation="9.5" in="shadowOffsetOuter1" result="shadowBlurOuter1"></feGaussianBlur>
            <feColorMatrix values="0 0 0 0 0.181795704   0 0 0 0 0.329565382   0 0 0 0 0.54432398  0 0 0 0.0899286685 0" type="matrix" in="shadowBlurOuter1" result="shadowMatrixOuter1"></feColorMatrix>
            <feMerge>
                <feMergeNode in="shadowMatrixOuter1"></feMergeNode>
                <feMergeNode in="SourceGraphic"></feMergeNode>
            </feMerge>
        </filter>
        <linearGradient x1="0%" y1="47.883571%" x2="99.9999394%" y2="47.883571%" id="linearGradient-2">
            <stop stop-color="#5074AC" offset="0%"></stop>
            <stop stop-color="#2C3D84" offset="100%"></stop>
        </linearGradient>
    </defs>
    <g id="RA-CAM" stroke="none" stroke-width="1" fill="none" fill-rule="evenodd">
        <g id="Main" transform="translate(-1.000000, -297.000000)">
            <g id="Group-39" transform="translate(1.000000, 297.000000)">
                <g id="Group-14" transform="translate(882.000000, 143.000000)">
                    <polygon id="Path-7" stroke="#EDF1F4" stroke-width="2" points="0 227.031873 310.68343 425 557 278.884886 557 82.618199 405.116453 0"></polygon>
                    <ellipse id="Oval" fill="#2AD6B0" cx="451.887125" cy="172.5" rx="77.6067019" ry="34.5"></ellipse>
                    <ellipse id="Oval-Copy-2" fill="#0058FF" cx="339.406526" cy="236" rx="64.3447972" ry="28"></ellipse>
                    <ellipse id="Oval-Copy-3" fill="#9D32FF" cx="215.137566" cy="287" rx="60.9065256" ry="27"></ellipse>
                    <path d="M323.504367,262.308077 L288.506757,245.058149 C286.223984,243.932996 285.285548,241.170327 286.410701,238.887554 C286.83735,238.021945 287.524991,237.312126 288.376626,236.858225 C293.298422,234.235026 299.23431,234.379936 304.022241,237.240176 L346.77425,262.779604 L346.77425,262.779604 L339.378857,262.959466 C336.316675,263.033941 333.252688,262.967681 330.196589,262.760895 L323.504367,262.308077 L323.504367,262.308077 Z" id="Path-6-Copy" fill="#004BD9"></path>
                    <ellipse id="Oval" fill="#20A98A" cx="462.20194" cy="195" rx="9.3324515" ry="5"></ellipse>
                    <path d="M520.95998,188 L474.155816,162.635951 C471.766138,161.34094 470.878735,158.35391 472.173746,155.964232 C472.627396,155.127114 473.314135,154.439564 474.150718,153.984928 C479.109827,151.289929 485.105426,151.330392 490.027709,154.092079 L529.493827,176.234865 L529.493827,176.234865 C528.119168,180.652788 525.420989,184.542017 521.764136,187.376652 L520.95998,188 L520.95998,188 Z" id="Path-6-Copy-2" fill="#20A98A"></path>
                    <path d="M173.254529,268.051406 C168.632569,270.453236 209.520889,245.820682 248.03411,311 C253.258924,308.864966 256.836162,308.131638 258.361552,306.762969 C249.272741,283.932032 230.411799,258.995842 192.866111,262.295569 C188.498349,263.098067 177.876488,265.649576 173.254529,268.051406 Z" id="Path-5" fill="#EA3187"></path>
                    <path d="M374.053946,259 L336.611761,238.602364 C334.234218,237.307134 333.356831,234.329763 334.652061,231.952221 C335.105581,231.119732 335.790751,230.436599 336.624586,229.985559 C341.575918,227.30727 347.548607,227.327065 352.482078,230.038113 L390.9806,251.193883 L390.9806,251.193883 C385.706312,254.29409 380.141928,256.871924 374.36664,258.890697 L374.053946,259 L374.053946,259 Z" id="Path-6" fill="#004BD9"></path>
                </g>
                <g id="Group-17">
                    <g id="phone" filter="url(#filter-1)" transform="translate(1196.500000, 315.500000) scale(-1, 1) translate(-1196.500000, -315.500000) translate(1005.000000, 206.000000)">
                        <g id="Group-34" transform="translate(1.870117, 7.895837)">
                            <polyline id="Fill-32" fill="url(#linearGradient-2)" points="95.0173109 3.64548414 101.08438 0.292407101 101.14002 0.322288118 95.0173109 3.64548414"></polyline>
                            <path d="M0.267767817,60.3532524 C0.663930052,62.6092693 2.42217817,64.8097928 5.54918907,66.5407574 L62.854724,98.2338453 L62.0076721,98.6861856 C75.3011803,105.902305 251.507192,200.8602 256.130705,200.8602 C260.849042,200.8602 265.562927,199.878395 269.146192,197.910517 L375.08398,139.757788 C377.356349,138.509188 378.912065,137.008734 379.751127,135.414369 C380.234089,137.143199 380.48336,138.948866 380.474688,140.788683 C380.461104,143.121537 379.60201,145.337001 378.106386,147.087175 C377.975074,147.238714 377.841536,147.385985 377.701322,147.531121 C377.561107,147.678392 377.414215,147.821394 377.262872,147.960127 C377.091499,148.11807 376.915674,148.269609 376.733172,148.414746 C376.528414,148.581226 376.314754,148.739168 376.094416,148.890708 C375.849597,149.057187 375.59365,149.21513 375.333251,149.362401 C375.284287,149.390147 375.237549,149.41576 375.19081,149.443506 L374.467481,149.836228 L373.541618,150.339937 L372.55789,150.875661 L371.514069,151.445535 L370.410156,152.045289 L369.250603,152.679194 L368.030957,153.340845 L366.753445,154.03878 L364.01592,155.528562 L362.551455,156.326812 L361.017995,157.161346 L359.406639,158.040702 L357.706257,158.964879 L355.903496,159.946684 L353.967198,161.003191 L351.839495,162.162148 L269.146192,207.205648 C268.44957,207.587698 267.710661,207.933464 266.936141,208.240811 C265.578507,208.780804 264.118493,209.205541 262.593936,209.517158 C262.188871,209.600398 261.779355,209.6751 261.367614,209.741265 C260.012205,209.961104 258.61896,210.0913 257.219038,210.136122 C256.856261,210.148928 256.493483,210.155331 256.128479,210.155331 L256.035003,210.155331 C254.586118,210.151062 253.139458,210.052882 251.726182,209.865058 C250.226107,209.664429 248.763868,209.36135 247.3773,208.953687 C246.166557,208.597249 245.015906,208.16184 243.947604,207.64746 C243.624887,207.491652 53.3888439,102.097151 53.0839325,101.928537 L53.0879682,101.926252 L28.7558386,88.4414089 L26.1206921,86.9836422 L23.9084153,85.7563861 L21.9142504,84.6507884 L20.0692027,83.6305651 L18.3421134,82.6722382 L16.7085006,81.7672702 L15.1527848,80.9049894 L13.6727405,80.0853958 L12.2572395,79.3020863 L10.9085074,78.5529265 L9.61986732,77.8379164 L8.39131926,77.1570561 L7.2206376,76.5103455 L6.1122736,75.8956503 L5.47796889,75.5434811 C5.3399798,75.4666442 5.20199071,75.387673 5.06845288,75.304433 C4.74796208,75.108072 4.44082507,74.8967706 4.14704184,74.6705286 C3.87551491,74.4634958 3.61734177,74.2415225 3.37029678,74.0110118 C3.14773373,73.8039791 2.93629883,73.5862745 2.73599208,73.3621669 C2.56016727,73.1636715 2.39101935,72.9609075 2.23077395,72.7517404 C2.09501048,72.5724543 1.96369828,72.3867651 1.83906297,72.1989415 C1.73000708,72.0345959 1.62540244,71.868116 1.5274747,71.6995017 C1.42954696,71.5308874 1.33607047,71.3601387 1.24704525,71.1851213 C1.16024566,71.0122383 1.0756717,70.8350865 0.997774632,70.6558004 C0.468074565,69.4370818 0.180968226,68.1095108 0.180968226,66.7456558 L0.180968226,61.6039864 C0.180968226,61.1835178 0.209901423,60.7651836 0.267767817,60.3532524 Z" id="Combined-Shape" fill-opacity="0.785750679" fill="#212121"></path>
                        </g>
                        <path d="M112.305891,2.90066883 C119.517918,-1.00732397 131.28889,-0.960496167 138.463112,3.00496712 L138.463112,3.00496712 L375.007831,133.569389 C382.184276,137.536981 382.170933,144.003474 374.981144,147.945524 L374.981144,147.945524 L269.126904,205.939626 C261.937116,209.879547 250.181711,209.858261 243.005265,205.892798 L243.005265,205.892798 L5.73778683,74.9282115 C-1.43865873,70.9627483 -1.40974835,64.5217972 5.80005534,60.6138044 L5.80005534,60.6138044 Z M144.819424,10.7670508 L24.3115234,78.0886987 L222.938484,188.064488 L344.475586,120.757738 L144.819424,10.7670508 Z" id="Combined-Shape" fill="#F8F7F6"></path>
                        <polyline id="Fill-39" fill="#EEF4FF" opacity="0.812360491" points="24.3115234 78.0886987 144.819424 10.7670508 344.475586 120.757738 222.938484 188.064488 24.3115234 78.0886987"></polyline>
                        <path d="M322.667225,170.057175 C329.802331,166.143777 329.802331,159.740034 322.667225,155.828778 C315.532118,151.913236 303.852387,151.913236 296.71728,155.828778 C289.579917,159.740034 289.579917,166.143777 296.71728,170.057175 C303.852387,173.968431 315.532118,173.968431 322.667225,170.057175" id="Fill-36" fill="#E5E6E3"></path>
                        <path d="M58.4946596,45.4006881 C58.1916569,44.8864471 58.372554,44.2275061 58.8948944,43.9314279 C65.5496419,40.1486895 70.5407025,37.3116357 73.8680762,35.4202664 C75.8721425,34.2811009 78.8782421,32.5723527 82.8863748,30.2940216 C83.4087152,29.9934911 84.0802958,30.1715833 84.3832984,30.6858244 C84.6840399,31.2022916 84.505404,31.8612325 83.9830636,32.1573107 C81.6505964,33.4828983 79.9012461,34.4770889 78.7350125,35.1398827 C74.568801,37.5076236 68.3194838,41.0592351 59.9870608,45.794717 L59.4421082,45.9394169 C59.0644855,45.9394169 58.6981688,45.7479678 58.4946596,45.4006881 Z" id="Fill-37" fill="#2C3D84"></path>
                        <path d="M87.4884505,30.1477423 C87.1134435,30.1477423 86.7474188,29.9603185 86.5453192,29.6264026 C86.2444154,29.1266058 86.4240595,28.4910884 86.9450272,28.2024127 L92.2490178,25.2661066 C92.7654945,24.9731223 93.4346686,25.145466 93.7333268,25.6452628 C94.0342306,26.1450596 93.8568321,26.7827313 93.3381099,27.0692527 L88.0296282,30.0055588 L87.4884505,30.1477423" id="Fill-38" fill="#2C3D84"></path>
                    </g>
                    <path d="M1043.47243,326.757738 C887.952303,230.231026 647.192523,354.637949 515.665624,407.466316 C317.852946,486.918662 145.964405,472.680897 0,364.753021 C0,190.94081 0,74.7417987 0,16.1559874 C0,-71.7227294 175.293134,232.029456 529.35192,136.28095 C883.410707,40.5324441 973.201533,58.5162529 1243,216.767051 C1181.40143,251.988068 1039.82341,332.289029 1043.47243,326.757738 Z" id="Path-2" fill="#EDF2FD"></path>
                </g>
            </g>
        </g>
    </g>
</svg>