<?xml version="1.0" encoding="UTF-8"?>
<svg width="64px" height="50px" viewBox="0 0 64 50" version="1.1" xmlns="http://www.w3.org/2000/svg" xmlns:xlink="http://www.w3.org/1999/xlink">
    <!-- Generator: Sketch 60.1 (88133) - https://sketch.com -->
    <title>Group 3</title>
    <desc>Created with Sketch.</desc>
    <defs>
        <polygon id="path-1" points="0.843592172 0 63.8435922 0 63.8435922 50 0.843592172 50"></polygon>
    </defs>
    <g id="RA-CAM" stroke="none" stroke-width="1" fill="none" fill-rule="evenodd">
        <g id="Main" transform="translate(-19.000000, -5781.000000)">
            <g id="Group-3" transform="translate(19.000000, 5781.000000)">
                <mask id="mask-2" fill="white">
                    <use xlink:href="#path-1"></use>
                </mask>
                <g id="Clip-2"></g>
                <path d="M58.1933582,47.7485293 C57.4946303,46.9962853 56.8127481,46.2617829 56.1214664,45.5173696 L56.1214664,47.7485293 L58.1933582,47.7485293 Z M8.64410078,47.7452257 L8.64410078,45.5094165 C7.9464715,46.2605593 7.26165955,46.9979983 6.56781442,47.7452257 L8.64410078,47.7452257 Z M52.1472378,40.3690009 L52.1472378,47.7463269 L55.4006438,47.7463269 C55.4046721,47.70546 55.4107756,47.6724239 55.4107756,47.6392655 C55.4112639,46.6804847 55.4128508,45.7218263 55.4077239,44.7630456 C55.4073577,44.698197 55.3691498,44.6239269 55.3274019,44.5705798 C54.7193719,43.7934975 54.0977922,43.0268155 53.5002602,42.2417801 C53.0390802,41.6358738 52.6068308,41.0076986 52.1472378,40.3690009 L52.1472378,40.3690009 Z M9.34295077,47.7442468 L12.6118597,47.7442468 L12.6118597,40.3528499 C12.5830512,40.3909026 12.5681587,40.4091336 12.5550972,40.4284659 C11.5865949,41.852199 10.5500997,43.2244203 9.44658809,44.5456192 C9.37310203,44.6337154 9.33989902,44.7183857 9.340382,44.8341344 C9.34502596,45.7443398 9.34295077,46.6546676 9.34295077,47.5647507 L9.34295077,47.7442468 Z M25.2528048,47.7464492 L39.7383475,47.7464492 L39.7383475,45.9413328 L25.2528048,45.9413328 L25.2528048,47.7464492 Z M51.4347159,47.7463269 C51.4367911,47.6983634 51.4402091,47.6596989 51.4402091,47.6210344 C51.4404532,44.8758577 51.4409415,42.1308033 51.4375235,39.3856266 C51.4374015,39.3133143 51.4107902,39.2314582 51.3714838,39.1699132 C50.1205118,37.2068353 49.0007649,35.1713227 48.012121,33.0633755 C47.9918574,33.0200615 47.9689083,32.9777263 47.9297239,32.9002751 L47.9297239,47.7463269 L51.4347159,47.7463269 Z M16.8332799,32.8986844 C16.7961706,32.9673261 16.7744422,33.0028093 16.7569862,33.0402502 C15.7674878,35.1534588 14.6454216,37.1932538 13.3931069,39.161593 C13.3469645,39.23415 13.3205974,39.3330136 13.3204753,39.4196415 C13.3168132,42.1403471 13.3174236,44.861175 13.3174236,47.5820029 L13.3174236,47.7471834 L16.8332799,47.7471834 L16.8332799,32.8986844 Z M44.3301276,22.7196533 C44.325489,22.7213663 44.3207283,22.7229569 44.3160896,22.7245475 L44.3160896,47.747061 L47.2216054,47.747061 L47.2216054,47.5939938 C47.2216054,42.2016474 47.2218407,36.809301 47.2197655,31.4167099 C47.2197655,31.3415834 47.2021875,31.2613179 47.1728907,31.1919421 C46.181073,28.8455232 45.3464813,26.4445336 44.6707026,23.9881168 C44.5546141,23.565989 44.4434085,23.1425152 44.3301276,22.7196533 L44.3301276,22.7196533 Z M20.6734758,21.790605 C20.6635881,21.7937863 20.6554094,21.7943981 20.6547991,21.7969675 C20.5962056,22.0287096 20.5381003,22.260574 20.4803613,22.4925608 C19.7456227,25.4467214 18.7949426,28.3289367 17.6097663,31.1329666 C17.5639901,31.2414963 17.5392099,31.3675228 17.5390878,31.4853516 C17.5357919,36.8395229 17.5362547,42.1935719 17.5362547,47.5476209 L17.5362547,47.743268 L20.6734758,47.743268 L20.6734758,21.790605 Z M25.2476778,39.685888 L39.7346854,39.685888 L39.7346854,28.3389699 L25.2476778,28.3389699 L25.2476778,39.685888 Z M25.2539034,22.090744 L39.7365165,22.090744 L39.7365165,8.83397285 L25.2539034,8.83397285 L25.2539034,22.090744 Z M0.843592172,47.7682286 C0.906824363,47.7641908 0.969934484,47.7566048 1.0330446,47.7564824 C2.10725943,47.7558706 3.18135219,47.7537906 4.25556701,47.7588072 C4.40095222,47.7595413 4.50165986,47.723691 4.60761651,47.612959 C5.10761468,47.0902546 5.62873094,46.5882284 6.12811876,46.0650346 C8.02520656,44.0780973 9.74370614,41.9454342 11.2936272,39.6760995 C12.6569035,37.6802302 13.8717428,35.5969989 14.9437604,33.4301984 C16.6607951,29.9594513 17.9807366,26.34151 18.9466755,22.5922808 C19.4592468,20.6032635 19.882341,18.5945468 20.1663976,16.5605025 C20.3678128,15.118049 20.5072166,13.6670305 20.6729875,12.2196827 C20.6812883,12.1471256 20.6786027,12.0731003 20.6786027,11.9996868 C20.6788469,9.12689285 20.6811662,6.25409892 20.675551,3.381305 C20.6748186,3.05975372 20.6289203,2.7383248 20.6047504,2.41689588 C20.5996235,2.34886601 20.5876607,2.2792455 20.5963276,2.21256155 C20.63185,1.93970791 20.6740861,1.66758841 20.7165664,1.37711553 L22.1370935,1.37711553 L22.1370935,0.135570325 L23.7755152,0.135570325 L23.7755152,1.3691624 L25.2394991,1.3691624 L25.2394991,2.58378931 L39.7385917,2.58378931 L39.7385917,1.3763814 L41.1597291,1.3763814 L41.1597291,0 L42.7896059,0 L42.7896059,1.37087538 L44.3029061,1.37087538 L44.3029061,1.60628811 C44.3029061,5.80541988 44.2959481,10.0044293 44.3110847,14.203561 C44.3131599,14.7621157 44.4172855,15.3216492 44.4916261,15.8784908 C44.7041497,17.4681385 44.9939436,19.0442047 45.3394013,20.6102378 C46.1257754,24.1747095 47.2300194,27.6361576 48.681186,30.9854054 C50.2970248,34.7144458 52.3110555,38.212356 54.7442742,41.4662885 C56.0103828,43.1594493 57.3741474,44.7696528 58.8437465,46.2889459 C59.3056589,46.7666233 59.7745292,47.2373264 60.2452306,47.7061941 C60.2820957,47.7430233 60.3582673,47.7539129 60.4162505,47.7540353 C61.4904653,47.7567271 62.5646802,47.7561153 63.6387729,47.7561153 L63.8321316,47.7561153 C63.8371365,47.8067707 63.8435922,47.8395621 63.8435922,47.8725982 C63.8435922,48.5527745 63.8435922,49.2330733 63.8435922,49.9132497 C63.8435922,49.942248 63.8356716,49.971124 63.8316433,50 L0.843592172,50 L0.843592172,47.7682286 Z" id="Fill-1" fill="#FFFFFF" mask="url(#mask-2)"></path>
            </g>
        </g>
    </g>
</svg>