<?xml version="1.0" encoding="UTF-8"?>
<svg width="557px" height="485px" viewBox="0 0 557 485" version="1.1" xmlns="http://www.w3.org/2000/svg" xmlns:xlink="http://www.w3.org/1999/xlink">
    <!-- Generator: Sketch 60.1 (88133) - https://sketch.com -->
    <title>Group 48</title>
    <desc>Created with Sketch.</desc>
    <defs>
        <rect id="path-1" x="0.423085175" y="0" width="338.847458" height="196"></rect>
        <filter x="-24.5%" y="-28.1%" width="149.0%" height="184.7%" filterUnits="objectBoundingBox" id="filter-2">
            <feMorphology radius="7" operator="dilate" in="SourceAlpha" result="shadowSpreadOuter1"></feMorphology>
            <feOffset dx="0" dy="28" in="shadowSpreadOuter1" result="shadowOffsetOuter1"></feOffset>
            <feGaussianBlur stdDeviation="16" in="shadowOffsetOuter1" result="shadowBlurOuter1"></feGaussianBlur>
            <feColorMatrix values="0 0 0 0 0.00784313725   0 0 0 0 0.0901960784   0 0 0 0 0.498039216  0 0 0 0.198016827 0" type="matrix" in="shadowBlurOuter1"></feColorMatrix>
        </filter>
        <rect id="path-3" x="0.328513195" y="0" width="263.105085" height="152"></rect>
        <filter x="-20.3%" y="-28.0%" width="140.7%" height="170.4%" filterUnits="objectBoundingBox" id="filter-4">
            <feMorphology radius="4.5" operator="dilate" in="SourceAlpha" result="shadowSpreadOuter1"></feMorphology>
            <feOffset dx="0" dy="11" in="shadowSpreadOuter1" result="shadowOffsetOuter1"></feOffset>
            <feGaussianBlur stdDeviation="11.5" in="shadowOffsetOuter1" result="shadowBlurOuter1"></feGaussianBlur>
            <feColorMatrix values="0 0 0 0 0.00784313725   0 0 0 0 0.0901960784   0 0 0 0 0.498039216  0 0 0 0.254206731 0" type="matrix" in="shadowBlurOuter1"></feColorMatrix>
        </filter>
        <rect id="path-5" x="0.366931533" y="0" width="293.8742" height="169"></rect>
        <filter x="-18.2%" y="-25.1%" width="136.4%" height="163.3%" filterUnits="objectBoundingBox" id="filter-6">
            <feMorphology radius="4.5" operator="dilate" in="SourceAlpha" result="shadowSpreadOuter1"></feMorphology>
            <feOffset dx="0" dy="11" in="shadowSpreadOuter1" result="shadowOffsetOuter1"></feOffset>
            <feGaussianBlur stdDeviation="11.5" in="shadowOffsetOuter1" result="shadowBlurOuter1"></feGaussianBlur>
            <feColorMatrix values="0 0 0 0 0.00784313725   0 0 0 0 0.0901960784   0 0 0 0 0.498039216  0 0 0 0.25 0" type="matrix" in="shadowBlurOuter1"></feColorMatrix>
        </filter>
    </defs>
    <g id="RA-CAM" stroke="none" stroke-width="1" fill="none" fill-rule="evenodd">
        <g id="Main" transform="translate(-740.000000, -2740.000000)">
            <g id="Group-48" transform="translate(770.000000, 2744.000000)">
                <path d="M65.2586883,446.830778 C76.6362506,458.056068 141.080136,444.055886 176.186458,434.892382 C263.461844,412.111631 286.676187,395.261599 379.666495,353.130419 C567.67301,267.950184 411.705086,197.06924 422.320425,162.936325 C443.957848,93.3626286 200.092194,0 128.761795,0 C57.4313955,0 -4.18420892,312.61006 62.7290629,360.617592 C79.2385394,372.462465 37.1401669,419.088581 65.2586883,446.830778 Z" id="Mask" fill="#EDF2FD"></path>
                <g id="Group-32" transform="translate(68.000000, 14.000000)">
                    <g id="Group-29" transform="translate(0.739130, 0.000000)">
                        <g id="Group-21">
                            <g id="Rectangle">
                                <use fill="black" fill-opacity="1" filter="url(#filter-2)" xlink:href="#path-1"></use>
                                <use fill="#FFFFFF" fill-rule="evenodd" xlink:href="#path-1"></use>
                            </g>
                            <rect id="Rectangle" fill="#ECEEFA" x="0.423085175" y="0" width="18.440678" height="196"></rect>
                        </g>
                        <ellipse id="Oval" fill="#0058FF" cx="9.79661017" cy="10.9529412" rx="5.18644068" ry="5.18823529"></ellipse>
                        <ellipse id="Oval-Copy-4" fill="#BFC3D6" cx="9.22033898" cy="38.0470588" rx="3.45762712" ry="3.45882353"></ellipse>
                        <ellipse id="Oval-Copy-5" fill="#BFC3D6" cx="9.22033898" cy="51.8823529" rx="3.45762712" ry="3.45882353"></ellipse>
                        <ellipse id="Oval-Copy-6" fill="#BFC3D6" cx="9.22033898" cy="65.7176471" rx="3.45762712" ry="3.45882353"></ellipse>
                        <ellipse id="Oval-Copy-7" fill="#BFC3D6" cx="9.22033898" cy="79.5529412" rx="3.45762712" ry="3.45882353"></ellipse>
                    </g>
                    <g id="Group-31" transform="translate(75.739130, 56.000000)">
                        <g id="Group-30" transform="translate(0.000000, 31.355556)">
                            <rect id="Rectangle" stroke="#D6DCF8" x="0.5" y="0.5" width="213" height="18.6444444" rx="8.5"></rect>
                            <rect id="Rectangle" fill="#0058FF" x="2.30107527" y="2.31111111" width="149.569892" height="15.0222222" rx="7"></rect>
                        </g>
                        <path d="M71.7412581,10.5702222 L71.7412581,14.3222222 L70.3902581,14.3222222 L70.3902581,4.29122222 L73.3512581,4.29122222 C73.9859279,4.29122222 74.5377557,4.36472149 75.0067581,4.51172222 C75.4757604,4.65872296 75.8642565,4.8675542 76.1722581,5.13822222 C76.4802596,5.40889024 76.7100906,5.73555364 76.8617581,6.11822222 C77.0134255,6.5008908 77.0892581,6.92788653 77.0892581,7.39922222 C77.0892581,7.86589122 77.0075922,8.29288695 76.8442581,8.68022222 C76.6809239,9.06755749 76.4417596,9.40122082 76.1267581,9.68122222 C75.8117565,9.96122362 75.4209271,10.1793881 74.9542581,10.3357222 C74.4875891,10.4920563 73.9532611,10.5702222 73.3512581,10.5702222 L71.7412581,10.5702222 Z M71.7412581,9.49222222 L73.3512581,9.49222222 C73.7385933,9.49222222 74.0804232,9.4408894 74.3767581,9.33822222 C74.6730929,9.23555504 74.9215904,9.09205648 75.1222581,8.90772222 C75.3229257,8.72338797 75.4745909,8.50289017 75.5772581,8.24622222 C75.6799252,7.98955427 75.7312581,7.70722376 75.7312581,7.39922222 C75.7312581,6.75988569 75.5340934,6.26055735 75.1397581,5.90122222 C74.7454228,5.54188709 74.1492621,5.36222222 73.3512581,5.36222222 L71.7412581,5.36222222 L71.7412581,9.49222222 Z M79.6862581,7.23122222 L79.6862581,11.7532222 C79.6862581,12.2898916 79.8099235,12.7052208 80.0572581,12.9992222 C80.3045926,13.2932237 80.6779222,13.4402222 81.1772581,13.4402222 C81.5412599,13.4402222 81.8842565,13.3538898 82.2062581,13.1812222 C82.5282597,13.0085547 82.82459,12.7682238 83.0952581,12.4602222 L83.0952581,7.23122222 L84.3412581,7.23122222 L84.3412581,14.3222222 L83.5992581,14.3222222 C83.4219238,14.3222222 83.309925,14.2358898 83.2632581,14.0632222 L83.1652581,13.3002222 C82.8572565,13.6408906 82.5119266,13.9150545 82.1292581,14.1227222 C81.7465895,14.3303899 81.3079272,14.4342222 80.8132581,14.4342222 C80.4259228,14.4342222 80.0840929,14.3700562 79.7877581,14.2417222 C79.4914232,14.1133882 79.2429257,13.9325567 79.0422581,13.6992222 C78.8415904,13.4658877 78.6910919,13.1835572 78.5907581,12.8522222 C78.4904242,12.5208872 78.4402581,12.1545576 78.4402581,11.7532222 L78.4402581,7.23122222 L79.6862581,7.23122222 Z M86.4342581,14.3222222 L86.4342581,4.01122222 L87.6872581,4.01122222 L87.6872581,8.25322222 C87.9812595,7.91255385 88.3184228,7.63838993 88.6987581,7.43072222 C89.0790933,7.22305452 89.5142556,7.11922222 90.0042581,7.11922222 C90.4149268,7.11922222 90.7859231,7.19622145 91.1172581,7.35022222 C91.4485931,7.50422299 91.7309236,7.73405403 91.9642581,8.03972222 C92.1975926,8.34539042 92.3772574,8.72338664 92.5032581,9.17372222 C92.6292587,9.62405781 92.6922581,10.1432193 92.6922581,10.7312222 C92.6922581,11.2538915 92.6222588,11.7403866 92.4822581,12.1907222 C92.3422574,12.6410578 92.140426,13.0307206 91.8767581,13.3597222 C91.6130901,13.6887239 91.2910933,13.9477213 90.9107581,14.1367222 C90.5304228,14.3257232 90.1022604,14.4202222 89.6262581,14.4202222 C89.1689224,14.4202222 88.7804263,14.3315564 88.4607581,14.1542222 C88.1410898,13.976888 87.8622593,13.7295571 87.6242581,13.4122222 L87.5612581,14.0562222 C87.5239245,14.2335564 87.4165923,14.3222222 87.2392581,14.3222222 L86.4342581,14.3222222 Z M89.5982581,8.11322222 C89.192256,8.11322222 88.8364263,8.20655462 88.5307581,8.39322222 C88.2250899,8.57988982 87.943926,8.84355385 87.6872581,9.18422222 L87.6872581,12.6142222 C87.9112592,12.9222238 88.1597567,13.1392216 88.4327581,13.2652222 C88.7057594,13.3912229 89.0102564,13.4542222 89.3462581,13.4542222 C90.008928,13.4542222 90.5175896,13.2185579 90.8722581,12.7472222 C91.2269265,12.2758865 91.4042581,11.6038933 91.4042581,10.7312222 C91.4042581,10.2692199 91.3634251,9.87255721 91.2817581,9.54122222 C91.200091,9.20988723 91.0822588,8.93805662 90.9282581,8.72572222 C90.7742573,8.51338783 90.5852592,8.35822271 90.3612581,8.26022222 C90.1372569,8.16222173 89.8829262,8.11322222 89.5982581,8.11322222 Z M95.6042581,4.01122222 L95.6042581,14.3222222 L94.3582581,14.3222222 L94.3582581,4.01122222 L95.6042581,4.01122222 Z M99.1882581,7.23122222 L99.1882581,14.3222222 L97.9422581,14.3222222 L97.9422581,7.23122222 L99.1882581,7.23122222 Z M99.4682581,5.00522222 C99.4682581,5.12655616 99.4437583,5.2397217 99.3947581,5.34472222 C99.3457578,5.44972275 99.2804251,5.54305515 99.1987581,5.62472222 C99.117091,5.7063893 99.0225919,5.77055532 98.9152581,5.81722222 C98.8079242,5.86388912 98.693592,5.88722222 98.5722581,5.88722222 C98.4509241,5.88722222 98.3377586,5.86388912 98.2327581,5.81722222 C98.1277575,5.77055532 98.0344251,5.7063893 97.9527581,5.62472222 C97.871091,5.54305515 97.806925,5.44972275 97.7602581,5.34472222 C97.7135912,5.2397217 97.6902581,5.12655616 97.6902581,5.00522222 C97.6902581,4.88388828 97.7135912,4.76838944 97.7602581,4.65872222 C97.806925,4.54905501 97.871091,4.4533893 97.9527581,4.37172222 C98.0344251,4.29005515 98.1277575,4.22588912 98.2327581,4.17922222 C98.3377586,4.13255532 98.4509241,4.10922222 98.5722581,4.10922222 C98.693592,4.10922222 98.8079242,4.13255532 98.9152581,4.17922222 C99.0225919,4.22588912 99.117091,4.29005515 99.1987581,4.37172222 C99.2804251,4.4533893 99.3457578,4.54905501 99.3947581,4.65872222 C99.4437583,4.76838944 99.4682581,4.88388828 99.4682581,5.00522222 Z M105.446258,8.40022222 C105.390258,8.5028894 105.303925,8.55422222 105.187258,8.55422222 C105.117258,8.55422222 105.037925,8.52855581 104.949258,8.47722222 C104.860591,8.42588863 104.752092,8.36872254 104.623758,8.30572222 C104.495424,8.24272191 104.342592,8.18438916 104.165258,8.13072222 C103.987924,8.07705529 103.777926,8.05022222 103.535258,8.05022222 C103.325257,8.05022222 103.136259,8.07705529 102.968258,8.13072222 C102.800257,8.18438916 102.656759,8.25788842 102.537758,8.35122222 C102.418757,8.44455602 102.327758,8.55305494 102.264758,8.67672222 C102.201758,8.80038951 102.170258,8.93455483 102.170258,9.07922222 C102.170258,9.26122313 102.222758,9.41288828 102.327758,9.53422222 C102.432759,9.65555616 102.571591,9.76055511 102.744258,9.84922222 C102.916926,9.93788933 103.112924,10.0160552 103.332258,10.0837222 C103.551592,10.1513892 103.776757,10.2237218 104.007758,10.3007222 C104.238759,10.3777226 104.463924,10.4628884 104.683258,10.5562222 C104.902592,10.649556 105.098591,10.7662215 105.271258,10.9062222 C105.443926,11.0462229 105.582758,11.2177212 105.687758,11.4207222 C105.792759,11.6237232 105.845258,11.8675541 105.845258,12.1522222 C105.845258,12.4788905 105.786925,12.7810542 105.670258,13.0587222 C105.553591,13.3363903 105.380926,13.5767212 105.152258,13.7797222 C104.92359,13.9827232 104.643593,14.142555 104.312258,14.2592222 C103.980923,14.3758895 103.59826,14.4342222 103.164258,14.4342222 C102.669589,14.4342222 102.221593,14.353723 101.820258,14.1927222 C101.418923,14.0317214 101.078259,13.8252235 100.798258,13.5732222 L101.092258,13.0972222 C101.129592,13.0365553 101.173924,12.9898891 101.225258,12.9572222 C101.276592,12.9245554 101.344258,12.9082222 101.428258,12.9082222 C101.512258,12.9082222 101.600924,12.9408886 101.694258,13.0062222 C101.787592,13.0715559 101.900757,13.1438885 102.033758,13.2232222 C102.166759,13.302556 102.327757,13.3748886 102.516758,13.4402222 C102.705759,13.5055559 102.94259,13.5382222 103.227258,13.5382222 C103.469926,13.5382222 103.682257,13.5067225 103.864258,13.4437222 C104.046259,13.3807219 104.197924,13.2955561 104.319258,13.1882222 C104.440592,13.0808884 104.530424,12.9572229 104.588758,12.8172222 C104.647092,12.6772215 104.676258,12.5278897 104.676258,12.3692222 C104.676258,12.1732212 104.623759,12.0110562 104.518758,11.8827222 C104.413758,11.7543882 104.274926,11.6447227 104.102258,11.5537222 C103.929591,11.4627218 103.732426,11.3833892 103.510758,11.3157222 C103.28909,11.2480552 103.062759,11.1768893 102.831758,11.1022222 C102.600757,11.0275552 102.374426,10.9423894 102.152758,10.8467222 C101.93109,10.7510551 101.733926,10.6308896 101.561258,10.4862222 C101.388591,10.3415548 101.249759,10.1630566 101.144758,9.95072222 C101.039758,9.73838783 100.987258,9.48055707 100.987258,9.17722222 C100.987258,8.9065542 101.043258,8.64639014 101.155258,8.39672222 C101.267259,8.14705431 101.43059,7.92772317 101.645258,7.73872222 C101.859926,7.54972128 102.12359,7.39922278 102.436258,7.28722222 C102.748926,7.17522166 103.105923,7.11922222 103.507258,7.11922222 C103.973927,7.11922222 104.392756,7.19272149 104.763758,7.33972222 C105.13476,7.48672296 105.45559,7.68855427 105.726258,7.94522222 L105.446258,8.40022222 Z M107.462258,14.3222222 L107.462258,4.01122222 L108.708258,4.01122222 L108.708258,8.18322222 C109.011593,7.86122061 109.34759,7.60338986 109.716258,7.40972222 C110.084927,7.21605459 110.509589,7.11922222 110.990258,7.11922222 C111.377593,7.11922222 111.719423,7.18338825 112.015758,7.31172222 C112.312093,7.4400562 112.559424,7.62205438 112.757758,7.85772222 C112.956092,8.09339007 113.106591,8.37688723 113.209258,8.70822222 C113.311925,9.03955721 113.363258,9.40588688 113.363258,9.80722222 L113.363258,14.3222222 L112.117258,14.3222222 L112.117258,9.80722222 C112.117258,9.27055287 111.994759,8.85405704 111.749758,8.55772222 C111.504757,8.26138741 111.130261,8.11322222 110.626258,8.11322222 C110.25759,8.11322222 109.913426,8.201888 109.593758,8.37922222 C109.27409,8.55655644 108.978926,8.79688737 108.708258,9.10022222 L108.708258,14.3222222 L107.462258,14.3222222 Z M116.632258,7.23122222 L116.632258,14.3222222 L115.386258,14.3222222 L115.386258,7.23122222 L116.632258,7.23122222 Z M116.912258,5.00522222 C116.912258,5.12655616 116.887758,5.2397217 116.838758,5.34472222 C116.789758,5.44972275 116.724425,5.54305515 116.642758,5.62472222 C116.561091,5.7063893 116.466592,5.77055532 116.359258,5.81722222 C116.251924,5.86388912 116.137592,5.88722222 116.016258,5.88722222 C115.894924,5.88722222 115.781759,5.86388912 115.676758,5.81722222 C115.571758,5.77055532 115.478425,5.7063893 115.396758,5.62472222 C115.315091,5.54305515 115.250925,5.44972275 115.204258,5.34472222 C115.157591,5.2397217 115.134258,5.12655616 115.134258,5.00522222 C115.134258,4.88388828 115.157591,4.76838944 115.204258,4.65872222 C115.250925,4.54905501 115.315091,4.4533893 115.396758,4.37172222 C115.478425,4.29005515 115.571758,4.22588912 115.676758,4.17922222 C115.781759,4.13255532 115.894924,4.10922222 116.016258,4.10922222 C116.137592,4.10922222 116.251924,4.13255532 116.359258,4.17922222 C116.466592,4.22588912 116.561091,4.29005515 116.642758,4.37172222 C116.724425,4.4533893 116.789758,4.54905501 116.838758,4.65872222 C116.887758,4.76838944 116.912258,4.88388828 116.912258,5.00522222 Z M118.830258,14.3222222 L118.830258,7.23122222 L119.572258,7.23122222 C119.749592,7.23122222 119.861591,7.31755469 119.908258,7.49022222 L120.006258,8.26022222 C120.31426,7.91955385 120.658423,7.64422327 121.038758,7.43422222 C121.419093,7.22422117 121.858922,7.11922222 122.358258,7.11922222 C122.745593,7.11922222 123.087423,7.18338825 123.383758,7.31172222 C123.680093,7.4400562 123.927424,7.62205438 124.125758,7.85772222 C124.324092,8.09339007 124.474591,8.37688723 124.577258,8.70822222 C124.679925,9.03955721 124.731258,9.40588688 124.731258,9.80722222 L124.731258,14.3222222 L123.485258,14.3222222 L123.485258,9.80722222 C123.485258,9.27055287 123.362759,8.85405704 123.117758,8.55772222 C122.872757,8.26138741 122.498261,8.11322222 121.994258,8.11322222 C121.62559,8.11322222 121.281426,8.201888 120.961758,8.37922222 C120.64209,8.55655644 120.346926,8.79688737 120.076258,9.10022222 L120.076258,14.3222222 L118.830258,14.3222222 Z M129.001258,7.11222222 C129.30926,7.11222222 129.597423,7.14605522 129.865758,7.21372222 C130.134093,7.28138923 130.377924,7.3805549 130.597258,7.51122222 L132.522258,7.51122222 L132.522258,7.97322222 C132.522258,8.12722299 132.424259,8.22522201 132.228258,8.26722222 L131.423258,8.37922222 C131.581926,8.68255707 131.661258,9.02088702 131.661258,9.39422222 C131.661258,9.73955728 131.594759,10.0533875 131.461758,10.3357222 C131.328757,10.618057 131.144426,10.8595546 130.908758,11.0602222 C130.67309,11.2608899 130.393093,11.4148884 130.068758,11.5222222 C129.744423,11.6295561 129.388593,11.6832222 129.001258,11.6832222 C128.669923,11.6832222 128.35726,11.643556 128.063258,11.5642222 C127.913924,11.657556 127.800758,11.7578884 127.723758,11.8652222 C127.646758,11.9725561 127.608258,12.077555 127.608258,12.1802222 C127.608258,12.3482231 127.675924,12.4753885 127.811258,12.5617222 C127.946592,12.648056 128.126257,12.7098887 128.350258,12.7472222 C128.574259,12.7845557 128.82859,12.8078888 129.113258,12.8172222 C129.397926,12.8265556 129.688423,12.8417221 129.984758,12.8627222 C130.281093,12.8837223 130.57159,12.9198886 130.856258,12.9712222 C131.140926,13.0225558 131.395257,13.106555 131.619258,13.2232222 C131.843259,13.3398895 132.022924,13.5008879 132.158258,13.7062222 C132.293592,13.9115566 132.361258,14.1775539 132.361258,14.5042222 C132.361258,14.8075571 132.285425,15.1015541 132.133758,15.3862222 C131.982091,15.6708903 131.763926,15.9240544 131.479258,16.1457222 C131.19459,16.36739 130.846927,16.5447216 130.436258,16.6777222 C130.025589,16.8107229 129.561261,16.8772222 129.043258,16.8772222 C128.525255,16.8772222 128.071427,16.8258894 127.681758,16.7232222 C127.292089,16.620555 126.968926,16.4828898 126.712258,16.3102222 C126.45559,16.1375547 126.263092,15.9380567 126.134758,15.7117222 C126.006424,15.4853878 125.942258,15.2485568 125.942258,15.0012222 C125.942258,14.6512205 126.05309,14.3537234 126.274758,14.1087222 C126.496426,13.863721 126.800923,13.6688896 127.188258,13.5242222 C126.98759,13.4308884 126.827759,13.3060563 126.708758,13.1497222 C126.589757,12.9933881 126.530258,12.7845569 126.530258,12.5232222 C126.530258,12.420555 126.548925,12.3143894 126.586258,12.2047222 C126.623592,12.095055 126.680758,11.9865561 126.757758,11.8792222 C126.834758,11.7718884 126.929258,11.6692227 127.041258,11.5712222 C127.153259,11.4732217 127.283924,11.3868893 127.433258,11.3122222 C127.083256,11.1162212 126.809092,10.8560572 126.610758,10.5317222 C126.412424,10.2073873 126.313258,9.82822439 126.313258,9.39422222 C126.313258,9.04888716 126.379757,8.73505697 126.512758,8.45272222 C126.645759,8.17038748 126.831257,7.93005655 127.069258,7.73172222 C127.307259,7.5333879 127.590756,7.38055609 127.919758,7.27322222 C128.24876,7.16588835 128.609256,7.11222222 129.001258,7.11222222 Z M131.213258,14.7072222 C131.213258,14.529888 131.164259,14.3875561 131.066258,14.2802222 C130.968258,14.1728884 130.835259,14.0900558 130.667258,14.0317222 C130.499257,13.9733886 130.305592,13.9302224 130.086258,13.9022222 C129.866924,13.8742221 129.635926,13.8543889 129.393258,13.8427222 C129.15059,13.8310555 128.903259,13.8182223 128.651258,13.8042222 C128.399257,13.7902222 128.158926,13.7645557 127.930258,13.7272222 C127.664257,13.8532229 127.448426,14.0072213 127.282758,14.1892222 C127.117091,14.3712231 127.034258,14.588221 127.034258,14.8402222 C127.034258,14.9988897 127.075091,15.1470549 127.156758,15.2847222 C127.238425,15.4223896 127.363257,15.5413884 127.531258,15.6417222 C127.699259,15.7420561 127.910423,15.8213886 128.164758,15.8797222 C128.419093,15.9380558 128.718923,15.9672222 129.064258,15.9672222 C129.40026,15.9672222 129.701257,15.9368892 129.967258,15.8762222 C130.233259,15.8155553 130.458424,15.7292228 130.642758,15.6172222 C130.827092,15.5052217 130.968258,15.372223 131.066258,15.2182222 C131.164259,15.0642215 131.213258,14.8938898 131.213258,14.7072222 Z M129.001258,10.8572222 C129.253259,10.8572222 129.47609,10.8222226 129.669758,10.7522222 C129.863426,10.6822219 130.025591,10.5842229 130.156258,10.4582222 C130.286925,10.3322216 130.384924,10.1817231 130.450258,10.0067222 C130.515592,9.83172135 130.548258,9.63922327 130.548258,9.42922222 C130.548258,8.99522005 130.416426,8.64989017 130.152758,8.39322222 C129.88909,8.13655427 129.505261,8.00822222 129.001258,8.00822222 C128.501922,8.00822222 128.120426,8.13655427 127.856758,8.39322222 C127.59309,8.64989017 127.461258,8.99522005 127.461258,9.42922222 C127.461258,9.63922327 127.495091,9.83172135 127.562758,10.0067222 C127.630425,10.1817231 127.729591,10.3322216 127.860258,10.4582222 C127.990925,10.5842229 128.151924,10.6822219 128.343258,10.7522222 C128.534592,10.8222226 128.753923,10.8572222 129.001258,10.8572222 Z" id="Publishing" fill="#A0A5C2" fill-rule="nonzero"></path>
                    </g>
                </g>
                <g id="Group-40" transform="translate(0.000000, 201.000000)">
                    <g id="Group-36" transform="translate(0.717391, 0.000000)">
                        <g id="Group-21-Copy-2">
                            <g id="Rectangle">
                                <use fill="black" fill-opacity="1" filter="url(#filter-4)" xlink:href="#path-3"></use>
                                <use fill="#FFFFFF" fill-rule="evenodd" xlink:href="#path-3"></use>
                            </g>
                            <rect id="Rectangle" fill="#ECEEFA" x="0.328513195" y="0" width="14.3186441" height="152"></rect>
                        </g>
                        <path d="M251.101695,12.6529412 C250.755027,12.6529412 250.43503,12.5546088 250.141695,12.3579412 C249.84836,12.1612735 249.616696,11.8962762 249.446695,11.5629412 C249.276694,11.2296062 249.191695,10.8629432 249.191695,10.4629412 C249.191695,10.0629392 249.276694,9.69627618 249.446695,9.36294118 C249.616696,9.02960618 249.84836,8.76460883 250.141695,8.56794118 C250.43503,8.37127353 250.755027,8.27294118 251.101695,8.27294118 C251.448363,8.27294118 251.76836,8.37127353 252.061695,8.56794118 C252.35503,8.76460883 252.586694,9.02960618 252.756695,9.36294118 C252.926696,9.69627618 253.011695,10.0629392 253.011695,10.4629412 C253.011695,10.8629432 252.926696,11.2296062 252.756695,11.5629412 C252.586694,11.8962762 252.35503,12.1612735 252.061695,12.3579412 C251.76836,12.5546088 251.448363,12.6529412 251.101695,12.6529412 Z M250.051695,9.87294118 C249.838361,10.1329425 249.731695,10.4229396 249.731695,10.7429412 C249.731695,10.9896091 249.793361,11.2162735 249.916695,11.4229412 C250.040029,11.6296089 250.206694,11.7946072 250.416695,11.9179412 C250.626696,12.0412751 250.855027,12.1029412 251.101695,12.1029412 C251.348363,12.1029412 251.576694,12.0412751 251.786695,11.9179412 C251.996696,11.7946072 252.163361,11.6296089 252.286695,11.4229412 C252.410029,11.2162735 252.471695,10.9896091 252.471695,10.7429412 C252.471695,10.6096072 252.338363,10.5229414 252.071695,10.4829412 C251.918361,10.4629411 251.661697,10.4562745 251.301695,10.4629412 L251.101695,10.4629412 C250.855027,10.4629412 250.635029,10.4079417 250.441695,10.2979412 C250.248361,10.1879406 250.118362,10.0462754 250.051695,9.87294118 Z M254.381695,14.8429412 L254.381695,16.4829412 C254.381695,16.6362753 254.328362,16.766274 254.221695,16.8729412 C254.115028,16.9796084 253.985029,17.0329412 253.831695,17.0329412 L248.371695,17.0329412 C248.218361,17.0329412 248.088362,16.9796084 247.981695,16.8729412 C247.875028,16.766274 247.821695,16.6362753 247.821695,16.4829412 L247.821695,14.8429412 C247.821695,14.5429397 247.895028,14.2679424 248.041695,14.0179412 C248.188362,13.7679399 248.386694,13.5696086 248.636695,13.4229412 C248.886696,13.2762738 249.161693,13.2029412 249.461695,13.2029412 L250.711695,13.2029412 L250.591695,13.3129412 C250.565028,13.339608 250.551695,13.3746076 250.551695,13.4179412 C250.551695,13.4612747 250.565028,13.4996077 250.591695,13.5329412 L250.851695,13.7729412 C250.885028,13.8062747 250.908362,13.8462743 250.921695,13.8929412 C250.935028,13.9396081 250.931695,13.9796077 250.911695,14.0129412 L250.411695,15.2429412 C250.398362,15.2762747 250.393362,15.3196076 250.396695,15.3729412 C250.400028,15.4262748 250.415028,15.4662744 250.441695,15.4929412 L251.021695,16.3429412 C251.041695,16.3762747 251.068361,16.3929412 251.101695,16.3929412 C251.135028,16.3929412 251.165028,16.3762747 251.191695,16.3429412 L251.761695,15.4929412 C251.788362,15.4662744 251.803362,15.4262748 251.806695,15.3729412 C251.810028,15.3196076 251.805028,15.2762747 251.791695,15.2429412 L251.291695,14.0129412 C251.271695,13.9796077 251.268362,13.9396081 251.281695,13.8929412 C251.295028,13.8462743 251.318361,13.8062747 251.351695,13.7729412 L251.611695,13.5329412 C251.645028,13.4996077 251.661695,13.4612747 251.661695,13.4179412 C251.661695,13.3746076 251.645028,13.339608 251.611695,13.3129412 L251.491695,13.2029412 L252.741695,13.2029412 C253.041696,13.2029412 253.316694,13.2762738 253.566695,13.4229412 C253.816696,13.5696086 254.015028,13.7679399 254.161695,14.0179412 C254.308362,14.2679424 254.381695,14.5429397 254.381695,14.8429412 Z" id="" fill="#B7C5D9" fill-rule="nonzero"></path>
                        <ellipse id="Oval-Copy-15" fill="#0058FF" cx="7.60677966" cy="8.49411765" rx="4.02711864" ry="4.02352941"></ellipse>
                        <ellipse id="Oval-Copy-16" fill="#BFC3D6" cx="7.15932203" cy="29.5058824" rx="2.68474576" ry="2.68235294"></ellipse>
                        <ellipse id="Oval-Copy-17" fill="#BFC3D6" cx="7.15932203" cy="40.2352941" rx="2.68474576" ry="2.68235294"></ellipse>
                        <ellipse id="Oval-Copy-18" fill="#BFC3D6" cx="7.15932203" cy="50.9647059" rx="2.68474576" ry="2.68235294"></ellipse>
                        <ellipse id="Oval-Copy-19" fill="#BFC3D6" cx="7.15932203" cy="61.6941176" rx="2.68474576" ry="2.68235294"></ellipse>
                    </g>
                    <circle id="Oval" fill="#FFFEFE" cx="139.217391" cy="54.5" r="13.5"></circle>
                    <g id="Group-43" transform="translate(109.717391, 42.000000)">
                        <g id="Group-38">
                            <rect id="Rectangle" fill="#FFD81D" x="0" y="0" width="48" height="70"></rect>
                            <g id="Group-37" transform="translate(2.666667, 27.187894)">
                                <ellipse id="Oval-Copy-20" fill="#FF8D31" cx="8.44444444" cy="9.15825977" rx="8.44444444" ry="8.52564103"></ellipse>
                                <rect id="Rectangle" fill="#0058FF" x="14.2222222" y="22.1710803" width="25.7777778" height="15.2564103"></rect>
                            </g>
                        </g>
                        <ellipse id="Oval" fill="#FFFEFE" cx="29.3333333" cy="15.7566204" rx="13.3333333" ry="13.4615385"></ellipse>
                    </g>
                    <path d="M92.5223913,25 L91.5523913,25 L91.5523913,17.835 L92.5223913,17.835 L92.5223913,25 Z M95.8373913,25.08 C95.4373893,25.08 95.1298924,24.9683345 94.9148913,24.745 C94.6998902,24.5216656 94.5923913,24.2000021 94.5923913,23.78 L94.5923913,20.68 L93.9823913,20.68 C93.9290577,20.68 93.8840582,20.6641668 93.8473913,20.6325 C93.8107245,20.6008332 93.7923913,20.551667 93.7923913,20.485 L93.7923913,20.13 L94.6223913,20.025 L94.8273913,18.46 C94.834058,18.4099998 94.8557245,18.3691668 94.8923913,18.3375 C94.9290582,18.3058332 94.9757244,18.29 95.0323913,18.29 L95.4823913,18.29 L95.4823913,20.035 L96.9323913,20.035 L96.9323913,20.68 L95.4823913,20.68 L95.4823913,23.72 C95.4823913,23.9333344 95.5340575,24.0916662 95.6373913,24.195 C95.7407252,24.2983338 95.8740572,24.35 96.0373913,24.35 C96.1307251,24.35 96.2115576,24.3375001 96.2798913,24.3125 C96.348225,24.2874999 96.4073911,24.2600001 96.4573913,24.23 C96.5073916,24.1999999 96.5498911,24.1725001 96.5848913,24.1475 C96.6198915,24.1224999 96.6507245,24.11 96.6773913,24.11 C96.7240582,24.11 96.7657245,24.138333 96.8023913,24.195 L97.0623913,24.62 C96.9090572,24.7633341 96.7240591,24.8758329 96.5073913,24.9575 C96.2907236,25.0391671 96.0673925,25.08 95.8373913,25.08 Z M98.6573913,17.46 C98.7540585,17.6200008 98.8240578,17.7799992 98.8673913,17.94 C98.9107249,18.1000008 98.9323913,18.2599992 98.9323913,18.42 C98.9323913,18.7233349 98.8582254,19.0124986 98.7098913,19.2875 C98.5615572,19.5625014 98.355726,19.8149989 98.0923913,20.045 L97.8173913,19.875 C97.7907245,19.8583333 97.7732247,19.8400001 97.7648913,19.82 C97.7565579,19.7999999 97.7523913,19.7800001 97.7523913,19.76 C97.7523913,19.7133331 97.7690578,19.6733335 97.8023913,19.64 C97.8557249,19.5766663 97.9073911,19.5075004 97.9573913,19.4325 C98.0073916,19.3574996 98.0523911,19.2791671 98.0923913,19.1975 C98.1323915,19.1158329 98.1640579,19.0300004 98.1873913,18.94 C98.2107248,18.8499995 98.2223913,18.7550005 98.2223913,18.655 C98.2223913,18.5483328 98.2065581,18.4383339 98.1748913,18.325 C98.1432245,18.2116661 98.0890584,18.0916673 98.0123913,17.965 C97.9890579,17.9283332 97.9773913,17.8916669 97.9773913,17.855 C97.9773913,17.7749996 98.0223909,17.7166668 98.1123913,17.68 L98.6573913,17.46 Z M103.052391,20.77 C103.012391,20.8433337 102.950725,20.88 102.867391,20.88 C102.817391,20.88 102.760725,20.8616668 102.697391,20.825 C102.634058,20.7883331 102.556558,20.7475002 102.464891,20.7025 C102.373224,20.6574998 102.264059,20.6158335 102.137391,20.5775 C102.010724,20.5391665 101.860726,20.52 101.687391,20.52 C101.537391,20.52 101.402392,20.5391665 101.282391,20.5775 C101.162391,20.6158335 101.059892,20.668333 100.974891,20.735 C100.889891,20.801667 100.824892,20.8791662 100.779891,20.9675 C100.734891,21.0558338 100.712391,21.1516662 100.712391,21.255 C100.712391,21.3850006 100.749891,21.4933329 100.824891,21.58 C100.899892,21.6666671 100.999057,21.7416663 101.122391,21.805 C101.245725,21.8683337 101.385724,21.9241664 101.542391,21.9725 C101.699059,22.0208336 101.85989,22.0724997 102.024891,22.1275 C102.189892,22.1825003 102.350724,22.243333 102.507391,22.31 C102.664059,22.376667 102.804057,22.4599995 102.927391,22.56 C103.050725,22.6600005 103.149891,22.7824993 103.224891,22.9275 C103.299892,23.0725007 103.337391,23.2466657 103.337391,23.45 C103.337391,23.6833345 103.295725,23.8991657 103.212391,24.0975 C103.129058,24.2958343 103.005725,24.4674993 102.842391,24.6125 C102.679057,24.7575007 102.479059,24.8716663 102.242391,24.955 C102.005723,25.0383337 101.732391,25.08 101.422391,25.08 C101.069056,25.08 100.749059,25.0225006 100.462391,24.9075 C100.175723,24.7924994 99.9323923,24.6450009 99.7323913,24.465 L99.9423913,24.125 C99.9690581,24.0816665 100.000724,24.0483335 100.037391,24.025 C100.074058,24.0016665 100.122391,23.99 100.182391,23.99 C100.242392,23.99 100.305724,24.0133331 100.372391,24.06 C100.439058,24.1066669 100.519891,24.158333 100.614891,24.215 C100.709892,24.271667 100.824891,24.3233331 100.959891,24.37 C101.094892,24.4166669 101.264057,24.44 101.467391,24.44 C101.640726,24.44 101.792391,24.4175002 101.922391,24.3725 C102.052392,24.3274998 102.160724,24.266667 102.247391,24.19 C102.334058,24.113333 102.398224,24.0250005 102.439891,23.925 C102.481558,23.8249995 102.502391,23.7183339 102.502391,23.605 C102.502391,23.4649993 102.464892,23.3491671 102.389891,23.2575 C102.314891,23.1658329 102.215725,23.0875003 102.092391,23.0225 C101.969057,22.9574997 101.828225,22.9008336 101.669891,22.8525 C101.511557,22.8041664 101.349892,22.7533336 101.184891,22.7 C101.01989,22.6466664 100.858225,22.5858337 100.699891,22.5175 C100.541557,22.4491663 100.400725,22.3633339 100.277391,22.26 C100.154057,22.1566661 100.054892,22.0291674 99.9798913,21.8775 C99.9048909,21.7258326 99.8673913,21.5416678 99.8673913,21.325 C99.8673913,21.1316657 99.9073909,20.9458342 99.9873913,20.7675 C100.067392,20.5891658 100.184057,20.4325007 100.337391,20.2975 C100.490725,20.1624993 100.679057,20.0550004 100.902391,19.975 C101.125726,19.8949996 101.380723,19.855 101.667391,19.855 C102.000726,19.855 102.29989,19.9074995 102.564891,20.0125 C102.829893,20.1175005 103.059057,20.2616657 103.252391,20.445 L103.052391,20.77 Z M109.987391,25 C109.860724,25 109.780725,24.938334 109.747391,24.815 L109.667391,24.2 C109.450724,24.4633347 109.203226,24.6741659 108.924891,24.8325 C108.646557,24.9908341 108.327393,25.07 107.967391,25.07 C107.67739,25.07 107.414059,25.0141672 107.177391,24.9025 C106.940723,24.7908328 106.739059,24.6266677 106.572391,24.41 C106.405724,24.1933323 106.277392,23.923335 106.187391,23.6 C106.097391,23.276665 106.052391,22.9050021 106.052391,22.485 C106.052391,22.1116648 106.102391,21.7641683 106.202391,21.4425 C106.302392,21.1208317 106.446557,20.8416679 106.634891,20.605 C106.823226,20.3683322 107.052391,20.1825007 107.322391,20.0475 C107.592393,19.9124993 107.899056,19.845 108.242391,19.845 C108.552391,19.845 108.81739,19.8974995 109.037391,20.0025 C109.257392,20.1075005 109.454057,20.2549991 109.627391,20.445 L109.627391,17.635 L110.517391,17.635 L110.517391,25 L109.987391,25 Z M108.262391,24.35 C108.552393,24.35 108.806557,24.283334 109.024891,24.15 C109.243226,24.016666 109.444057,23.8283346 109.627391,23.585 L109.627391,21.135 C109.464057,20.9149989 109.284892,20.7608338 109.089891,20.6725 C108.89489,20.5841662 108.679059,20.54 108.442391,20.54 C107.969056,20.54 107.605726,20.7083316 107.352391,21.045 C107.099057,21.3816683 106.972391,21.8616635 106.972391,22.485 C106.972391,22.8150016 107.000724,23.0974988 107.057391,23.3325 C107.114058,23.5675012 107.197391,23.7608326 107.307391,23.9125 C107.417392,24.0641674 107.552391,24.1749996 107.712391,24.245 C107.872392,24.3150003 108.055724,24.35 108.262391,24.35 Z M114.062391,19.855 C114.432393,19.855 114.766556,19.916666 115.064891,20.04 C115.363226,20.163334 115.616557,20.3383322 115.824891,20.565 C116.033226,20.7916678 116.193224,21.0658317 116.304891,21.3875 C116.416559,21.7091683 116.472391,22.0683314 116.472391,22.465 C116.472391,22.865002 116.416559,23.2249984 116.304891,23.545 C116.193224,23.8650016 116.033226,24.1383322 115.824891,24.365 C115.616557,24.5916678 115.363226,24.7658327 115.064891,24.8875 C114.766556,25.0091673 114.432393,25.07 114.062391,25.07 C113.692389,25.07 113.358226,25.0091673 113.059891,24.8875 C112.761556,24.7658327 112.507392,24.5916678 112.297391,24.365 C112.08739,24.1383322 111.925725,23.8650016 111.812391,23.545 C111.699057,23.2249984 111.642391,22.865002 111.642391,22.465 C111.642391,22.0683314 111.699057,21.7091683 111.812391,21.3875 C111.925725,21.0658317 112.08739,20.7916678 112.297391,20.565 C112.507392,20.3383322 112.761556,20.163334 113.059891,20.04 C113.358226,19.916666 113.692389,19.855 114.062391,19.855 Z M114.062391,24.375 C114.562391,24.375 114.935723,24.2075017 115.182391,23.8725 C115.429059,23.5374983 115.552391,23.070003 115.552391,22.47 C115.552391,21.8666636 115.429059,21.3966683 115.182391,21.06 C114.935723,20.7233316 114.562391,20.555 114.062391,20.555 C113.809057,20.555 113.589059,20.5983329 113.402391,20.685 C113.215724,20.7716671 113.059892,20.8966658 112.934891,21.06 C112.809891,21.2233341 112.716558,21.4241655 112.654891,21.6625 C112.593224,21.9008345 112.562391,22.1699985 112.562391,22.47 C112.562391,22.7700015 112.593224,23.0383321 112.654891,23.275 C112.716558,23.5116679 112.809891,23.7108325 112.934891,23.8725 C113.059892,24.0341675 113.215724,24.1583329 113.402391,24.245 C113.589059,24.3316671 113.809057,24.375 114.062391,24.375 Z M117.572391,25 L117.572391,19.935 L118.102391,19.935 C118.229059,19.935 118.309058,19.9966661 118.342391,20.12 L118.412391,20.67 C118.632392,20.4266655 118.878223,20.2300007 119.149891,20.08 C119.421559,19.9299993 119.735723,19.855 120.092391,19.855 C120.369059,19.855 120.613224,19.9008329 120.824891,19.9925 C121.036559,20.0841671 121.213224,20.2141658 121.354891,20.3825 C121.496559,20.5508342 121.604058,20.7533321 121.677391,20.99 C121.750725,21.2266678 121.787391,21.4883319 121.787391,21.775 L121.787391,25 L120.897391,25 L120.897391,21.775 C120.897391,21.3916648 120.809892,21.0941677 120.634891,20.8825 C120.45989,20.6708323 120.192393,20.565 119.832391,20.565 C119.569057,20.565 119.323226,20.6283327 119.094891,20.755 C118.866557,20.8816673 118.655726,21.0533323 118.462391,21.27 L118.462391,25 L117.572391,25 Z M125.137391,19.855 C125.440726,19.855 125.720723,19.9058328 125.977391,20.0075 C126.234059,20.1091672 126.455724,20.2558324 126.642391,20.4475 C126.829059,20.6391676 126.974891,20.8758319 127.079891,21.1575 C127.184892,21.4391681 127.237391,21.7599982 127.237391,22.12 C127.237391,22.2600007 127.222391,22.3533331 127.192391,22.4 C127.162391,22.4466669 127.105725,22.47 127.022391,22.47 L123.652391,22.47 C123.659058,22.7900016 123.702391,23.0683321 123.782391,23.305 C123.862392,23.5416678 123.972391,23.7391659 124.112391,23.8975 C124.252392,24.0558341 124.419057,24.1741663 124.612391,24.2525 C124.805726,24.3308337 125.02239,24.37 125.262391,24.37 C125.485726,24.37 125.678224,24.3441669 125.839891,24.2925 C126.001559,24.2408331 126.140724,24.1850003 126.257391,24.125 C126.374059,24.0649997 126.471558,24.0091669 126.549891,23.9575 C126.628225,23.9058331 126.695724,23.88 126.752391,23.88 C126.825725,23.88 126.882391,23.908333 126.922391,23.965 L127.172391,24.29 C127.062391,24.423334 126.930725,24.5391662 126.777391,24.6375 C126.624057,24.7358338 126.459892,24.8166663 126.284891,24.88 C126.10989,24.9433336 125.929059,24.9908332 125.742391,25.0225 C125.555724,25.0541668 125.370726,25.07 125.187391,25.07 C124.83739,25.07 124.514893,25.0108339 124.219891,24.8925 C123.92489,24.7741661 123.669892,24.6008345 123.454891,24.3725 C123.23989,24.1441655 123.072392,23.8616684 122.952391,23.525 C122.832391,23.1883317 122.772391,22.8016688 122.772391,22.365 C122.772391,22.0116649 122.826557,21.6816682 122.934891,21.375 C123.043225,21.0683318 123.199057,20.8025011 123.402391,20.5775 C123.605726,20.3524989 123.854057,20.175834 124.147391,20.0475 C124.440726,19.919166 124.770723,19.855 125.137391,19.855 Z M125.157391,20.51 C124.727389,20.51 124.389059,20.6341654 124.142391,20.8825 C123.895723,21.1308346 123.742392,21.4749978 123.682391,21.915 L126.437391,21.915 C126.437391,21.7083323 126.409058,21.5191675 126.352391,21.3475 C126.295724,21.1758325 126.212392,21.0275006 126.102391,20.9025 C125.992391,20.7774994 125.858225,20.6808337 125.699891,20.6125 C125.541557,20.5441663 125.360726,20.51 125.157391,20.51 Z M128.112391,24.385 C128.112391,24.308333 128.126558,24.2358337 128.154891,24.1675 C128.183225,24.0991663 128.223224,24.0391669 128.274891,23.9875 C128.326558,23.9358331 128.389058,23.8950002 128.462391,23.865 C128.535725,23.8349999 128.615724,23.82 128.702391,23.82 C128.802392,23.82 128.891558,23.8383332 128.969891,23.875 C129.048225,23.9116668 129.113224,23.9624997 129.164891,24.0275 C129.216558,24.0925003 129.255725,24.1674996 129.282391,24.2525 C129.309058,24.3375004 129.322391,24.4299995 129.322391,24.53 C129.322391,24.6800007 129.300725,24.8358325 129.257391,24.9975 C129.214058,25.1591675 129.152392,25.3191659 129.072391,25.4775 C128.992391,25.6358341 128.893225,25.7899993 128.774891,25.94 C128.656557,26.0900008 128.522392,26.2283327 128.372391,26.355 L128.222391,26.21 C128.179058,26.1699998 128.157391,26.1233336 128.157391,26.07 C128.157391,26.0266665 128.180724,25.9816669 128.227391,25.935 C128.260725,25.8983331 128.303224,25.849167 128.354891,25.7875 C128.406558,25.725833 128.459058,25.6550004 128.512391,25.575 C128.565725,25.4949996 128.614891,25.4066672 128.659891,25.31 C128.704892,25.2133329 128.737391,25.1100006 128.757391,25 L128.692391,25 C128.605724,25 128.527392,24.9850002 128.457391,24.955 C128.387391,24.9249998 128.326558,24.8825003 128.274891,24.8275 C128.223224,24.7724997 128.183225,24.7075004 128.154891,24.6325 C128.126558,24.5574996 128.112391,24.4750004 128.112391,24.385 Z M133.957391,25.08 C133.557389,25.08 133.249892,24.9683345 133.034891,24.745 C132.81989,24.5216656 132.712391,24.2000021 132.712391,23.78 L132.712391,20.68 L132.102391,20.68 C132.049058,20.68 132.004058,20.6641668 131.967391,20.6325 C131.930724,20.6008332 131.912391,20.551667 131.912391,20.485 L131.912391,20.13 L132.742391,20.025 L132.947391,18.46 C132.954058,18.4099998 132.975724,18.3691668 133.012391,18.3375 C133.049058,18.3058332 133.095724,18.29 133.152391,18.29 L133.602391,18.29 L133.602391,20.035 L135.052391,20.035 L135.052391,20.68 L133.602391,20.68 L133.602391,23.72 C133.602391,23.9333344 133.654057,24.0916662 133.757391,24.195 C133.860725,24.2983338 133.994057,24.35 134.157391,24.35 C134.250725,24.35 134.331558,24.3375001 134.399891,24.3125 C134.468225,24.2874999 134.527391,24.2600001 134.577391,24.23 C134.627392,24.1999999 134.669891,24.1725001 134.704891,24.1475 C134.739891,24.1224999 134.770725,24.11 134.797391,24.11 C134.844058,24.11 134.885724,24.138333 134.922391,24.195 L135.182391,24.62 C135.029057,24.7633341 134.844059,24.8758329 134.627391,24.9575 C134.410724,25.0391671 134.187392,25.08 133.957391,25.08 Z M136.152391,25 L136.152391,19.935 L136.662391,19.935 C136.759058,19.935 136.825724,19.9533331 136.862391,19.99 C136.899058,20.0266668 136.924058,20.0899996 136.937391,20.18 L136.997391,20.97 C137.170726,20.6166649 137.38489,20.3408343 137.639891,20.1425 C137.894893,19.9441657 138.194056,19.845 138.537391,19.845 C138.677392,19.845 138.804057,19.8608332 138.917391,19.8925 C139.030725,19.9241668 139.135724,19.968333 139.232391,20.025 L139.117391,20.69 C139.094058,20.7733337 139.042392,20.815 138.962391,20.815 C138.915724,20.815 138.844058,20.7991668 138.747391,20.7675 C138.650724,20.7358332 138.515726,20.72 138.342391,20.72 C138.03239,20.72 137.773226,20.8099991 137.564891,20.99 C137.356557,21.1700009 137.182392,21.4316649 137.042391,21.775 L137.042391,25 L136.152391,25 Z M141.667391,26.495 C141.637391,26.561667 141.599892,26.6149998 141.554891,26.655 C141.509891,26.6950002 141.440725,26.715 141.347391,26.715 L140.687391,26.715 L141.612391,24.705 L139.522391,19.935 L140.292391,19.935 C140.369058,19.935 140.429058,19.9541665 140.472391,19.9925 C140.515725,20.0308335 140.547391,20.0733331 140.567391,20.12 L141.922391,23.31 C141.952391,23.3833337 141.978225,23.4566663 141.999891,23.53 C142.021558,23.6033337 142.040725,23.6783329 142.057391,23.755 C142.080725,23.6783329 142.104058,23.6033337 142.127391,23.53 C142.150725,23.4566663 142.177391,23.3816671 142.207391,23.305 L143.522391,20.12 C143.542391,20.0666664 143.576558,20.0225002 143.624891,19.9875 C143.673225,19.9524998 143.725724,19.935 143.782391,19.935 L144.492391,19.935 L141.667391,26.495 Z M148.222391,19.935 L148.222391,25 L147.332391,25 L147.332391,19.935 L148.222391,19.935 Z M148.422391,18.345 C148.422391,18.4316671 148.404891,18.5124996 148.369891,18.5875 C148.334891,18.6625004 148.288225,18.7291664 148.229891,18.7875 C148.171558,18.8458336 148.104058,18.8916665 148.027391,18.925 C147.950724,18.9583335 147.869058,18.975 147.782391,18.975 C147.695724,18.975 147.614892,18.9583335 147.539891,18.925 C147.464891,18.8916665 147.398225,18.8458336 147.339891,18.7875 C147.281558,18.7291664 147.235725,18.6625004 147.202391,18.5875 C147.169058,18.5124996 147.152391,18.4316671 147.152391,18.345 C147.152391,18.2583329 147.169058,18.1758337 147.202391,18.0975 C147.235725,18.0191663 147.281558,17.9508336 147.339891,17.8925 C147.398225,17.8341664 147.464891,17.7883335 147.539891,17.755 C147.614892,17.7216665 147.695724,17.705 147.782391,17.705 C147.869058,17.705 147.950724,17.7216665 148.027391,17.755 C148.104058,17.7883335 148.171558,17.8341664 148.229891,17.8925 C148.288225,17.9508336 148.334891,18.0191663 148.369891,18.0975 C148.404891,18.1758337 148.422391,18.2583329 148.422391,18.345 Z M151.327391,25.08 C150.927389,25.08 150.619892,24.9683345 150.404891,24.745 C150.18989,24.5216656 150.082391,24.2000021 150.082391,23.78 L150.082391,20.68 L149.472391,20.68 C149.419058,20.68 149.374058,20.6641668 149.337391,20.6325 C149.300724,20.6008332 149.282391,20.551667 149.282391,20.485 L149.282391,20.13 L150.112391,20.025 L150.317391,18.46 C150.324058,18.4099998 150.345724,18.3691668 150.382391,18.3375 C150.419058,18.3058332 150.465724,18.29 150.522391,18.29 L150.972391,18.29 L150.972391,20.035 L152.422391,20.035 L152.422391,20.68 L150.972391,20.68 L150.972391,23.72 C150.972391,23.9333344 151.024057,24.0916662 151.127391,24.195 C151.230725,24.2983338 151.364057,24.35 151.527391,24.35 C151.620725,24.35 151.701558,24.3375001 151.769891,24.3125 C151.838225,24.2874999 151.897391,24.2600001 151.947391,24.23 C151.997392,24.1999999 152.039891,24.1725001 152.074891,24.1475 C152.109891,24.1224999 152.140725,24.11 152.167391,24.11 C152.214058,24.11 152.255724,24.138333 152.292391,24.195 L152.552391,24.62 C152.399057,24.7633341 152.214059,24.8758329 151.997391,24.9575 C151.780724,25.0391671 151.557392,25.08 151.327391,25.08 Z M155.452391,25 L155.452391,19.935 L155.982391,19.935 C156.109059,19.935 156.189058,19.9966661 156.222391,20.12 L156.292391,20.67 C156.512392,20.4266655 156.758223,20.2300007 157.029891,20.08 C157.301559,19.9299993 157.615723,19.855 157.972391,19.855 C158.249059,19.855 158.493224,19.9008329 158.704891,19.9925 C158.916559,20.0841671 159.093224,20.2141658 159.234891,20.3825 C159.376559,20.5508342 159.484058,20.7533321 159.557391,20.99 C159.630725,21.2266678 159.667391,21.4883319 159.667391,21.775 L159.667391,25 L158.777391,25 L158.777391,21.775 C158.777391,21.3916648 158.689892,21.0941677 158.514891,20.8825 C158.33989,20.6708323 158.072393,20.565 157.712391,20.565 C157.449057,20.565 157.203226,20.6283327 156.974891,20.755 C156.746557,20.8816673 156.535726,21.0533323 156.342391,21.27 L156.342391,25 L155.452391,25 Z M163.062391,19.855 C163.432393,19.855 163.766556,19.916666 164.064891,20.04 C164.363226,20.163334 164.616557,20.3383322 164.824891,20.565 C165.033226,20.7916678 165.193224,21.0658317 165.304891,21.3875 C165.416559,21.7091683 165.472391,22.0683314 165.472391,22.465 C165.472391,22.865002 165.416559,23.2249984 165.304891,23.545 C165.193224,23.8650016 165.033226,24.1383322 164.824891,24.365 C164.616557,24.5916678 164.363226,24.7658327 164.064891,24.8875 C163.766556,25.0091673 163.432393,25.07 163.062391,25.07 C162.692389,25.07 162.358226,25.0091673 162.059891,24.8875 C161.761556,24.7658327 161.507392,24.5916678 161.297391,24.365 C161.08739,24.1383322 160.925725,23.8650016 160.812391,23.545 C160.699057,23.2249984 160.642391,22.865002 160.642391,22.465 C160.642391,22.0683314 160.699057,21.7091683 160.812391,21.3875 C160.925725,21.0658317 161.08739,20.7916678 161.297391,20.565 C161.507392,20.3383322 161.761556,20.163334 162.059891,20.04 C162.358226,19.916666 162.692389,19.855 163.062391,19.855 Z M163.062391,24.375 C163.562391,24.375 163.935723,24.2075017 164.182391,23.8725 C164.429059,23.5374983 164.552391,23.070003 164.552391,22.47 C164.552391,21.8666636 164.429059,21.3966683 164.182391,21.06 C163.935723,20.7233316 163.562391,20.555 163.062391,20.555 C162.809057,20.555 162.589059,20.5983329 162.402391,20.685 C162.215724,20.7716671 162.059892,20.8966658 161.934891,21.06 C161.809891,21.2233341 161.716558,21.4241655 161.654891,21.6625 C161.593224,21.9008345 161.562391,22.1699985 161.562391,22.47 C161.562391,22.7700015 161.593224,23.0383321 161.654891,23.275 C161.716558,23.5116679 161.809891,23.7108325 161.934891,23.8725 C162.059892,24.0341675 162.215724,24.1583329 162.402391,24.245 C162.589059,24.3316671 162.809057,24.375 163.062391,24.375 Z M165.912391,19.935 L166.612391,19.935 C166.685725,19.935 166.745724,19.9533331 166.792391,19.99 C166.839058,20.0266668 166.870725,20.0699998 166.887391,20.12 L167.857391,23.38 C167.884058,23.5000006 167.909058,23.6158328 167.932391,23.7275 C167.955725,23.8391672 167.975725,23.9516661 167.992391,24.065 C168.019058,23.9516661 168.049058,23.8391672 168.082391,23.7275 C168.115725,23.6158328 168.150724,23.5000006 168.187391,23.38 L169.257391,20.1 C169.274058,20.0499997 169.303224,20.0083335 169.344891,19.975 C169.386558,19.9416665 169.439058,19.925 169.502391,19.925 L169.887391,19.925 C169.954058,19.925 170.009058,19.9416665 170.052391,19.975 C170.095725,20.0083335 170.125725,20.0499997 170.142391,20.1 L171.187391,23.38 C171.224058,23.4966673 171.256558,23.6116661 171.284891,23.725 C171.313225,23.8383339 171.340725,23.9499994 171.367391,24.06 C171.384058,23.9499994 171.405725,23.8350006 171.432391,23.715 C171.459058,23.5949994 171.487391,23.4833339 171.517391,23.38 L172.507391,20.12 C172.524058,20.0666664 172.555724,20.0225002 172.602391,19.9875 C172.649058,19.9524998 172.704058,19.935 172.767391,19.935 L173.437391,19.935 L171.797391,25 L171.092391,25 C171.005724,25 170.945725,24.9433339 170.912391,24.83 L169.792391,21.395 C169.765725,21.3183329 169.744058,21.2408337 169.727391,21.1625 C169.710725,21.0841663 169.694058,21.0066671 169.677391,20.93 C169.660725,21.0066671 169.644058,21.0849996 169.627391,21.165 C169.610725,21.2450004 169.589058,21.323333 169.562391,21.4 L168.427391,24.83 C168.390724,24.9433339 168.322392,25 168.222391,25 L167.552391,25 L165.912391,19.935 Z M175.652391,17.835 L175.652391,20.695 C175.652391,20.8450008 175.649891,20.9916659 175.644891,21.135 C175.639891,21.278334 175.632391,21.4224993 175.622391,21.5675 C175.612391,21.7125007 175.599891,21.8608326 175.584891,22.0125 C175.569891,22.1641674 175.552391,22.3266658 175.532391,22.5 L174.927391,22.5 C174.907391,22.3266658 174.889891,22.1641674 174.874891,22.0125 C174.859891,21.8608326 174.847391,21.7125007 174.837391,21.5675 C174.827391,21.4224993 174.819891,21.278334 174.814891,21.135 C174.809891,20.9916659 174.807391,20.8450008 174.807391,20.695 L174.807391,17.835 L175.652391,17.835 Z M174.592391,24.45 C174.592391,24.3633329 174.608224,24.281667 174.639891,24.205 C174.671558,24.128333 174.714891,24.0616669 174.769891,24.005 C174.824892,23.9483331 174.890724,23.9033335 174.967391,23.87 C175.044058,23.8366665 175.125724,23.82 175.212391,23.82 C175.299058,23.82 175.380724,23.8366665 175.457391,23.87 C175.534058,23.9033335 175.600724,23.9483331 175.657391,24.005 C175.714058,24.0616669 175.758224,24.128333 175.789891,24.205 C175.821558,24.281667 175.837391,24.3633329 175.837391,24.45 C175.837391,24.5400005 175.821558,24.6224996 175.789891,24.6975 C175.758224,24.7725004 175.714058,24.838333 175.657391,24.895 C175.600724,24.9516669 175.534058,24.9958332 175.457391,25.0275 C175.380724,25.0591668 175.299058,25.075 175.212391,25.075 C175.125724,25.075 175.044058,25.0591668 174.967391,25.0275 C174.890724,24.9958332 174.824892,24.9516669 174.769891,24.895 C174.714891,24.838333 174.671558,24.7725004 174.639891,24.6975 C174.608224,24.6224996 174.592391,24.5400005 174.592391,24.45 Z" id="It’sdone,tryitnow!" fill="#141414" fill-rule="nonzero"></path>
                </g>
                <g id="Group-41" transform="translate(201.000000, 269.000000)">
                    <g id="Group-24" transform="translate(0.239130, 0.000000)">
                        <g id="Group-21-Copy">
                            <g id="Rectangle">
                                <use fill="black" fill-opacity="1" filter="url(#filter-6)" xlink:href="#path-5"></use>
                                <use fill="#FFFFFF" fill-rule="evenodd" xlink:href="#path-5"></use>
                            </g>
                            <rect id="Rectangle" fill="#ECEEFA" x="0.366931533" y="0" width="15.9931537" height="169"></rect>
                        </g>
                        <g id="Group-25" transform="translate(141.807018, 58.737805)">
                            <path d="M-17.2235059,20.5994265 L22.7439738,20.5994265 C23.8485433,20.5994265 24.7439738,21.494857 24.7439738,22.5994265 L24.7439738,23.2482415 C24.7439738,24.352811 23.8485433,25.2482415 22.7439738,25.2482415 L-17.2235059,25.2482415 C-18.3280754,25.2482415 -19.2235059,24.352811 -19.2235059,23.2482415 L-19.2235059,22.5994265 C-19.2235059,21.494857 -18.3280754,20.5994265 -17.2235059,20.5994265 Z" id="Rectangle" fill="#0058FF" transform="translate(2.760234, 22.923834) rotate(-90.000000) translate(-2.760234, -22.923834) "></path>
                            <path d="M-2.42994092,26.0953614 L26.5456688,26.0953614 C27.6502383,26.0953614 28.5456688,26.9907919 28.5456688,28.0953614 L28.5456688,28.7441764 C28.5456688,29.8487459 27.6502383,30.7441764 26.5456688,30.7441764 L-2.42994092,30.7441764 C-3.53451042,30.7441764 -4.42994092,29.8487459 -4.42994092,28.7441764 L-4.42994092,28.0953614 C-4.42994092,26.9907919 -3.53451042,26.0953614 -2.42994092,26.0953614 Z" id="Rectangle-Copy-6" fill="#FF3B88" transform="translate(12.057864, 28.419769) rotate(-90.000000) translate(-12.057864, -28.419769) "></path>
                            <path d="M4.80671351,24.0343858 L37.9042745,24.0343858 C39.008844,24.0343858 39.9042745,24.9298163 39.9042745,26.0343858 L39.9042745,26.6832008 C39.9042745,27.7877703 39.008844,28.6832008 37.9042745,28.6832008 L4.80671351,28.6832008 C3.70214401,28.6832008 2.80671351,27.7877703 2.80671351,26.6832008 L2.80671351,26.0343858 C2.80671351,24.9298163 3.70214401,24.0343858 4.80671351,24.0343858 Z" id="Rectangle-Copy-7" fill="#0058FF" transform="translate(21.355494, 26.358793) rotate(-90.000000) translate(-21.355494, -26.358793) "></path>
                            <path d="M12.0433679,21.9734102 L49.2628801,21.9734102 C50.3674496,21.9734102 51.2628801,22.8688407 51.2628801,23.9734102 L51.2628801,24.6222252 C51.2628801,25.7267947 50.3674496,26.6222252 49.2628801,26.6222252 L12.0433679,26.6222252 C10.9387984,26.6222252 10.0433679,25.7267947 10.0433679,24.6222252 L10.0433679,23.9734102 C10.0433679,22.8688407 10.9387984,21.9734102 12.0433679,21.9734102 Z" id="Rectangle-Copy-8" fill="#FF3B88" transform="translate(30.653124, 24.297818) rotate(-90.000000) translate(-30.653124, -24.297818) "></path>
                        </g>
                        <g id="Group-27" transform="translate(45.543860, 47.402439)">
                            <path d="M24.745,33.06 C24.4749986,33.06 24.2191679,33.0150005 23.9775,32.925 C23.7358321,32.8349995 23.5233343,32.7025009 23.34,32.5275 C23.1566657,32.3524991 23.0108339,32.1375013 22.9025,31.8825 C22.7941661,31.6274987 22.74,31.3350016 22.74,31.005 C22.74,30.6916651 22.7983328,30.3983347 22.915,30.125 C23.0316672,29.8516653 23.1949989,29.6133344 23.405,29.41 C23.6150011,29.2066656 23.8649985,29.0466672 24.155,28.93 C24.4450014,28.8133328 24.7633316,28.755 25.11,28.755 C25.453335,28.755 25.7649986,28.8116661 26.045,28.925 C26.3250014,29.0383339 26.564999,29.1966656 26.765,29.4 C26.965001,29.6033343 27.1191661,29.8466653 27.2275,30.13 C27.3358339,30.4133347 27.39,30.7266649 27.39,31.07 C27.39,31.2766677 27.3708335,31.4724991 27.3325,31.6575 C27.2941665,31.8425009 27.2383337,32.0233324 27.165,32.2 C27.0916663,32.3766676 27.0041672,32.5524991 26.9025,32.7275 C26.8008328,32.9025009 26.6850006,33.0833324 26.555,33.27 L24.81,35.79 C24.7666664,35.8533336 24.7050004,35.9041665 24.625,35.9425 C24.5449996,35.9808335 24.4533338,36 24.35,36 L23.53,36 L25.71,33.145 C25.7833337,33.0483329 25.8516663,32.9566671 25.915,32.87 C25.9783336,32.7833329 26.038333,32.6966671 26.095,32.61 C25.9116658,32.7566674 25.7050012,32.868333 25.475,32.945 C25.2449989,33.021667 25.0016679,33.06 24.745,33.06 Z M26.535,30.965 C26.535,30.7416656 26.499167,30.5391676 26.4275,30.3575 C26.355833,30.1758324 26.2566673,30.0216673 26.13,29.895 C26.0033327,29.7683327 25.8525009,29.6708337 25.6775,29.6025 C25.5024991,29.5341663 25.3100011,29.5 25.1,29.5 C24.8799989,29.5 24.6791676,29.535833 24.4975,29.6075 C24.3158324,29.679167 24.160834,29.7783327 24.0325,29.905 C23.904166,30.0316673 23.8050004,30.1833325 23.735,30.36 C23.6649996,30.5366676 23.63,30.729999 23.63,30.94 C23.63,31.1666678 23.6624997,31.3691658 23.7275,31.5475 C23.7925003,31.7258342 23.8858327,31.8766661 24.0075,32 C24.1291673,32.123334 24.2774991,32.2166663 24.4525,32.28 C24.6275009,32.3433336 24.8233322,32.375 25.04,32.375 C25.2800012,32.375 25.4924991,32.3358337 25.6775,32.2575 C25.8625009,32.1791663 26.0183327,32.0750006 26.145,31.945 C26.2716673,31.8149994 26.368333,31.6650008 26.435,31.495 C26.501667,31.3249992 26.535,31.1483343 26.535,30.965 Z M33.3,32.42 C33.3,33.0466698 33.2325007,33.5891644 33.0975,34.0475 C32.9624993,34.5058356 32.7783345,34.8849985 32.545,35.185 C32.3116655,35.4850015 32.0358349,35.7083326 31.7175,35.855 C31.3991651,36.0016674 31.0583352,36.075 30.695,36.075 C30.3283315,36.075 29.9875016,36.0016674 29.6725,35.855 C29.3574984,35.7083326 29.0833345,35.4850015 28.85,35.185 C28.6166655,34.8849985 28.433334,34.5058356 28.3,34.0475 C28.166666,33.5891644 28.1,33.0466698 28.1,32.42 C28.1,31.7933302 28.166666,31.2500023 28.3,30.79 C28.433334,30.3299977 28.6166655,29.9491682 28.85,29.6475 C29.0833345,29.3458318 29.3574984,29.1216674 29.6725,28.975 C29.9875016,28.8283326 30.3283315,28.755 30.695,28.755 C31.0583352,28.755 31.3991651,28.8283326 31.7175,28.975 C32.0358349,29.1216674 32.3116655,29.3458318 32.545,29.6475 C32.7783345,29.9491682 32.9624993,30.3299977 33.0975,30.79 C33.2325007,31.2500023 33.3,31.7933302 33.3,32.42 Z M32.375,32.42 C32.375,31.8733306 32.3291671,31.4141685 32.2375,31.0425 C32.1458329,30.6708315 32.0225008,30.3716678 31.8675,30.145 C31.7124992,29.9183322 31.5333344,29.7558338 31.33,29.6575 C31.1266656,29.5591662 30.9150011,29.51 30.695,29.51 C30.4749989,29.51 30.2633344,29.5591662 30.06,29.6575 C29.8566657,29.7558338 29.6783341,29.9183322 29.525,30.145 C29.3716659,30.3716678 29.2491671,30.6708315 29.1575,31.0425 C29.0658329,31.4141685 29.02,31.8733306 29.02,32.42 C29.02,32.9666694 29.0658329,33.4249982 29.1575,33.795 C29.2491671,34.1650018 29.3716659,34.4633322 29.525,34.69 C29.6783341,34.9166678 29.8566657,35.0791662 30.06,35.1775 C30.2633344,35.2758338 30.4749989,35.325 30.695,35.325 C30.9150011,35.325 31.1266656,35.2758338 31.33,35.1775 C31.5333344,35.0791662 31.7124992,34.9166678 31.8675,34.69 C32.0225008,34.4633322 32.1458329,34.1650018 32.2375,33.795 C32.3291671,33.4249982 32.375,32.9666694 32.375,32.42 Z M37.135,30.565 C37.135,30.8450014 37.0916671,31.0958322 37.005,31.3175 C36.9183329,31.5391678 36.8025007,31.7258326 36.6575,31.8775 C36.5124993,32.0291674 36.3433343,32.1449996 36.15,32.225 C35.9566657,32.3050004 35.7550011,32.345 35.545,32.345 C35.3183322,32.345 35.1091676,32.3050004 34.9175,32.225 C34.7258324,32.1449996 34.558334,32.0291674 34.415,31.8775 C34.2716659,31.7258326 34.1600004,31.5391678 34.08,31.3175 C33.9999996,31.0958322 33.96,30.8450014 33.96,30.565 C33.96,30.2783319 33.9999996,30.0233345 34.08,29.8 C34.1600004,29.5766656 34.2716659,29.3883341 34.415,29.235 C34.558334,29.0816659 34.7258324,28.9650004 34.9175,28.885 C35.1091676,28.8049996 35.3183322,28.765 35.545,28.765 C35.7683344,28.765 35.977499,28.8049996 36.1725,28.885 C36.367501,28.9650004 36.5358326,29.0816659 36.6775,29.235 C36.8191674,29.3883341 36.9308329,29.5766656 37.0125,29.8 C37.0941671,30.0233345 37.135,30.2783319 37.135,30.565 Z M36.44,30.565 C36.44,30.3449989 36.4166669,30.1583341 36.37,30.005 C36.3233331,29.8516659 36.2591671,29.7258338 36.1775,29.6275 C36.0958329,29.5291662 36.0008339,29.4583335 35.8925,29.415 C35.7841661,29.3716664 35.668334,29.35 35.545,29.35 C35.421666,29.35 35.3058339,29.3716664 35.1975,29.415 C35.0891661,29.4583335 34.9950004,29.5291662 34.915,29.6275 C34.8349996,29.7258338 34.7725002,29.8516659 34.7275,30.005 C34.6824998,30.1583341 34.66,30.3449989 34.66,30.565 C34.66,30.7816678 34.6824998,30.9658326 34.7275,31.1175 C34.7725002,31.2691674 34.8349996,31.3924995 34.915,31.4875 C34.9950004,31.5825005 35.0891661,31.6508331 35.1975,31.6925 C35.3058339,31.7341669 35.421666,31.755 35.545,31.755 C35.668334,31.755 35.7841661,31.7341669 35.8925,31.6925 C36.0008339,31.6508331 36.0958329,31.5825005 36.1775,31.4875 C36.2591671,31.3924995 36.3233331,31.2691674 36.37,31.1175 C36.4166669,30.9658326 36.44,30.7816678 36.44,30.565 Z M39.64,29.015 C39.6833336,28.9583331 39.7291664,28.9141668 39.7775,28.8825 C39.8258336,28.8508332 39.8899996,28.835 39.97,28.835 L40.61,28.835 L35.375,35.855 C35.3416665,35.8983336 35.3016669,35.9333332 35.255,35.96 C35.2083331,35.9866668 35.1533337,36 35.09,36 L34.43,36 L39.64,29.015 Z M41.095,34.31 C41.095,34.5900014 41.0516671,34.8399989 40.965,35.06 C40.8783329,35.2800011 40.7625007,35.4658326 40.6175,35.6175 C40.4724993,35.7691674 40.3041676,35.8849996 40.1125,35.965 C39.9208324,36.0450004 39.7200011,36.085 39.51,36.085 C39.2833322,36.085 39.0741676,36.0450004 38.8825,35.965 C38.6908324,35.8849996 38.5233341,35.7691674 38.38,35.6175 C38.236666,35.4658326 38.1250004,35.2800011 38.045,35.06 C37.9649996,34.8399989 37.925,34.5900014 37.925,34.31 C37.925,34.0233319 37.9649996,33.7675011 38.045,33.5425 C38.1250004,33.3174989 38.236666,33.1283341 38.38,32.975 C38.5233341,32.8216659 38.6908324,32.7050004 38.8825,32.625 C39.0741676,32.5449996 39.2833322,32.505 39.51,32.505 C39.7333345,32.505 39.9416657,32.5449996 40.135,32.625 C40.3283343,32.7050004 40.496666,32.8216659 40.64,32.975 C40.7833341,33.1283341 40.8949996,33.3174989 40.975,33.5425 C41.0550004,33.7675011 41.095,34.0233319 41.095,34.31 Z M40.405,34.31 C40.405,34.0899989 40.3816669,33.9025008 40.335,33.7475 C40.2883331,33.5924992 40.2241671,33.4666671 40.1425,33.37 C40.0608329,33.2733329 39.9658339,33.2033335 39.8575,33.16 C39.7491661,33.1166664 39.6333339,33.095 39.51,33.095 C39.3866661,33.095 39.2708339,33.1166664 39.1625,33.16 C39.0541661,33.2033335 38.9600004,33.2733329 38.88,33.37 C38.7999996,33.4666671 38.7375002,33.5924992 38.6925,33.7475 C38.6474998,33.9025008 38.625,34.0899989 38.625,34.31 C38.625,34.5266678 38.6474998,34.7099992 38.6925,34.86 C38.7375002,35.0100008 38.7999996,35.1324995 38.88,35.2275 C38.9600004,35.3225005 39.0541661,35.3908331 39.1625,35.4325 C39.2708339,35.4741669 39.3866661,35.495 39.51,35.495 C39.6333339,35.495 39.7491661,35.4741669 39.8575,35.4325 C39.9658339,35.3908331 40.0608329,35.3225005 40.1425,35.2275 C40.2241671,35.1324995 40.2883331,35.0100008 40.335,34.86 C40.3816669,34.7099992 40.405,34.5266678 40.405,34.31 Z" id="90%" fill="#A0A5C2" fill-rule="nonzero"></path>
                            <path d="M32.0381621,54.2191744 C44.3378537,54.1917983 54.3309165,44.1971855 54.358349,31.895582 C54.3856687,19.5939784 44.4369914,9.64375111 32.1372998,9.67107088 C19.8376083,9.69850336 9.84454546,19.6931161 9.81716934,31.9947197" id="Oval-Copy-13" stroke="#FF3B88" stroke-width="3" stroke-linecap="round" transform="translate(32.087759, 31.945123) rotate(46.000000) translate(-32.087759, -31.945123) "></path>
                            <path d="M32.0877193,54.1678155 C44.4157597,54.1678155 54.409611,44.2183767 54.409611,31.945122 C54.409611,19.6718672 44.4157597,9.72242842 32.0877193,9.72242842 C19.7596789,9.72242842 9.76582761,19.6718672 9.76582761,31.945122" id="Oval-Copy-13" stroke="#0058FF" stroke-width="3" stroke-linecap="round"></path>
                        </g>
                        <path d="M281.368421,13.7439024 C281.021753,13.7439024 280.701756,13.6455701 280.408421,13.4489024 C280.115086,13.2522348 279.883422,12.9872374 279.713421,12.6539024 C279.54342,12.3205674 279.458421,11.9539044 279.458421,11.5539024 C279.458421,11.1539004 279.54342,10.7872374 279.713421,10.4539024 C279.883422,10.1205674 280.115086,9.85557009 280.408421,9.65890244 C280.701756,9.46223479 281.021753,9.36390244 281.368421,9.36390244 C281.715089,9.36390244 282.035086,9.46223479 282.328421,9.65890244 C282.621756,9.85557009 282.85342,10.1205674 283.023421,10.4539024 C283.193422,10.7872374 283.278421,11.1539004 283.278421,11.5539024 C283.278421,11.9539044 283.193422,12.3205674 283.023421,12.6539024 C282.85342,12.9872374 282.621756,13.2522348 282.328421,13.4489024 C282.035086,13.6455701 281.715089,13.7439024 281.368421,13.7439024 Z M280.318421,10.9639024 C280.105087,11.2239037 279.998421,11.5139008 279.998421,11.8339024 C279.998421,12.0805703 280.060087,12.3072347 280.183421,12.5139024 C280.306755,12.7205701 280.47342,12.8855685 280.683421,13.0089024 C280.893422,13.1322364 281.121753,13.1939024 281.368421,13.1939024 C281.615089,13.1939024 281.84342,13.1322364 282.053421,13.0089024 C282.263422,12.8855685 282.430087,12.7205701 282.553421,12.5139024 C282.676755,12.3072347 282.738421,12.0805703 282.738421,11.8339024 C282.738421,11.7005684 282.605089,11.6139026 282.338421,11.5739024 C282.185087,11.5539023 281.928423,11.5472357 281.568421,11.5539024 L281.368421,11.5539024 C281.121753,11.5539024 280.901755,11.498903 280.708421,11.3889024 C280.515087,11.2789019 280.385088,11.1372366 280.318421,10.9639024 Z M284.648421,15.9339024 L284.648421,17.5739024 C284.648421,17.7272365 284.595088,17.8572352 284.488421,17.9639024 C284.381754,18.0705696 284.251755,18.1239024 284.098421,18.1239024 L278.638421,18.1239024 C278.485087,18.1239024 278.355088,18.0705696 278.248421,17.9639024 C278.141754,17.8572352 278.088421,17.7272365 278.088421,17.5739024 L278.088421,15.9339024 C278.088421,15.6339009 278.161754,15.3589037 278.308421,15.1089024 C278.455088,14.8589012 278.65342,14.6605698 278.903421,14.5139024 C279.153422,14.367235 279.42842,14.2939024 279.728421,14.2939024 L280.978421,14.2939024 L280.858421,14.4039024 C280.831754,14.4305692 280.818421,14.4655689 280.818421,14.5089024 C280.818421,14.552236 280.831754,14.5905689 280.858421,14.6239024 L281.118421,14.8639024 C281.151755,14.8972359 281.175088,14.9372355 281.188421,14.9839024 C281.201754,15.0305693 281.198421,15.0705689 281.178421,15.1039024 L280.678421,16.3339024 C280.665088,16.3672359 280.660088,16.4105688 280.663421,16.4639024 C280.666754,16.517236 280.681754,16.5572356 280.708421,16.5839024 L281.288421,17.4339024 C281.308421,17.4672359 281.335088,17.4839024 281.368421,17.4839024 C281.401755,17.4839024 281.431754,17.4672359 281.458421,17.4339024 L282.028421,16.5839024 C282.055088,16.5572356 282.070088,16.517236 282.073421,16.4639024 C282.076754,16.4105688 282.071754,16.3672359 282.058421,16.3339024 L281.558421,15.1039024 C281.538421,15.0705689 281.535088,15.0305693 281.548421,14.9839024 C281.561754,14.9372355 281.585088,14.8972359 281.618421,14.8639024 L281.878421,14.6239024 C281.911755,14.5905689 281.928421,14.552236 281.928421,14.5089024 C281.928421,14.4655689 281.911755,14.4305692 281.878421,14.4039024 L281.758421,14.2939024 L283.008421,14.2939024 C283.308423,14.2939024 283.58342,14.367235 283.833421,14.5139024 C284.083422,14.6605698 284.281754,14.8589012 284.428421,15.1089024 C284.575088,15.3589037 284.648421,15.6339009 284.648421,15.9339024 Z" id="" fill="#B7C5D9" fill-rule="nonzero"></path>
                        <ellipse id="Oval-Copy-8" fill="#0058FF" cx="9.31578947" cy="9.27439024" rx="4.14035088" ry="4.12195122"></ellipse>
                        <g id="Group-26" transform="translate(219.438596, 58.737805)">
                            <path d="M22.254386,43.9674797 C34.5451439,43.9674797 44.5087719,34.1250241 44.5087719,21.9837398 C44.5087719,9.84245558 34.5451439,0 22.254386,0 C9.96362798,0 0,9.84245558 0,21.9837398 L22.254386,21.9837398 L22.254386,43.9674797 Z" id="Oval-Copy-14" fill="#0058FF"></path>
                            <path d="M0.157595872,23.7916132 C0.157595872,23.7916132 6.92132936,23.7916132 20.4487963,23.7916132 L20.4487963,44.4013693 C8.54052661,42.7948698 1.77679312,35.9249511 0.157595872,23.7916132 Z" id="Path-9" fill="#FF3B88"></path>
                        </g>
                        <ellipse id="Oval-Copy-9" fill="#BFC3D6" cx="8.79824561" cy="33.4908537" rx="2.5877193" ry="2.57621951"></ellipse>
                        <ellipse id="Oval-Copy-10" fill="#BFC3D6" cx="8.79824561" cy="44.8262195" rx="2.5877193" ry="2.57621951"></ellipse>
                        <ellipse id="Oval-Copy-11" fill="#BFC3D6" cx="8.79824561" cy="57.1920732" rx="2.5877193" ry="2.57621951"></ellipse>
                        <ellipse id="Oval-Copy-12" fill="#BFC3D6" cx="8.79824561" cy="69.5579268" rx="2.5877193" ry="2.57621951"></ellipse>
                    </g>
                </g>
            </g>
        </g>
    </g>
</svg>