<?xml version="1.0" encoding="UTF-8"?>
<svg width="222px" height="150px" viewBox="0 0 222 150" version="1.1" xmlns="http://www.w3.org/2000/svg" xmlns:xlink="http://www.w3.org/1999/xlink">
    <!-- Generator: Sketch 60.1 (88133) - https://sketch.com -->
    <title>Group 55</title>
    <desc>Created with Sketch.</desc>
    <defs>
        <polygon id="path-1" points="0.103001804 0.851450112 165.359095 0.851450112 165.359095 44.9016894 0.103001804 44.9016894"></polygon>
    </defs>
    <g id="RA-CAM" stroke="none" stroke-width="1" fill="none" fill-rule="evenodd">
        <g id="Main" transform="translate(-1123.000000, -4198.000000)">
            <g id="Group-55" transform="translate(1123.000000, 4198.000000)">
                <path d="M81.6486646,131.079076 C108.365646,117.787455 178.740872,148.90503 206.557759,127.834649 C222.555768,115.71668 161.125114,125.44447 189.13511,77.5679141 C201.435524,56.5432255 123.004868,59.1961442 132.908118,51.187484 C144.154782,42.092418 180.428359,47.2241957 174.806712,42.0432751 C140.846674,10.7456384 61.6058633,-7.80431848 48.5024107,3.18286793 C37.2121908,12.6496669 68.8396052,38.1538271 55.1880113,54.9321199 C41.5364174,71.7104127 -11.255052,71.1267864 36.8026097,83.126468 C53.2077533,87.2227243 54.6649253,94.3184154 57.6951115,100.043077 C67.9363905,119.391015 57.8762763,142.905771 81.6486646,131.079076 Z" id="Oval-Copy-25" fill="#ECEEFA" transform="translate(113.130453, 67.694805) scale(-1, 1) translate(-113.130453, -67.694805) "></path>
                <ellipse id="Oval-Copy-22" fill="#EDF1F4" cx="111.651515" cy="142.459154" rx="90.6515152" ry="7.06954336"></ellipse>
                <g id="Group-54" transform="translate(0.000000, 16.000000)">
                    <g id="Group-52" transform="translate(128.992353, 31.000000)">
                        <path d="M34.3768044,50.4134425 C32.9412067,52.0367851 27.8865158,55.4974202 24.2166383,57.7076599 C22.1209196,58.9691754 20.4754235,59.8242366 20.2111746,59.6957487 C20.2111746,59.6957487 20.2092639,59.6932998 20.2041843,59.6914513 C19.4876605,59.3422645 19.3920283,58.995099 18.4889134,58.9921589 C18.4889134,58.9921589 14.8606015,57.2369161 13.1363401,55.9220504 C11.4120867,54.6096273 6.2421968,52.32481 5.11307162,50.6998351 C3.98457266,49.0724197 10.0019535,46.7653997 22.2963378,35.0514652 C29.3198073,28.3607482 31.9797684,32.6592854 33.0586765,32.8924055 C35.4696945,33.4058801 37.4140823,35.319908 38.7914809,36.6489109 C38.9180843,36.7702335 39.042823,36.9031526 39.171401,37.0464653 C41.0786155,39.229062 36.4897633,48.0247071 34.3768044,50.4134425" id="Fill-41" fill="#0058FF" transform="translate(22.302098, 45.513819) rotate(-26.000000) translate(-22.302098, -45.513819) "></path>
                        <path d="M25.3891941,58.6532928 C23.3530779,59.9549876 21.7554532,60.83733 21.4987406,60.704843 C21.4987406,60.704843 21.4968842,60.7023173 21.4919495,60.7004115 C21.3498801,60.5853054 19.0342801,58.7491376 16.8818415,56.6961819 C14.7324873,54.6444962 14.1827983,53.8402011 14.1518344,53.7909673 C14.3356765,53.8696746 22.9473518,57.5852045 23.0801696,54.119871 C23.2159481,50.6180124 23.9754258,38.3441652 25.1829499,39.4907534 L25.3891941,58.6532928 Z" id="Fill-42" fill="#004BD9" transform="translate(19.770514, 50.066720) rotate(-26.000000) translate(-19.770514, -50.066720) "></path>
                        <path d="M40.2703896,23.7473798 C40.0583635,23.9961209 40.2737764,24.7824086 40.2750627,25.1755117 C40.276349,25.5686148 39.2108511,25.1720471 39.2108511,25.1720471 C39.2108511,25.1720471 37.0515247,28.6570562 36.2841253,28.261459 C36.0129958,28.1211882 35.6221628,27.8386942 35.222863,27.5194916 C34.4936123,26.9393905 33.7335654,26.2399756 33.5952898,26.0701811 C33.3815913,25.8078271 30.8980282,21.303864 30.5516023,19.4699049 C30.5424994,19.4209672 30.5339926,19.3720314 30.5272683,19.3212673 C30.2553031,17.4679874 31.2104796,14.3947771 32.618817,13.889495 C34.0640725,13.3702719 38.533215,13.0357398 38.660347,13.0795596 C38.7880772,13.1239927 41.2600955,13.9176269 41.3882518,14.0922793 C41.5164101,14.267543 42.721777,18.4182632 42.721777,18.4182632 C42.721777,18.4182632 40.4824197,23.4998614 40.2703896,23.7473798" id="Fill-46" fill="#FFC493" transform="translate(36.601364, 20.684237) rotate(-26.000000) translate(-36.601364, -20.684237) "></path>
                        <path d="M40.5368571,18.1623447 C40.5368571,18.1623447 35.0805422,14.6216411 33.4530467,14.821703 C31.8255513,15.0217649 30.4919271,16.8656653 30.4919271,16.8656653 C30.4919271,16.8656653 30.5657488,15.27393 30.7923075,14.8043637 C31.0188662,14.3347974 34.6988342,12.0536848 34.6988342,12.0536848 C34.6988342,12.0536848 38.9650465,14.5660267 39.1560187,14.8061389 C39.3469908,15.0462512 40.4172912,16.9668167 40.4172912,16.9668167 L40.6959295,17.6861954 L40.5368571,18.1623447 Z" id="Fill-47" fill="#DB9F6D" transform="translate(35.593928, 15.108015) rotate(-26.000000) translate(-35.593928, -15.108015) "></path>
                        <path d="M37.6312019,29.8755681 C36.960273,29.7410375 35.6225367,29.6209509 34.2530438,29.7912356 C33.56103,29.8766408 32.8607879,30.0387915 32.2360053,30.3094713 C32.1132177,30.1750064 31.9940962,30.0502932 31.8731914,29.9358868 C30.557812,28.6889233 28.7003692,26.8930486 26.3984184,26.4117428 C27.4209318,25.5241683 31.3491349,22.8585173 32.862973,22.1919738 C32.8697893,22.2389761 32.8784208,22.2854114 32.8870466,22.3301278 C32.9923177,22.8495435 33.2976041,23.5970629 33.6763456,24.3958119 L33.6763512,24.3975307 C34.5533456,26.2389125 35.8267199,28.3462775 35.9774891,28.5175009 C36.1179221,28.6766592 36.8898879,29.3323105 37.6312019,29.8755681" id="Fill-48" fill="#FFC493" transform="translate(32.014810, 26.250723) rotate(-26.000000) translate(-32.014810, -26.250723) "></path>
                        <path d="M26.3876757,26.9942904 C26.5056178,27.0104976 28.0659728,24.9305558 28.4283456,25.2609815 C28.7913069,25.5920177 34.6451924,30.940478 34.5617115,31.2390228 C34.4794037,31.5375714 32.8006138,33.2714498 32.4073446,33.3571975 C32.0140734,33.4423367 26.3907923,27.9467403 26.389235,27.4708196 L26.3876757,26.9942904 Z" id="Fill-49" fill="#FF3B88" transform="translate(30.475136, 29.291787) rotate(-26.000000) translate(-30.475136, -29.291787) "></path>
                        <path d="M11.360774,54.5949553 C11.360774,54.5949553 7.15744014,57.915199 10.0338452,59.6789095 C10.0338452,59.6789095 23.5650326,64.1708036 23.8832777,64.758669 C23.8832777,64.758669 26.7269746,65.1543073 26.3528297,62.9738361 C25.9793283,60.7939254 11.360774,54.5949553 11.360774,54.5949553" id="Fill-50" fill="#FF3B88" transform="translate(17.707072, 59.690837) rotate(-26.000000) translate(-17.707072, -59.690837) "></path>
                        <path d="M28.8151495,17.8546368 C28.8151495,17.8546368 28.4472143,16.1364497 27.7302576,16.5239546 C27.0126568,16.9102449 26.6251068,19.1746574 27.2972904,19.5806292 C27.9688358,19.9872052 28.215749,20.9113758 27.4844527,21.0247948 C26.7537946,21.1376097 26.1683335,21.0205102 25.9437596,21.250166 C25.7191877,21.4804282 26.0884766,22.6341717 25.050757,22.0257243 C24.0123972,21.417275 18.7803678,20.3610753 20.7082181,15.4037246 C22.6360704,10.4469801 22.5088739,6.98348581 20.2522478,7.32232604 C20.2522478,7.32232604 23.2296146,5.60047888 25.0658896,8.2613638 C26.903447,10.9228592 33.6015871,9.50171514 29.876385,7.06506774 C26.151185,4.62902662 23.8377026,5.19867503 23.8377026,5.19867503 C23.8377026,5.19867503 31.0772633,1.58637327 37.0655205,6.62709196 C43.0537777,11.6678107 39.9118285,19.8241943 39.393911,19.8079574 C38.8759936,19.7917206 35.6975013,16.7802793 34.3537723,15.9677314 C33.0106854,15.1557919 30.8811514,16.1874194 29.8501334,17.627013 C28.8191153,19.0666065 28.6954124,18.431427 28.6954124,18.431427 L28.8151495,17.8546368 Z" id="Fill-51" fill="#06356D" transform="translate(30.465492, 13.073134) rotate(-26.000000) translate(-30.465492, -13.073134) "></path>
                        <path d="M37.634883,28.290026 C36.9394479,28.1402927 35.5528875,28.0068228 34.1334861,28.1969125 C34.1334861,28.1969125 34.3786043,24.6392944 33.5343858,22.1870227 C34.4438371,24.2385944 35.7641938,26.5864425 35.9205058,26.7771932 C36.0661016,26.9545027 36.8663915,27.6848789 37.634883,28.290026" id="Fill-53" fill="#DB9F6D" transform="translate(35.584634, 25.238524) rotate(-26.000000) translate(-35.584634, -25.238524) "></path>
                    </g>
                    <g id="Group-27" transform="translate(0.050377, 0.000000)">
                        <path d="M37.4772615,36.8030071 L23.3849349,36.3047018 C21.8944328,36.2524171 21.1862757,38.0268961 22.3395602,38.9253394 L33.6992995,47.7678571 L37.4772615,36.8030071 Z" id="Fill-1" fill="#004ADE"></path>
                        <path d="M133.707086,24.8392857 L116.840786,5.40901316 C115.491299,3.85559992 113.529863,2.91171227 111.425714,2.80318164 L56.5648574,0.00331049623 C54.7004651,-0.0920649107 53.5210914,1.89327833 54.5543278,3.38639677 L66.0592152,19.9981616 L133.707086,24.8392857 Z" id="Fill-3" fill="#004ADE"></path>
                        <path d="M123.128482,92.1267174 C103.536936,95.4664848 75.8718758,97.7148323 36.8080355,97.4206041 C36.8080355,97.4206041 22.0025786,53.1453693 42.2488575,27.003473 C42.2488575,27.003473 90.8585023,23.6936835 131.743212,40.9943006 L123.128482,92.1267174 Z" id="Fill-5" fill="#0057FF"></path>
                        <g id="Group-9" transform="translate(53.188253, 19.107143)" fill="#D7D7D8">
                            <path d="M90.0589687,7.94162917 L90.0555452,7.94274375 C90.0555452,7.94274375 78.3699644,22.1904625 78.7727974,45.081775 C78.7727974,45.081775 118.146586,51.3568792 155.239176,38.8300771 C136.794445,22.7711604 112.945133,13.3852542 90.0589687,7.94162917 M12.9101704,0.958764583 C12.9101704,0.958764583 122.481891,-6.5657875 168.306761,52.6130146 C168.306761,52.6130146 168.989133,88.1437021 6.32561947,86.9065146 C6.32561947,86.9065146 -11.5896085,32.8670562 12.9101704,0.958764583" id="Fill-7"></path>
                        </g>
                        <g id="Group-12" transform="translate(56.134064, 61.142857)">
                            <mask id="mask-2" fill="white">
                                <use xlink:href="#path-1"></use>
                            </mask>
                            <g id="Clip-11"></g>
                            <path d="M87.278006,41.2349936 C88.0116077,41.1519253 88.7371982,41.0677345 89.4559219,40.9812985 C89.4696555,40.9812985 89.4845335,40.9790535 89.4971226,40.9779309 C90.2192797,40.891495 90.93457,40.805059 91.6418491,40.716378 C91.6475714,40.716378 91.6532937,40.7152555 91.659016,40.7152555 C165.758513,31.5115119 165.359118,10.3324622 165.359118,10.3324622 C162.760017,6.96033806 159.95379,3.80598761 156.977038,0.851450112 C156.959871,0.868288281 128.740857,20.0165425 66.0276367,17.24947 L37.4609195,32.9899032 C38.72417,32.9816712 39.2596602,32.9816712 39.0673902,32.9899032 C38.7789851,33.0022512 19.5634759,34.1405115 0.103001804,34.1595948 C0.745046379,37.0737206 1.36649059,39.4984171 1.86089925,41.3012238 L1.86089925,41.3023463 C1.98450141,41.7536093 2.09894786,42.1554802 2.2042386,42.5270425 C2.2202611,42.5809247 2.2362836,42.6370519 2.25116164,42.6898115 C2.29350683,42.8346198 2.33127415,42.96708 2.37018595,43.0984177 C2.39078631,43.166893 2.4102422,43.2342456 2.42855363,43.2993532 C2.4617431,43.4093626 2.49149918,43.5092691 2.52125526,43.6091756 C2.54300008,43.6810184 2.56360044,43.7494936 2.58305634,43.8168463 C2.60937902,43.9021597 2.63341278,43.9807378 2.65630207,44.0570709 C2.6746135,44.1176883 2.69178047,44.172693 2.70894743,44.2276977 C2.72840333,44.2928052 2.74785923,44.3545452 2.76502619,44.4095499 C2.78219316,44.4645546 2.79592673,44.5072113 2.80966031,44.5521131 C2.82110495,44.5902796 2.83369406,44.6295686 2.84284978,44.6598773 C2.86001674,44.7115144 2.87146139,44.7474358 2.88176157,44.7799896 C2.88633943,44.7934602 2.89091729,44.8069307 2.89435068,44.8170336 C2.90465086,44.8518325 2.91151765,44.8697932 2.91151765,44.8697932 C4.15783947,44.8798961 5.39386111,44.8866314 6.6218715,44.8922441 C7.01327836,44.8933666 7.39781842,44.8944892 7.78579188,44.8956117 C8.61552863,44.8978568 9.44640985,44.9012244 10.2669909,44.9012244 C10.7591106,44.902347 11.2443636,44.9012244 11.7341944,44.9001019 C12.4391845,44.9001019 13.1464635,44.9001019 13.8457313,44.8978568 C14.3813407,44.8967343 14.9100833,44.8933666 15.4411148,44.8911215 C16.0888817,44.8888765 16.7377931,44.8866314 17.3798376,44.8821412 C17.9268917,44.8787735 18.4670789,44.8742834 19.0095551,44.8697932 C19.6264214,44.8641805 20.2432878,44.8608128 20.8544318,44.8552001 C21.4094971,44.8495874 21.95884,44.8428521 22.5093275,44.8361169 C23.0987267,44.8293816 23.6881259,44.8226463 24.2729472,44.815911 C24.8257236,44.8080532 25.3739221,44.7990729 25.923265,44.7900925 C26.4966417,44.7822347 27.0711629,44.7732544 27.6411062,44.764274 C28.1984604,44.7541711 28.7512368,44.7429456 29.3028686,44.7328427 C29.8487782,44.7227398 30.3946878,44.7126369 30.9360195,44.7014115 C31.5002404,44.6890635 32.0598836,44.6767155 32.6195267,44.6643675 C33.1414025,44.6520195 33.6609894,44.6396715 34.1782873,44.6273235 C34.751664,44.6127305 35.3227518,44.5981374 35.8904062,44.5824218 C36.380237,44.5700738 36.8666344,44.5566032 37.3518874,44.5420102 C37.9355642,44.5262945 38.5158077,44.5094564 39.0937623,44.4903731 C39.5572704,44.4769026 40.0184896,44.4623095 40.4785643,44.4477164 C41.0702525,44.4286331 41.6596517,44.4084273 42.2456175,44.3893441 C42.6770806,44.3736285 43.1062548,44.3579128 43.535429,44.3433198 C44.1397062,44.3208689 44.7416945,44.298418 45.3402494,44.2748445 C45.7396676,44.2591289 46.1356523,44.2434133 46.5327814,44.2276977 C47.1485033,44.2030017 47.7642252,44.1771831 48.3742248,44.1513646 C48.7415979,44.135649 49.1043931,44.1188108 49.4683328,44.1030952 C50.1023662,44.073909 50.7363995,44.0458454 51.3647105,44.0177818 C51.6828716,44.0020662 51.9975993,43.9863506 52.314616,43.9717575 C52.9795499,43.9380811 53.6444837,43.9055273 54.3014064,43.8729735 C54.5589109,43.8583805 54.812982,43.8449099 55.069342,43.8325619 C55.7754766,43.7943954 56.4804667,43.7562289 57.1785901,43.7180624 C57.3605599,43.7079595 57.5402408,43.696734 57.7233552,43.6866311 C58.4878574,43.6439744 59.2500708,43.6001952 60.0042729,43.5541709 C60.0592072,43.5519258 60.1118525,43.5474356 60.1656424,43.544068 C69.1920338,42.9973887 77.4413337,42.3025336 84.9844992,41.4886887 C84.9982327,41.4875662 85.0108218,41.4864436 85.0245554,41.4841985 C85.7730352,41.4033753 86.5135037,41.3214296 87.2482499,41.2383613 L87.278006,41.2349936 Z" id="Fill-10" fill="#9FA6C4" mask="url(#mask-2)"></path>
                        </g>
                        <path d="M122.869745,58.4619241 C123.306598,63.1912166 119.720864,67.3702708 114.858813,67.7952983 C109.999124,68.2203258 105.7038,64.7316541 105.266948,60.0023616 C104.830095,55.2730691 108.415828,51.0940149 113.276699,50.6689874 C118.137569,50.2439599 122.432892,53.7326316 122.869745,58.4619241" id="Fill-13" fill="#9FA6C4"></path>
                        <path d="M114.858813,65.8845841 C109.997943,66.3096116 105.7038,62.8209399 105.266948,58.0916473 C104.830095,53.3623548 108.415828,49.1833006 113.276699,48.7582731 C118.137569,48.3332456 122.432892,51.8219173 122.869745,56.5512098 C123.306598,61.2805023 119.720864,65.4595565 114.858813,65.8845841 Z" id="Fill-15" fill="#EDF1F4"></path>
                        <path d="M114.647478,63.106012 C111.319822,63.3968887 108.380329,61.0087665 108.081355,57.7712354 C107.782381,54.5349265 110.236983,51.6750462 113.563383,51.3841695 C116.89104,51.0920707 119.830533,53.481415 120.129507,56.717724 C120.428481,59.9540329 117.973879,62.8139131 114.647478,63.106012 Z" id="Fill-17" fill="#0057FF"></path>
                        <path d="M99.3032572,58.4620215 C99.7401098,63.19127 96.1543767,67.3702853 91.2935063,67.7953088 C86.4326359,68.2203324 82.1373125,64.7305445 81.70046,60.001296 C81.2636074,55.2720475 84.8493405,51.094181 89.7102109,50.6691574 C94.5710813,50.2429852 98.8664047,53.7327731 99.3032572,58.4620215" id="Fill-19" fill="#9FA6C4"></path>
                        <path d="M90.3103887,65.884594 C85.4495183,66.3096218 81.1553756,62.8197993 80.718523,58.0916528 C80.2816704,53.3623575 83.8674036,49.1833009 88.728274,48.7582731 C93.5891444,48.3332454 97.8844679,51.8219191 98.3213205,56.5512143 C98.758173,61.2805096 95.1724399,65.4595663 90.3103887,65.884594 Z" id="Fill-21" fill="#EDF1F4"></path>
                        <path d="M89.0773383,63.1161203 C85.7497887,62.8949119 83.2362534,60.0864196 83.4645285,56.8452875 C83.6915494,53.6017112 86.5725828,51.1537521 89.9001324,51.3737384 C93.2276819,51.5961691 95.7412173,54.4034392 95.5141964,57.6457934 C95.2871755,60.8881476 92.4048879,63.3373288 89.0773383,63.1161203 Z" id="Fill-23" fill="#0057FF"></path>
                        <path d="M122.905779,79.2946429 L96.6152596,95.0174044 C96.276667,95.2198578 95.8901926,95.3312072 95.4934578,95.3413299 L2.48651276,97.4457213 C0.0867233593,97.5008336 -0.740947476,94.3200646 1.38751182,93.2268159 L26.1446742,80.5093637 L122.905779,79.2946429 Z" id="Fill-25" fill="#004ADE"></path>
                    </g>
                </g>
            </g>
        </g>
    </g>
</svg>