<?xml version="1.0" encoding="UTF-8"?>
<svg width="27px" height="77px" viewBox="0 0 27 77" version="1.1" xmlns="http://www.w3.org/2000/svg" xmlns:xlink="http://www.w3.org/1999/xlink">
    <!-- Generator: Sketch 60.1 (88133) - https://sketch.com -->
    <title>Group 18</title>
    <!-- Lopez mateos -->
    <desc>Created with Sketch.</desc>
    <defs>
        <polygon id="path-1" points="0.30748 0.0709236656 13.6278153 0.0709236656 13.6278153 68 0.30748 68"></polygon>
    </defs>
    <g id="RA-CAM" stroke="none" stroke-width="1" fill="none" fill-rule="evenodd">
        <g id="Main" transform="translate(-38.000000, -5869.000000)">
            <g id="Group-18" transform="translate(38.000000, 5869.000000)">
                <path d="M26.9175824,60 C26.9175824,66.6274839 22.4402747,72 16.9175824,72 C11.3948901,72 6.91758242,66.6274839 6.91758242,60 C6.91758242,53.3725161 11.3948901,48 16.9175824,48 C22.4402747,48 26.9175824,53.3725161 26.9175824,60" id="Fill-1" fill="#FFFFFF"></path>
                <path d="M11.109608,70 C11.1200016,70.5096017 11.0694672,71.0057536 10.9271824,71.4507211 C10.2103824,73.6923709 7.88078242,73.5055668 7.16398242,73.8791751 C6.44718242,74.2527834 7.52238242,75 7.52238242,75 L13.6151824,75 C13.6151824,75 14.1527824,74.8131958 13.7943824,73.6923709 C13.6262928,73.1659568 13.4359824,72.9451543 13.7943824,70.7035044" id="Fill-3" fill="#FFFFFF"></path>
                <path d="M6.46916136,36.3946667 C6.46916136,36.3946667 3.54916136,36.0493827 3.970214,35.654321 C3.970214,35.654321 3.54916136,35.654321 4.39126663,35.2592593 C4.39126663,35.2592593 4.81231926,33.2839506 4.39126663,32.4938272 C3.970214,31.7037037 2.28600347,32.0987654 2.28600347,32.0987654 L1.02284558,33.2839506 C1.02284558,33.2839506 0.601792944,35.2592593 1.44389821,36.4444444 C2.28600347,37.6296296 6.91758242,40 6.91758242,40 L6.46916136,36.3946667 Z" id="Fill-5" fill="#FFFFFF"></path>
                <polygon id="Fill-7" fill="#FFFFFF" points="0.917582418 10 5.79303794 73.9656478 6.91758242 74 1.83762529 10"></polygon>
                <path d="M2.69669769,11.8325555 L1.18034013,11.9989748 C1.04911688,12.0136921 0.934776151,11.8682168 0.924800114,11.674627 L0.918277321,11.5450011 C0.908301284,11.3508453 1.00691057,11.1821618 1.13851751,11.1674445 L2.65449139,11.0010252 C2.78609833,10.9863079 2.90043906,11.1317832 2.91041509,11.325373 L2.91693789,11.4549989 C2.92653023,11.6491547 2.82792095,11.8178382 2.69669769,11.8325555" id="Fill-9" fill="#FFFFFF"></path>
                <polygon id="Fill-11" fill="#FFFFFF" points="0 10.5 3 10.4270611 0.995630986 0"></polygon>
                <path d="M15.2186666,20 C15.2186666,20 17.1777292,24.0109774 16.8884279,24.5833573 C16.7160254,24.9245082 16.4825379,24.9088051 16.068586,24.8173342 C16.068586,24.8173342 16.9175824,25.9986038 16.064555,26.343288 C16.064555,26.343288 16.0409892,28.6720653 15.6809905,29.6366314 C15.3209918,30.6011974 14.9175824,29.3402344 14.9175824,29.3402344 L15.2186666,20 Z" id="Fill-16" fill="#FFFFFF"></path>
                <g id="Group-15" transform="translate(4.917582, 9.000000)">
                    <mask id="mask-2" fill="white">
                        <use xlink:href="#path-1"></use>
                    </mask>
                    <g id="Clip-14"></g>
                    <path d="M9.03808,27.7826102 C9.03808,27.7826102 8.70008,29.3177966 9.01888,30.542565 C9.33768,31.7669492 9.56928,32.5791073 9.56928,32.5791073 C9.56928,32.5791073 10.10048,30.1299548 9.03808,27.7826102 M7.58248,59.7403051 C7.58688,60.5578418 8.31808,61.6496836 7.98248,63.582113 C7.58248,65.8871977 7.79488,66.1138644 7.98248,66.6555593 C8.38248,67.8081017 7.78248,68.0001921 7.78248,68.0001921 L0.98248,68.0001921 C0.98248,68.0001921 -0.21752,67.2318305 0.58248,66.8476497 C1.38248,66.4634689 3.98248,66.6555593 4.78248,64.3504746 C5.58248,62.0453898 3.78248,58.3956723 3.78248,58.3956723 C0.58248,57.2431299 1.78248,45.3335254 2.18248,44.9493446 C2.58248,44.5651638 1.78248,38.0340904 1.78248,38.0340904 C1.78248,38.0340904 -0.21752,38.0340904 0.98248,36.4973672 C2.18248,34.9606441 1.38248,30.7346554 1.38248,30.7346554 L1.09648,29.5755819 C1.09648,29.5755819 1.38248,27.2770282 0.98248,25.3561243 C0.88928,24.9077853 0.83968,24.5428136 0.81808,24.2473785 C0.77288,23.6261582 1.02248,23.0210734 1.50488,22.6046215 C2.42928,21.8070621 4.28448,20.166226 4.58248,19.5934124 C4.98248,18.8250508 4.58248,16.5199661 4.58248,16.5199661 C4.58248,16.5199661 2.98248,16.9041469 2.98248,16.5199661 C2.98248,16.1357853 2.58248,15.7516045 2.58248,15.3674237 C2.58248,14.9832429 2.98248,14.9832429 2.98248,14.9832429 C2.98248,14.9832429 2.56328,14.8088249 2.58248,14.5990621 C2.60008,14.4077401 2.98248,14.2148814 2.58248,13.8307006 C2.18248,13.4465198 1.72528,13.3838983 2.18248,13.062339 C2.50528,12.8352881 2.58248,11.141435 2.58248,11.141435 C1.38248,11.141435 1.18248,10.5651638 1.18248,10.5651638 C1.18248,10.5651638 3.58248,6.72335593 5.18248,5.95499435 C5.18248,5.95499435 4.66048,4.90656497 3.18248,3.6499096 C1.84328,2.51081356 3.58248,-0.576079096 6.78248,0.192282486 C9.98248,0.960644068 15.18248,2.88154802 13.18248,9.41262147 C11.18248,15.9436949 10.78248,14.7911525 10.78248,14.7911525 C10.78248,14.7911525 9.58248,17.0962373 10.38248,19.0171412 C10.59048,19.5161921 13.01488,27.7664746 12.77568,30.1810508 C12.33208,34.6532994 12.02848,37.4651186 11.55488,38.802452 C11.55488,38.802452 7.55448,54.3145198 7.58248,59.7403051" id="Fill-13" fill="#FFFFFF" mask="url(#mask-2)"></path>
                </g>
            </g>
        </g>
    </g>
</svg>