<?xml version="1.0" encoding="UTF-8"?>
<svg width="21px" height="20px" viewBox="0 0 21 20" version="1.1" xmlns="http://www.w3.org/2000/svg" xmlns:xlink="http://www.w3.org/1999/xlink">
    <!-- Generator: Sketch 60.1 (88133) - https://sketch.com -->
    <title></title>
    <desc>Created with Sketch.</desc>
    <g id="RA-CAM" stroke="none" stroke-width="1" fill="none" fill-rule="evenodd">
        <g id="Main" transform="translate(-1321.000000, -6018.000000)" fill="#FFFFFF" fill-rule="nonzero">
            <path d="M1331.5696,6022.81294 C1332.51332,6022.81294 1333.38287,6023.0455 1334.17829,6023.51062 C1334.97371,6023.97574 1335.60397,6024.606 1336.06909,6025.40142 C1336.53421,6026.19684 1336.76677,6027.06302 1336.76677,6028 C1336.76677,6028.93698 1336.53421,6029.80316 1336.06909,6030.59858 C1335.60397,6031.394 1334.97371,6032.02426 1334.17829,6032.48938 C1333.38287,6032.9545 1332.51669,6033.18706 1331.57971,6033.18706 C1330.64273,6033.18706 1329.77318,6032.9545 1328.97101,6032.48938 C1328.16885,6032.02426 1327.53522,6031.394 1327.0701,6030.59858 C1326.60499,6029.80316 1326.37243,6028.93698 1326.37243,6028 C1326.37243,6027.06302 1326.60836,6026.19684 1327.08022,6025.40142 C1327.55208,6024.606 1328.18571,6023.97574 1328.98113,6023.51062 C1329.77655,6023.0455 1330.63936,6022.81294 1331.5696,6022.81294 Z M1331.5696,6031.20526 C1332.14931,6031.20526 1332.6852,6031.06033 1333.17728,6030.77048 C1333.66937,6030.48062 1334.06033,6030.08966 1334.35019,6029.59757 C1334.64004,6029.10549 1334.78497,6028.5696 1334.78497,6027.98989 C1334.78497,6027.41018 1334.64004,6026.87766 1334.35019,6026.39232 C1334.06033,6025.90697 1333.66937,6025.51938 1333.17728,6025.22952 C1332.6852,6024.93967 1332.14931,6024.79474 1331.5696,6024.79474 C1330.98989,6024.79474 1330.454,6024.93967 1329.96191,6025.22952 C1329.46983,6025.51938 1329.07887,6025.90697 1328.78901,6026.39232 C1328.49916,6026.87766 1328.35423,6027.41018 1328.35423,6027.98989 C1328.35423,6028.5696 1328.49916,6029.10549 1328.78901,6029.59757 C1329.07887,6030.08966 1329.46983,6030.48062 1329.96191,6030.77048 C1330.454,6031.06033 1330.98989,6031.20526 1331.5696,6031.20526 Z M1335.81631,6018 C1336.8544,6018 1337.82507,6018.26289 1338.72835,6018.78868 C1339.59117,6019.30098 1340.27873,6019.98854 1340.79103,6020.85137 C1341.31682,6021.75464 1341.57971,6022.72531 1341.57971,6023.7634 L1341.57971,6032.2366 C1341.57971,6033.27469 1341.31682,6034.24536 1340.79103,6035.14863 C1340.27873,6036.01146 1339.59117,6036.69902 1338.72835,6037.21132 C1337.82507,6037.73711 1336.8544,6038 1335.81631,6038 L1327.32289,6038 C1326.28479,6038 1325.32087,6037.73711 1324.43108,6037.21132 C1323.55476,6036.69902 1322.86047,6036.00135 1322.34816,6035.1183 C1321.83586,6034.23525 1321.57971,6033.27469 1321.57971,6032.2366 L1321.57971,6023.7634 C1321.57971,6022.72531 1321.83586,6021.76475 1322.34816,6020.8817 C1322.86047,6019.99865 1323.55476,6019.30098 1324.43108,6018.78868 C1325.32087,6018.26289 1326.28479,6018 1327.32289,6018 L1335.81631,6018 Z M1339.59791,6032.2366 L1339.59791,6023.7634 C1339.59791,6023.07583 1339.42939,6022.4422 1339.09235,6021.86249 C1338.75531,6021.28277 1338.29694,6020.8244 1337.71722,6020.48736 C1337.13751,6020.15032 1336.50388,6019.9818 1335.81631,6019.9818 L1327.32289,6019.9818 C1326.63532,6019.9818 1326.00506,6020.15032 1325.43209,6020.48736 C1324.85911,6020.8244 1324.40411,6021.28277 1324.06707,6021.86249 C1323.73003,6022.4422 1323.56151,6023.07583 1323.56151,6023.7634 L1323.56151,6032.2366 C1323.56151,6032.92417 1323.73003,6033.5578 1324.06707,6034.13751 C1324.40411,6034.71723 1324.85911,6035.1756 1325.43209,6035.51264 C1326.00506,6035.84968 1326.63532,6036.0182 1327.32289,6036.0182 L1335.81631,6036.0182 C1336.50388,6036.0182 1337.13751,6035.84968 1337.71722,6035.51264 C1338.29694,6035.1756 1338.75531,6034.71723 1339.09235,6034.13751 C1339.42939,6033.5578 1339.59791,6032.92417 1339.59791,6032.2366 Z M1336.84766,6021.29626 C1337.22515,6021.29626 1337.54533,6021.43107 1337.80822,6021.70071 C1338.07112,6021.97034 1338.20256,6022.2939 1338.20256,6022.67139 C1338.20256,6023.04887 1338.07112,6023.36906 1337.80822,6023.63195 C1337.54533,6023.89484 1337.22515,6024.02629 1336.84766,6024.02629 C1336.47017,6024.02629 1336.14661,6023.89484 1335.87698,6023.63195 C1335.60735,6023.36906 1335.47253,6023.04887 1335.47253,6022.67139 C1335.47253,6022.2939 1335.60735,6021.97034 1335.87698,6021.70071 C1336.14661,6021.43107 1336.47017,6021.29626 1336.84766,6021.29626 Z" id=""></path>
        </g>
    </g>
</svg>