<?xml version="1.0" encoding="UTF-8"?>
<svg width="20px" height="16px" viewBox="0 0 20 16" version="1.1" xmlns="http://www.w3.org/2000/svg" xmlns:xlink="http://www.w3.org/1999/xlink">
    <!-- Generator: Sketch 60.1 (88133) - https://sketch.com -->
    <title></title>
    <desc>Created with Sketch.</desc>
    <g id="RA-CAM" stroke="none" stroke-width="1" fill="none" fill-rule="evenodd">
        <g id="Main" transform="translate(-1363.000000, -6020.000000)" fill="#FFFFFF" fill-rule="nonzero">
            <path d="M1383,6026.58 L1383,6028.96 L1382.94,6030.38 C1382.91333,6030.82 1382.88667,6031.14667 1382.86,6031.36 C1382.82,6032 1382.69333,6032.6 1382.48,6033.16 C1382.17333,6033.98667 1381.56,6034.50667 1380.64,6034.72 C1380.45333,6034.76 1380.17334,6034.79333 1379.8,6034.82 C1379.50667,6034.84667 1379.07334,6034.87333 1378.5,6034.9 L1378.44,6034.9 C1378.34667,6034.91333 1378.20667,6034.92 1378.02,6034.92 L1376.78,6034.96 L1373.76,6035.02 L1369.98,6034.98 L1368.5,6034.94 C1368.28667,6034.94 1367.96667,6034.92667 1367.54,6034.9 L1367.16,6034.88 C1366.82667,6034.86667 1366.57333,6034.85333 1366.4,6034.84 L1366.38,6034.84 C1365.76666,6034.78667 1365.30667,6034.70667 1365,6034.6 C1364.26666,6034.34667 1363.77333,6033.87334 1363.52,6033.18 C1363.36,6032.74 1363.25333,6032.34667 1363.2,6032 C1363.18667,6031.89333 1363.17333,6031.73333 1363.16,6031.52 L1363.14,6031.28 C1363.11333,6031.06667 1363.08667,6030.74667 1363.06,6030.32 C1363.03333,6030.02667 1363.02,6029.8 1363.02,6029.64 C1363.00667,6029.04 1363,6028.14001 1363,6026.94 C1363,6026.72667 1363.01333,6026.40667 1363.04,6025.98 L1363.04,6025.92 C1363.06667,6025.42666 1363.09333,6025.06 1363.12,6024.82 C1363.17333,6024.31333 1363.22667,6023.93333 1363.28,6023.68 C1363.37333,6023.16 1363.53333,6022.72 1363.76,6022.36 C1364.09334,6021.81333 1364.58666,6021.46 1365.24,6021.3 C1365.52,6021.24667 1365.81,6021.20667 1366.11,6021.18 C1366.41,6021.15333 1366.85333,6021.12667 1367.44,6021.1 L1369.12,6021.04 C1370.45334,6021.01333 1371.45333,6021 1372.12,6021 C1372.56,6020.98667 1373.22666,6020.98667 1374.12,6021 L1375.1,6021 C1375.44667,6021 1375.95333,6021.01333 1376.62,6021.04 C1376.98,6021.04 1377.49333,6021.05333 1378.16,6021.08 L1379.26,6021.14 C1379.72667,6021.16667 1380.08,6021.19333 1380.32,6021.22 C1381.05334,6021.3 1381.64,6021.6 1382.08,6022.12 C1382.28,6022.34667 1382.42667,6022.62667 1382.52,6022.96 C1382.65333,6023.41334 1382.74667,6023.76 1382.8,6024 C1382.81333,6024.09333 1382.82667,6024.24667 1382.84,6024.46 L1382.88,6024.94 C1382.90667,6025.15333 1382.92,6025.31333 1382.92,6025.42 L1382.92,6025.46 C1382.94667,6025.7 1382.96,6025.88 1382.96,6026 L1382.96,6026.58 L1383,6026.58 Z M1370.94,6030.6 L1376.34,6027.8 L1370.94,6024.98 L1370.94,6030.6 Z" id=""></path>
        </g>
    </g>
</svg>