<?xml version="1.0" encoding="UTF-8"?>
<svg width="22px" height="17px" viewBox="0 0 22 17" version="1.1" xmlns="http://www.w3.org/2000/svg" xmlns:xlink="http://www.w3.org/1999/xlink">
    <!-- Generator: Sketch 60.1 (88133) - https://sketch.com -->
    <title>tew</title>
    <desc>Created with Sketch.</desc>
    <g id="RA-CAM" stroke="none" stroke-width="1" fill="none" fill-rule="evenodd">
        <g id="Main" transform="translate(-1279.000000, -6019.000000)" fill="#FFFFFF" fill-rule="nonzero">
            <path d="M1300.57971,6021.00844 C1299.98838,6021.88514 1299.26921,6022.62634 1298.42218,6023.23207 L1298.42218,6023.80591 C1298.42218,6025.25645 1298.15848,6026.69104 1297.63108,6028.1097 C1297.07172,6029.57619 1296.28862,6030.88326 1295.28176,6032.03094 C1294.195,6033.25833 1292.91648,6034.21472 1291.44615,6034.90014 C1289.84797,6035.63338 1288.09798,6036 1286.19615,6036 C1283.78289,6036 1281.57744,6035.36241 1279.57971,6034.0872 L1279.65163,6034.0872 C1280.08314,6034.11908 1280.40277,6034.13502 1280.61053,6034.13502 C1281.6014,6034.13502 1282.5563,6033.97562 1283.47526,6033.65682 C1284.39421,6033.33802 1285.22126,6032.88373 1285.95642,6032.29395 C1285.02948,6032.27801 1284.19844,6031.99508 1283.46327,6031.44515 C1282.72811,6030.89522 1282.22469,6030.18988 1281.953,6029.32911 C1282.19273,6029.37693 1282.45642,6029.40084 1282.74409,6029.40084 C1283.15962,6029.40084 1283.54318,6029.35302 1283.89478,6029.25738 C1282.88792,6029.05016 1282.06088,6028.55603 1281.41361,6027.77496 C1280.76635,6026.9939 1280.44272,6026.08533 1280.44272,6025.04923 L1280.44272,6024.9775 C1281.03405,6025.32818 1281.6813,6025.51149 1282.3845,6025.52743 C1281.79318,6025.12892 1281.32572,6024.61486 1280.98211,6023.98523 C1280.6385,6023.3556 1280.4667,6022.67019 1280.4667,6021.92897 C1280.4667,6021.18776 1280.65848,6020.47445 1281.04204,6019.78903 C1282.1288,6021.11206 1283.4313,6022.16408 1284.94957,6022.94515 C1286.49981,6023.74215 1288.1539,6024.18847 1289.9119,6024.28411 C1289.84797,6024.01313 1289.81601,6023.68636 1289.81601,6023.3038 C1289.81601,6022.52273 1290.00779,6021.80544 1290.39135,6021.1519 C1290.77492,6020.49836 1291.29432,6019.97633 1291.94957,6019.58579 C1292.60483,6019.19526 1293.324,6019 1294.10711,6019 C1294.71442,6019 1295.29375,6019.11955 1295.84512,6019.35865 C1296.39649,6019.59775 1296.86395,6019.93249 1297.24752,6020.36287 C1298.25437,6020.17159 1299.16532,6019.82091 1299.9804,6019.31083 C1299.82058,6019.82091 1299.57686,6020.28317 1299.24923,6020.69761 C1298.9216,6021.11205 1298.53405,6021.44679 1298.08656,6021.70183 C1298.99752,6021.57431 1299.82856,6021.34318 1300.57971,6021.00844 Z" id=""></path>
        </g>
    </g>
</svg>